<svg width="1773" height="290" viewBox="0 0 1773 290" fill="none" xmlns="http://www.w3.org/2000/svg">
<g clip-path="url(#clip0_112_240)">
<rect width="1773" height="290" fill="white"/>
<path d="M3.08 172V168.064H12.44V149.536H4.28V145.6H16.76V168.064H25.64V172H3.08ZM14.12 140.848C13.064 140.848 12.232 140.576 11.624 140.032C11.016 139.488 10.712 138.752 10.712 137.824C10.712 136.864 11.016 136.112 11.624 135.568C12.232 134.992 13.064 134.704 14.12 134.704C15.176 134.704 16.008 134.992 16.616 135.568C17.224 136.112 17.528 136.864 17.528 137.824C17.528 138.752 17.224 139.488 16.616 140.032C16.008 140.576 15.176 140.848 14.12 140.848ZM32.1973 172V145.6H36.5173V150.64H37.4293L36.5173 151.648C36.5173 149.568 37.1413 147.968 38.3893 146.848C39.6373 145.696 41.3653 145.12 43.5733 145.12C46.2293 145.12 48.3413 145.936 49.9093 147.568C51.4773 149.2 52.2613 151.424 52.2613 154.24V172H47.9413V154.72C47.9413 152.832 47.4293 151.392 46.4053 150.4C45.4133 149.376 44.0533 148.864 42.3253 148.864C40.5333 148.864 39.1093 149.408 38.0533 150.496C37.0293 151.584 36.5173 153.152 36.5173 155.2V172H32.1973ZM69.4265 172.48C66.8025 172.48 64.6745 171.6 63.0425 169.84C61.4425 168.08 60.6425 165.696 60.6425 162.688V154.96C60.6425 151.92 61.4425 149.52 63.0425 147.76C64.6425 146 66.7705 145.12 69.4265 145.12C71.6025 145.12 73.3465 145.712 74.6585 146.896C75.9705 148.08 76.6265 149.664 76.6265 151.648L75.7625 150.64H76.7225L76.6265 144.64V136.96H80.9465V172H76.6265V166.96H75.7625L76.6265 165.952C76.6265 167.968 75.9705 169.568 74.6585 170.752C73.3465 171.904 71.6025 172.48 69.4265 172.48ZM70.8665 168.736C72.6585 168.736 74.0665 168.176 75.0905 167.056C76.1145 165.936 76.6265 164.384 76.6265 162.4V155.2C76.6265 153.216 76.1145 151.664 75.0905 150.544C74.0665 149.424 72.6585 148.864 70.8665 148.864C69.0425 148.864 67.6025 149.408 66.5465 150.496C65.4905 151.584 64.9625 153.152 64.9625 155.2V162.4C64.9625 164.448 65.4905 166.016 66.5465 167.104C67.6025 168.192 69.0425 168.736 70.8665 168.736ZM99.7438 172.48C97.6638 172.48 95.8398 172.064 94.2718 171.232C92.7358 170.4 91.5358 169.232 90.6718 167.728C89.8398 166.192 89.4238 164.416 89.4238 162.4V155.2C89.4238 153.152 89.8398 151.376 90.6718 149.872C91.5358 148.368 92.7358 147.2 94.2718 146.368C95.8398 145.536 97.6638 145.12 99.7438 145.12C101.824 145.12 103.632 145.536 105.168 146.368C106.736 147.2 107.936 148.368 108.768 149.872C109.632 151.376 110.064 153.152 110.064 155.2V159.856H93.6478V162.4C93.6478 164.48 94.1758 166.08 95.2318 167.2C96.2878 168.288 97.7918 168.832 99.7438 168.832C101.408 168.832 102.752 168.544 103.776 167.968C104.8 167.36 105.424 166.464 105.648 165.28H109.968C109.68 167.488 108.592 169.248 106.704 170.56C104.848 171.84 102.528 172.48 99.7438 172.48ZM105.84 156.976V155.2C105.84 153.12 105.312 151.52 104.256 150.4C103.232 149.28 101.728 148.72 99.7438 148.72C97.7918 148.72 96.2878 149.28 95.2318 150.4C94.1758 151.52 93.6478 153.12 93.6478 155.2V156.592H106.176L105.84 156.976ZM116.525 172L125.885 158.416L117.101 145.6H122.189L127.421 153.76C127.645 154.112 127.853 154.496 128.045 154.912C128.269 155.328 128.445 155.664 128.573 155.92C128.669 155.664 128.813 155.328 129.005 154.912C129.229 154.496 129.453 154.112 129.677 153.76L134.957 145.6H139.997L131.213 158.464L140.525 172H135.437L129.773 163.36C129.549 163.008 129.325 162.608 129.101 162.16C128.909 161.68 128.733 161.296 128.573 161.008C128.445 161.296 128.253 161.68 127.997 162.16C127.773 162.608 127.533 163.008 127.277 163.36L121.565 172H116.525ZM157.306 172.48C156.09 172.48 155.114 172.128 154.378 171.424C153.674 170.72 153.322 169.776 153.322 168.592C153.322 167.344 153.674 166.352 154.378 165.616C155.114 164.88 156.09 164.512 157.306 164.512C158.522 164.512 159.482 164.88 160.186 165.616C160.922 166.352 161.29 167.344 161.29 168.592C161.29 169.776 160.922 170.72 160.186 171.424C159.482 172.128 158.522 172.48 157.306 172.48ZM176.104 172V136.96H180.424V145.6V150.64H181.336L180.424 151.648C180.424 149.568 181.048 147.968 182.296 146.848C183.544 145.696 185.272 145.12 187.48 145.12C190.136 145.12 192.248 145.936 193.816 147.568C195.384 149.2 196.168 151.424 196.168 154.24V172H191.848V154.72C191.848 152.832 191.336 151.376 190.312 150.352C189.32 149.296 187.96 148.768 186.232 148.768C184.44 148.768 183.016 149.328 181.96 150.448C180.936 151.568 180.424 153.152 180.424 155.2V172H176.104ZM217.749 172C215.477 172 213.701 171.392 212.421 170.176C211.173 168.96 210.549 167.248 210.549 165.04V149.536H203.109V145.6H210.549V138.16H214.869V145.6H225.429V149.536H214.869V165.04C214.869 167.056 215.829 168.064 217.749 168.064H224.949V172H217.749ZM232.418 172V145.6H236.21V148.768H237.074L236.402 149.92C236.402 148.448 236.786 147.28 237.554 146.416C238.354 145.552 239.426 145.12 240.77 145.12C242.242 145.12 243.378 145.664 244.178 146.752C244.978 147.84 245.378 149.376 245.378 151.36L244.082 148.768H246.098L245.186 149.92C245.186 148.448 245.586 147.28 246.386 146.416C247.218 145.552 248.306 145.12 249.65 145.12C251.314 145.12 252.594 145.744 253.49 146.992C254.418 148.24 254.882 149.888 254.882 151.936V172H250.898V151.888C250.898 150.8 250.658 149.952 250.178 149.344C249.73 148.736 249.058 148.432 248.162 148.432C247.298 148.432 246.61 148.736 246.098 149.344C245.618 149.92 245.378 150.752 245.378 151.84V172H241.922V151.888C241.922 150.768 241.666 149.92 241.154 149.344C240.674 148.736 239.986 148.432 239.09 148.432C238.194 148.432 237.522 148.736 237.074 149.344C236.626 149.92 236.402 150.752 236.402 151.84V172H232.418ZM276.031 172C274.495 172 273.151 171.696 271.999 171.088C270.847 170.48 269.951 169.616 269.311 168.496C268.671 167.376 268.351 166.064 268.351 164.56V140.896H259.471V136.96H272.671V164.56C272.671 165.648 272.975 166.512 273.583 167.152C274.191 167.76 275.007 168.064 276.031 168.064H284.431V172H276.031Z" fill="black"/>
<path d="M515.416 50.64V15.6H519.736V20.64H520.6L519.736 21.648C519.736 19.632 520.392 18.048 521.704 16.896C523.048 15.712 524.808 15.12 526.984 15.12C529.64 15.12 531.752 16 533.32 17.76C534.92 19.488 535.72 21.872 535.72 24.912V32.64C535.72 34.656 535.352 36.4 534.616 37.872C533.912 39.344 532.904 40.48 531.592 41.28C530.312 42.08 528.776 42.48 526.984 42.48C524.84 42.48 523.096 41.888 521.752 40.704C520.408 39.52 519.736 37.936 519.736 35.952L520.6 36.96H519.64L519.736 42.96V50.64H515.416ZM525.544 38.736C527.368 38.736 528.792 38.192 529.816 37.104C530.872 36.016 531.4 34.448 531.4 32.4V25.2C531.4 23.152 530.872 21.584 529.816 20.496C528.792 19.408 527.368 18.864 525.544 18.864C523.784 18.864 522.376 19.424 521.32 20.544C520.264 21.664 519.736 23.216 519.736 25.2V32.4C519.736 34.384 520.264 35.936 521.32 37.056C522.376 38.176 523.784 38.736 525.544 38.736ZM554.181 42.384C552.069 42.384 550.245 41.984 548.709 41.184C547.173 40.384 545.973 39.232 545.109 37.728C544.277 36.192 543.861 34.384 543.861 32.304V25.296C543.861 23.184 544.277 21.376 545.109 19.872C545.973 18.368 547.173 17.216 548.709 16.416C550.245 15.616 552.069 15.216 554.181 15.216C556.293 15.216 558.117 15.616 559.653 16.416C561.189 17.216 562.373 18.368 563.205 19.872C564.069 21.376 564.501 23.168 564.501 25.248V32.304C564.501 34.384 564.069 36.192 563.205 37.728C562.373 39.232 561.189 40.384 559.653 41.184C558.117 41.984 556.293 42.384 554.181 42.384ZM554.181 38.544C556.069 38.544 557.541 38.016 558.597 36.96C559.653 35.904 560.181 34.352 560.181 32.304V25.296C560.181 23.248 559.653 21.696 558.597 20.64C557.541 19.584 556.069 19.056 554.181 19.056C552.325 19.056 550.853 19.584 549.765 20.64C548.709 21.696 548.181 23.248 548.181 25.296V32.304C548.181 34.352 548.709 35.904 549.765 36.96C550.853 38.016 552.325 38.544 554.181 38.544ZM582.147 42.384C580.355 42.384 578.787 42.112 577.443 41.568C576.131 40.992 575.075 40.192 574.275 39.168C573.507 38.144 573.043 36.928 572.883 35.52H577.203C577.395 36.448 577.907 37.184 578.739 37.728C579.603 38.272 580.739 38.544 582.147 38.544H584.163C585.859 38.544 587.123 38.208 587.955 37.536C588.787 36.832 589.203 35.904 589.203 34.752C589.203 33.632 588.819 32.752 588.051 32.112C587.315 31.44 586.211 30.992 584.739 30.768L581.187 30.192C578.595 29.744 576.659 28.944 575.379 27.792C574.131 26.608 573.507 24.896 573.507 22.656C573.507 20.288 574.259 18.464 575.763 17.184C577.267 15.872 579.523 15.216 582.531 15.216H584.355C586.883 15.216 588.915 15.808 590.451 16.992C591.987 18.176 592.915 19.776 593.234 21.792H588.915C588.723 20.96 588.243 20.304 587.475 19.824C586.707 19.312 585.667 19.056 584.355 19.056H582.531C580.899 19.056 579.699 19.36 578.931 19.968C578.195 20.576 577.827 21.488 577.827 22.704C577.827 23.792 578.147 24.592 578.787 25.104C579.427 25.616 580.435 25.984 581.811 26.208L585.363 26.784C588.211 27.232 590.275 28.064 591.555 29.28C592.867 30.496 593.523 32.256 593.523 34.56C593.523 36.992 592.739 38.912 591.171 40.32C589.635 41.696 587.299 42.384 584.163 42.384H582.147ZM614.624 42C612.352 42 610.576 41.392 609.296 40.176C608.048 38.96 607.424 37.248 607.424 35.04V19.536H599.984V15.6H607.424V8.16H611.744V15.6H622.304V19.536H611.744V35.04C611.744 37.056 612.704 38.064 614.624 38.064H621.824V42H614.624ZM639.709 42.384C637.917 42.384 636.349 42.112 635.005 41.568C633.693 40.992 632.637 40.192 631.837 39.168C631.069 38.144 630.605 36.928 630.445 35.52H634.765C634.957 36.448 635.469 37.184 636.301 37.728C637.165 38.272 638.301 38.544 639.709 38.544H641.725C643.421 38.544 644.685 38.208 645.517 37.536C646.349 36.832 646.765 35.904 646.765 34.752C646.765 33.632 646.381 32.752 645.613 32.112C644.877 31.44 643.773 30.992 642.301 30.768L638.749 30.192C636.157 29.744 634.221 28.944 632.941 27.792C631.693 26.608 631.069 24.896 631.069 22.656C631.069 20.288 631.821 18.464 633.325 17.184C634.829 15.872 637.085 15.216 640.093 15.216H641.917C644.445 15.216 646.477 15.808 648.013 16.992C649.549 18.176 650.477 19.776 650.797 21.792H646.477C646.285 20.96 645.805 20.304 645.037 19.824C644.269 19.312 643.229 19.056 641.917 19.056H640.093C638.461 19.056 637.261 19.36 636.493 19.968C635.757 20.576 635.389 21.488 635.389 22.704C635.389 23.792 635.709 24.592 636.349 25.104C636.989 25.616 637.997 25.984 639.373 26.208L642.925 26.784C645.773 27.232 647.837 28.064 649.117 29.28C650.429 30.496 651.085 32.256 651.085 34.56C651.085 36.992 650.301 38.912 648.733 40.32C647.197 41.696 644.861 42.384 641.725 42.384H639.709ZM658.506 47.28L675.546 2.16H680.106L663.066 47.28H658.506ZM706.248 47.28C704.36 47.28 702.728 46.96 701.352 46.32C700.008 45.712 698.984 44.8 698.28 43.584C697.576 42.4 697.272 40.976 697.368 39.312L697.848 31.44C697.944 29.744 697.688 28.528 697.08 27.792C696.472 27.024 695.128 26.64 693.048 26.64H687.768V22.8H693.048C695.128 22.8 696.472 22.432 697.08 21.696C697.688 20.928 697.944 19.696 697.848 18L697.368 10.128C697.272 8.432 697.576 6.992 698.28 5.808C698.984 4.624 700.008 3.728 701.352 3.12C702.728 2.48 704.36 2.16 706.248 2.16H708.408V6H706.248C704.744 6 703.592 6.352 702.792 7.056C701.992 7.728 701.624 8.752 701.688 10.128L702.168 18C702.296 20.08 701.8 21.744 700.68 22.992C699.56 24.208 697.976 24.816 695.928 24.816V24.576C697.944 24.576 699.512 25.2 700.632 26.448C701.784 27.696 702.296 29.36 702.168 31.44L701.688 39.312C701.624 40.688 701.992 41.712 702.792 42.384C703.592 43.088 704.744 43.44 706.248 43.44H708.408V47.28H706.248ZM716.549 42V38.064H725.909V19.536H717.749V15.6H730.229V38.064H739.109V42H716.549ZM727.589 10.848C726.533 10.848 725.701 10.576 725.093 10.032C724.485 9.488 724.181 8.752 724.181 7.824C724.181 6.864 724.485 6.112 725.093 5.568C725.701 4.992 726.533 4.704 727.589 4.704C728.645 4.704 729.477 4.992 730.085 5.568C730.693 6.112 730.997 6.864 730.997 7.824C730.997 8.752 730.693 9.488 730.085 10.032C729.477 10.576 728.645 10.848 727.589 10.848ZM754.114 42.48C751.49 42.48 749.362 41.6 747.73 39.84C746.13 38.08 745.33 35.696 745.33 32.688V24.96C745.33 21.92 746.13 19.52 747.73 17.76C749.33 16 751.458 15.12 754.114 15.12C756.29 15.12 758.034 15.712 759.346 16.896C760.658 18.08 761.314 19.664 761.314 21.648L760.45 20.64H761.41L761.314 14.64V6.96H765.634V42H761.314V36.96H760.45L761.314 35.952C761.314 37.968 760.658 39.568 759.346 40.752C758.034 41.904 756.29 42.48 754.114 42.48ZM755.554 38.736C757.346 38.736 758.754 38.176 759.778 37.056C760.802 35.936 761.314 34.384 761.314 32.4V25.2C761.314 23.216 760.802 21.664 759.778 20.544C758.754 19.424 757.346 18.864 755.554 18.864C753.73 18.864 752.29 19.408 751.234 20.496C750.178 21.584 749.65 23.152 749.65 25.2V32.4C749.65 34.448 750.178 36.016 751.234 37.104C752.29 38.192 753.73 38.736 755.554 38.736ZM774.111 47.28V43.44H776.271C777.775 43.44 778.927 43.088 779.727 42.384C780.527 41.712 780.895 40.688 780.831 39.312L780.351 31.44C780.223 29.36 780.719 27.696 781.839 26.448C782.991 25.2 784.575 24.576 786.591 24.576V24.816C784.543 24.816 782.959 24.208 781.839 22.992C780.719 21.744 780.223 20.08 780.351 18L780.831 10.128C780.895 8.752 780.527 7.728 779.727 7.056C778.927 6.352 777.775 6 776.271 6H774.111V2.16H776.271C778.159 2.16 779.775 2.48 781.119 3.12C782.495 3.728 783.535 4.624 784.239 5.808C784.943 6.992 785.247 8.432 785.151 10.128L784.671 18C784.575 19.696 784.831 20.928 785.439 21.696C786.047 22.432 787.391 22.8 789.471 22.8H794.751V26.64H789.471C787.423 26.64 786.079 27.024 785.439 27.792C784.831 28.528 784.575 29.744 784.671 31.44L785.151 39.312C785.247 40.976 784.943 42.4 784.239 43.584C783.535 44.8 782.495 45.712 781.119 46.32C779.775 46.96 778.159 47.28 776.271 47.28H774.111ZM813.213 42.48C811.997 42.48 811.021 42.128 810.285 41.424C809.581 40.72 809.229 39.776 809.229 38.592C809.229 37.344 809.581 36.352 810.285 35.616C811.021 34.88 811.997 34.512 813.213 34.512C814.429 34.512 815.389 34.88 816.093 35.616C816.829 36.352 817.197 37.344 817.197 38.592C817.197 39.776 816.829 40.72 816.093 41.424C815.389 42.128 814.429 42.48 813.213 42.48ZM832.01 42V6.96H836.33V15.6V20.64H837.242L836.33 21.648C836.33 19.568 836.954 17.968 838.202 16.848C839.45 15.696 841.178 15.12 843.386 15.12C846.042 15.12 848.154 15.936 849.722 17.568C851.29 19.2 852.074 21.424 852.074 24.24V42H847.754V24.72C847.754 22.832 847.242 21.376 846.218 20.352C845.226 19.296 843.866 18.768 842.138 18.768C840.346 18.768 838.922 19.328 837.866 20.448C836.842 21.568 836.33 23.152 836.33 25.2V42H832.01ZM873.655 42C871.383 42 869.607 41.392 868.327 40.176C867.079 38.96 866.455 37.248 866.455 35.04V19.536H859.015V15.6H866.455V8.16H870.775V15.6H881.335V19.536H870.775V35.04C870.775 37.056 871.735 38.064 873.655 38.064H880.855V42H873.655ZM888.324 42V15.6H892.116V18.768H892.98L892.308 19.92C892.308 18.448 892.692 17.28 893.46 16.416C894.26 15.552 895.332 15.12 896.676 15.12C898.148 15.12 899.284 15.664 900.084 16.752C900.884 17.84 901.284 19.376 901.284 21.36L899.988 18.768H902.004L901.092 19.92C901.092 18.448 901.492 17.28 902.292 16.416C903.124 15.552 904.212 15.12 905.556 15.12C907.22 15.12 908.5 15.744 909.396 16.992C910.324 18.24 910.788 19.888 910.788 21.936V42H906.804V21.888C906.804 20.8 906.564 19.952 906.084 19.344C905.636 18.736 904.964 18.432 904.068 18.432C903.204 18.432 902.516 18.736 902.004 19.344C901.524 19.92 901.284 20.752 901.284 21.84V42H897.828V21.888C897.828 20.768 897.572 19.92 897.06 19.344C896.58 18.736 895.892 18.432 894.996 18.432C894.1 18.432 893.428 18.736 892.98 19.344C892.532 19.92 892.308 20.752 892.308 21.84V42H888.324ZM931.938 42C930.402 42 929.058 41.696 927.906 41.088C926.754 40.48 925.858 39.616 925.218 38.496C924.578 37.376 924.258 36.064 924.258 34.56V10.896H915.378V6.96H928.578V34.56C928.578 35.648 928.882 36.512 929.49 37.152C930.098 37.76 930.914 38.064 931.938 38.064H940.338V42H931.938Z" fill="black"/>
<path d="M514.168 289V262.6H517.96V265.768H518.824L518.152 266.92C518.152 265.448 518.536 264.28 519.304 263.416C520.104 262.552 521.176 262.12 522.52 262.12C523.992 262.12 525.128 262.664 525.928 263.752C526.728 264.84 527.128 266.376 527.128 268.36L525.832 265.768H527.848L526.936 266.92C526.936 265.448 527.336 264.28 528.136 263.416C528.968 262.552 530.056 262.12 531.4 262.12C533.064 262.12 534.344 262.744 535.24 263.992C536.168 265.24 536.632 266.888 536.632 268.936V289H532.648V268.888C532.648 267.8 532.408 266.952 531.928 266.344C531.48 265.736 530.808 265.432 529.912 265.432C529.048 265.432 528.36 265.736 527.848 266.344C527.368 266.92 527.128 267.752 527.128 268.84V289H523.672V268.888C523.672 267.768 523.416 266.92 522.904 266.344C522.424 265.736 521.736 265.432 520.84 265.432C519.944 265.432 519.272 265.736 518.824 266.344C518.376 266.92 518.152 267.752 518.152 268.84V289H514.168ZM554.181 289.48C552.101 289.48 550.277 289.064 548.709 288.232C547.173 287.4 545.973 286.232 545.109 284.728C544.277 283.192 543.861 281.416 543.861 279.4V272.2C543.861 270.152 544.277 268.376 545.109 266.872C545.973 265.368 547.173 264.2 548.709 263.368C550.277 262.536 552.101 262.12 554.181 262.12C556.261 262.12 558.069 262.536 559.605 263.368C561.173 264.2 562.373 265.368 563.205 266.872C564.069 268.376 564.501 270.152 564.501 272.2V276.856H548.085V279.4C548.085 281.48 548.613 283.08 549.669 284.2C550.725 285.288 552.229 285.832 554.181 285.832C555.845 285.832 557.189 285.544 558.213 284.968C559.237 284.36 559.861 283.464 560.085 282.28H564.405C564.117 284.488 563.029 286.248 561.141 287.56C559.285 288.84 556.965 289.48 554.181 289.48ZM560.277 273.976V272.2C560.277 270.12 559.749 268.52 558.693 267.4C557.669 266.28 556.165 265.72 554.181 265.72C552.229 265.72 550.725 266.28 549.669 267.4C548.613 268.52 548.085 270.12 548.085 272.2V273.592H560.613L560.277 273.976ZM582.963 289.48C581.747 289.48 580.771 289.128 580.035 288.424C579.331 287.72 578.979 286.776 578.979 285.592C578.979 284.344 579.331 283.352 580.035 282.616C580.771 281.88 581.747 281.512 582.963 281.512C584.179 281.512 585.139 281.88 585.843 282.616C586.579 283.352 586.947 284.344 586.947 285.592C586.947 286.776 586.579 287.72 585.843 288.424C585.139 289.128 584.179 289.48 582.963 289.48ZM601.76 289V253.96H606.08V262.6V267.64H606.992L606.08 268.648C606.08 266.568 606.704 264.968 607.952 263.848C609.2 262.696 610.928 262.12 613.136 262.12C615.792 262.12 617.904 262.936 619.472 264.568C621.04 266.2 621.824 268.424 621.824 271.24V289H617.504V271.72C617.504 269.832 616.992 268.376 615.968 267.352C614.976 266.296 613.616 265.768 611.888 265.768C610.096 265.768 608.672 266.328 607.616 267.448C606.592 268.568 606.08 270.152 606.08 272.2V289H601.76ZM643.405 289C641.133 289 639.357 288.392 638.077 287.176C636.829 285.96 636.205 284.248 636.205 282.04V266.536H628.765V262.6H636.205V255.16H640.525V262.6H651.085V266.536H640.525V282.04C640.525 284.056 641.485 285.064 643.405 285.064H650.605V289H643.405ZM658.074 289V262.6H661.866V265.768H662.73L662.058 266.92C662.058 265.448 662.442 264.28 663.21 263.416C664.01 262.552 665.082 262.12 666.426 262.12C667.898 262.12 669.034 262.664 669.834 263.752C670.634 264.84 671.034 266.376 671.034 268.36L669.738 265.768H671.754L670.842 266.92C670.842 265.448 671.242 264.28 672.042 263.416C672.874 262.552 673.962 262.12 675.306 262.12C676.97 262.12 678.25 262.744 679.146 263.992C680.074 265.24 680.538 266.888 680.538 268.936V289H676.554V268.888C676.554 267.8 676.314 266.952 675.834 266.344C675.386 265.736 674.714 265.432 673.818 265.432C672.954 265.432 672.266 265.736 671.754 266.344C671.274 266.92 671.034 267.752 671.034 268.84V289H667.578V268.888C667.578 267.768 667.322 266.92 666.81 266.344C666.33 265.736 665.642 265.432 664.746 265.432C663.85 265.432 663.178 265.736 662.73 266.344C662.282 266.92 662.058 267.752 662.058 268.84V289H658.074ZM701.688 289C700.152 289 698.808 288.696 697.656 288.088C696.504 287.48 695.608 286.616 694.968 285.496C694.328 284.376 694.008 283.064 694.008 281.56V257.896H685.128V253.96H698.328V281.56C698.328 282.648 698.632 283.512 699.24 284.152C699.848 284.76 700.664 285.064 701.688 285.064H710.088V289H701.688Z" fill="black"/>
<path d="M1200.42 50.64V15.6H1204.74V20.64H1205.6L1204.74 21.648C1204.74 19.632 1205.39 18.048 1206.7 16.896C1208.05 15.712 1209.81 15.12 1211.98 15.12C1214.64 15.12 1216.75 16 1218.32 17.76C1219.92 19.488 1220.72 21.872 1220.72 24.912V32.64C1220.72 34.656 1220.35 36.4 1219.62 37.872C1218.91 39.344 1217.9 40.48 1216.59 41.28C1215.31 42.08 1213.78 42.48 1211.98 42.48C1209.84 42.48 1208.1 41.888 1206.75 40.704C1205.41 39.52 1204.74 37.936 1204.74 35.952L1205.6 36.96H1204.64L1204.74 42.96V50.64H1200.42ZM1210.54 38.736C1212.37 38.736 1213.79 38.192 1214.82 37.104C1215.87 36.016 1216.4 34.448 1216.4 32.4V25.2C1216.4 23.152 1215.87 21.584 1214.82 20.496C1213.79 19.408 1212.37 18.864 1210.54 18.864C1208.78 18.864 1207.38 19.424 1206.32 20.544C1205.26 21.664 1204.74 23.216 1204.74 25.2V32.4C1204.74 34.384 1205.26 35.936 1206.32 37.056C1207.38 38.176 1208.78 38.736 1210.54 38.736ZM1239.18 42.384C1237.07 42.384 1235.25 41.984 1233.71 41.184C1232.17 40.384 1230.97 39.232 1230.11 37.728C1229.28 36.192 1228.86 34.384 1228.86 32.304V25.296C1228.86 23.184 1229.28 21.376 1230.11 19.872C1230.97 18.368 1232.17 17.216 1233.71 16.416C1235.25 15.616 1237.07 15.216 1239.18 15.216C1241.29 15.216 1243.12 15.616 1244.65 16.416C1246.19 17.216 1247.37 18.368 1248.21 19.872C1249.07 21.376 1249.5 23.168 1249.5 25.248V32.304C1249.5 34.384 1249.07 36.192 1248.21 37.728C1247.37 39.232 1246.19 40.384 1244.65 41.184C1243.12 41.984 1241.29 42.384 1239.18 42.384ZM1239.18 38.544C1241.07 38.544 1242.54 38.016 1243.6 36.96C1244.65 35.904 1245.18 34.352 1245.18 32.304V25.296C1245.18 23.248 1244.65 21.696 1243.6 20.64C1242.54 19.584 1241.07 19.056 1239.18 19.056C1237.33 19.056 1235.85 19.584 1234.77 20.64C1233.71 21.696 1233.18 23.248 1233.18 25.296V32.304C1233.18 34.352 1233.71 35.904 1234.77 36.96C1235.85 38.016 1237.33 38.544 1239.18 38.544ZM1267.15 42.384C1265.35 42.384 1263.79 42.112 1262.44 41.568C1261.13 40.992 1260.07 40.192 1259.27 39.168C1258.51 38.144 1258.04 36.928 1257.88 35.52H1262.2C1262.39 36.448 1262.91 37.184 1263.74 37.728C1264.6 38.272 1265.74 38.544 1267.15 38.544H1269.16C1270.86 38.544 1272.12 38.208 1272.95 37.536C1273.79 36.832 1274.2 35.904 1274.2 34.752C1274.2 33.632 1273.82 32.752 1273.05 32.112C1272.31 31.44 1271.21 30.992 1269.74 30.768L1266.19 30.192C1263.59 29.744 1261.66 28.944 1260.38 27.792C1259.13 26.608 1258.51 24.896 1258.51 22.656C1258.51 20.288 1259.26 18.464 1260.76 17.184C1262.27 15.872 1264.52 15.216 1267.53 15.216H1269.35C1271.88 15.216 1273.91 15.808 1275.45 16.992C1276.99 18.176 1277.91 19.776 1278.23 21.792H1273.91C1273.72 20.96 1273.24 20.304 1272.47 19.824C1271.71 19.312 1270.67 19.056 1269.35 19.056H1267.53C1265.9 19.056 1264.7 19.36 1263.93 19.968C1263.19 20.576 1262.83 21.488 1262.83 22.704C1262.83 23.792 1263.15 24.592 1263.79 25.104C1264.43 25.616 1265.43 25.984 1266.81 26.208L1270.36 26.784C1273.21 27.232 1275.27 28.064 1276.55 29.28C1277.87 30.496 1278.52 32.256 1278.52 34.56C1278.52 36.992 1277.74 38.912 1276.17 40.32C1274.63 41.696 1272.3 42.384 1269.16 42.384H1267.15ZM1299.62 42C1297.35 42 1295.58 41.392 1294.3 40.176C1293.05 38.96 1292.42 37.248 1292.42 35.04V19.536H1284.98V15.6H1292.42V8.16H1296.74V15.6H1307.3V19.536H1296.74V35.04C1296.74 37.056 1297.7 38.064 1299.62 38.064H1306.82V42H1299.62ZM1324.71 42.384C1322.92 42.384 1321.35 42.112 1320.01 41.568C1318.69 40.992 1317.64 40.192 1316.84 39.168C1316.07 38.144 1315.61 36.928 1315.45 35.52H1319.77C1319.96 36.448 1320.47 37.184 1321.3 37.728C1322.17 38.272 1323.3 38.544 1324.71 38.544H1326.73C1328.42 38.544 1329.69 38.208 1330.52 37.536C1331.35 36.832 1331.77 35.904 1331.77 34.752C1331.77 33.632 1331.38 32.752 1330.61 32.112C1329.88 31.44 1328.77 30.992 1327.3 30.768L1323.75 30.192C1321.16 29.744 1319.22 28.944 1317.94 27.792C1316.69 26.608 1316.07 24.896 1316.07 22.656C1316.07 20.288 1316.82 18.464 1318.33 17.184C1319.83 15.872 1322.09 15.216 1325.09 15.216H1326.92C1329.45 15.216 1331.48 15.808 1333.01 16.992C1334.55 18.176 1335.48 19.776 1335.8 21.792H1331.48C1331.29 20.96 1330.81 20.304 1330.04 19.824C1329.27 19.312 1328.23 19.056 1326.92 19.056H1325.09C1323.46 19.056 1322.26 19.36 1321.49 19.968C1320.76 20.576 1320.39 21.488 1320.39 22.704C1320.39 23.792 1320.71 24.592 1321.35 25.104C1321.99 25.616 1323 25.984 1324.37 26.208L1327.93 26.784C1330.77 27.232 1332.84 28.064 1334.12 29.28C1335.43 30.496 1336.09 32.256 1336.09 34.56C1336.09 36.992 1335.3 38.912 1333.73 40.32C1332.2 41.696 1329.86 42.384 1326.73 42.384H1324.71ZM1343.51 47.28L1360.55 2.16H1365.11L1348.07 47.28H1343.51ZM1391.25 47.28C1389.36 47.28 1387.73 46.96 1386.35 46.32C1385.01 45.712 1383.98 44.8 1383.28 43.584C1382.58 42.4 1382.27 40.976 1382.37 39.312L1382.85 31.44C1382.94 29.744 1382.69 28.528 1382.08 27.792C1381.47 27.024 1380.13 26.64 1378.05 26.64H1372.77V22.8H1378.05C1380.13 22.8 1381.47 22.432 1382.08 21.696C1382.69 20.928 1382.94 19.696 1382.85 18L1382.37 10.128C1382.27 8.432 1382.58 6.992 1383.28 5.808C1383.98 4.624 1385.01 3.728 1386.35 3.12C1387.73 2.48 1389.36 2.16 1391.25 2.16H1393.41V6H1391.25C1389.74 6 1388.59 6.352 1387.79 7.056C1386.99 7.728 1386.62 8.752 1386.69 10.128L1387.17 18C1387.3 20.08 1386.8 21.744 1385.68 22.992C1384.56 24.208 1382.98 24.816 1380.93 24.816V24.576C1382.94 24.576 1384.51 25.2 1385.63 26.448C1386.78 27.696 1387.3 29.36 1387.17 31.44L1386.69 39.312C1386.62 40.688 1386.99 41.712 1387.79 42.384C1388.59 43.088 1389.74 43.44 1391.25 43.44H1393.41V47.28H1391.25ZM1401.55 42V38.064H1410.91V19.536H1402.75V15.6H1415.23V38.064H1424.11V42H1401.55ZM1412.59 10.848C1411.53 10.848 1410.7 10.576 1410.09 10.032C1409.48 9.488 1409.18 8.752 1409.18 7.824C1409.18 6.864 1409.48 6.112 1410.09 5.568C1410.7 4.992 1411.53 4.704 1412.59 4.704C1413.64 4.704 1414.48 4.992 1415.08 5.568C1415.69 6.112 1416 6.864 1416 7.824C1416 8.752 1415.69 9.488 1415.08 10.032C1414.48 10.576 1413.64 10.848 1412.59 10.848ZM1439.11 42.48C1436.49 42.48 1434.36 41.6 1432.73 39.84C1431.13 38.08 1430.33 35.696 1430.33 32.688V24.96C1430.33 21.92 1431.13 19.52 1432.73 17.76C1434.33 16 1436.46 15.12 1439.11 15.12C1441.29 15.12 1443.03 15.712 1444.35 16.896C1445.66 18.08 1446.31 19.664 1446.31 21.648L1445.45 20.64H1446.41L1446.31 14.64V6.96H1450.63V42H1446.31V36.96H1445.45L1446.31 35.952C1446.31 37.968 1445.66 39.568 1444.35 40.752C1443.03 41.904 1441.29 42.48 1439.11 42.48ZM1440.55 38.736C1442.35 38.736 1443.75 38.176 1444.78 37.056C1445.8 35.936 1446.31 34.384 1446.31 32.4V25.2C1446.31 23.216 1445.8 21.664 1444.78 20.544C1443.75 19.424 1442.35 18.864 1440.55 18.864C1438.73 18.864 1437.29 19.408 1436.23 20.496C1435.18 21.584 1434.65 23.152 1434.65 25.2V32.4C1434.65 34.448 1435.18 36.016 1436.23 37.104C1437.29 38.192 1438.73 38.736 1440.55 38.736ZM1459.11 47.28V43.44H1461.27C1462.78 43.44 1463.93 43.088 1464.73 42.384C1465.53 41.712 1465.9 40.688 1465.83 39.312L1465.35 31.44C1465.22 29.36 1465.72 27.696 1466.84 26.448C1467.99 25.2 1469.58 24.576 1471.59 24.576V24.816C1469.54 24.816 1467.96 24.208 1466.84 22.992C1465.72 21.744 1465.22 20.08 1465.35 18L1465.83 10.128C1465.9 8.752 1465.53 7.728 1464.73 7.056C1463.93 6.352 1462.78 6 1461.27 6H1459.11V2.16H1461.27C1463.16 2.16 1464.78 2.48 1466.12 3.12C1467.5 3.728 1468.54 4.624 1469.24 5.808C1469.94 6.992 1470.25 8.432 1470.15 10.128L1469.67 18C1469.58 19.696 1469.83 20.928 1470.44 21.696C1471.05 22.432 1472.39 22.8 1474.47 22.8H1479.75V26.64H1474.47C1472.42 26.64 1471.08 27.024 1470.44 27.792C1469.83 28.528 1469.58 29.744 1469.67 31.44L1470.15 39.312C1470.25 40.976 1469.94 42.4 1469.24 43.584C1468.54 44.8 1467.5 45.712 1466.12 46.32C1464.78 46.96 1463.16 47.28 1461.27 47.28H1459.11ZM1487.41 47.28L1504.45 2.16H1509.01L1491.97 47.28H1487.41ZM1517.01 42V6.96H1521.33V15.6V20.64H1522.24L1521.33 21.648C1521.33 19.568 1521.95 17.968 1523.2 16.848C1524.45 15.696 1526.18 15.12 1528.39 15.12C1531.04 15.12 1533.15 15.936 1534.72 17.568C1536.29 19.2 1537.07 21.424 1537.07 24.24V42H1532.75V24.72C1532.75 22.832 1532.24 21.376 1531.22 20.352C1530.23 19.296 1528.87 18.768 1527.14 18.768C1525.35 18.768 1523.92 19.328 1522.87 20.448C1521.84 21.568 1521.33 23.152 1521.33 25.2V42H1517.01ZM1545.46 42V38.064H1554.82V19.536H1546.66V15.6H1559.14V38.064H1568.02V42H1545.46ZM1556.5 10.848C1555.44 10.848 1554.61 10.576 1554 10.032C1553.39 9.488 1553.09 8.752 1553.09 7.824C1553.09 6.864 1553.39 6.112 1554 5.568C1554.61 4.992 1555.44 4.704 1556.5 4.704C1557.55 4.704 1558.38 4.992 1558.99 5.568C1559.6 6.112 1559.9 6.864 1559.9 7.824C1559.9 8.752 1559.6 9.488 1558.99 10.032C1558.38 10.576 1557.55 10.848 1556.5 10.848ZM1583.02 42.48C1580.4 42.48 1578.27 41.6 1576.64 39.84C1575.04 38.08 1574.24 35.696 1574.24 32.688V24.96C1574.24 21.92 1575.04 19.52 1576.64 17.76C1578.24 16 1580.36 15.12 1583.02 15.12C1585.2 15.12 1586.94 15.712 1588.25 16.896C1589.56 18.08 1590.22 19.664 1590.22 21.648L1589.36 20.64H1590.32L1590.22 14.64V6.96H1594.54V42H1590.22V36.96H1589.36L1590.22 35.952C1590.22 37.968 1589.56 39.568 1588.25 40.752C1586.94 41.904 1585.2 42.48 1583.02 42.48ZM1584.46 38.736C1586.25 38.736 1587.66 38.176 1588.68 37.056C1589.71 35.936 1590.22 34.384 1590.22 32.4V25.2C1590.22 23.216 1589.71 21.664 1588.68 20.544C1587.66 19.424 1586.25 18.864 1584.46 18.864C1582.64 18.864 1581.2 19.408 1580.14 20.496C1579.08 21.584 1578.56 23.152 1578.56 25.2V32.4C1578.56 34.448 1579.08 36.016 1580.14 37.104C1581.2 38.192 1582.64 38.736 1584.46 38.736ZM1613.34 42.48C1611.26 42.48 1609.43 42.064 1607.87 41.232C1606.33 40.4 1605.13 39.232 1604.27 37.728C1603.43 36.192 1603.02 34.416 1603.02 32.4V25.2C1603.02 23.152 1603.43 21.376 1604.27 19.872C1605.13 18.368 1606.33 17.2 1607.87 16.368C1609.43 15.536 1611.26 15.12 1613.34 15.12C1615.42 15.12 1617.23 15.536 1618.76 16.368C1620.33 17.2 1621.53 18.368 1622.36 19.872C1623.23 21.376 1623.66 23.152 1623.66 25.2V29.856H1607.24V32.4C1607.24 34.48 1607.77 36.08 1608.83 37.2C1609.88 38.288 1611.39 38.832 1613.34 38.832C1615 38.832 1616.35 38.544 1617.37 37.968C1618.39 37.36 1619.02 36.464 1619.24 35.28H1623.56C1623.27 37.488 1622.19 39.248 1620.3 40.56C1618.44 41.84 1616.12 42.48 1613.34 42.48ZM1619.43 26.976V25.2C1619.43 23.12 1618.91 21.52 1617.85 20.4C1616.83 19.28 1615.32 18.72 1613.34 18.72C1611.39 18.72 1609.88 19.28 1608.83 20.4C1607.77 21.52 1607.24 23.12 1607.24 25.2V26.592H1619.77L1619.43 26.976ZM1642.12 42.48C1640.9 42.48 1639.93 42.128 1639.19 41.424C1638.49 40.72 1638.13 39.776 1638.13 38.592C1638.13 37.344 1638.49 36.352 1639.19 35.616C1639.93 34.88 1640.9 34.512 1642.12 34.512C1643.33 34.512 1644.29 34.88 1645 35.616C1645.73 36.352 1646.1 37.344 1646.1 38.592C1646.1 39.776 1645.73 40.72 1645 41.424C1644.29 42.128 1643.33 42.48 1642.12 42.48ZM1660.92 42V6.96H1665.24V15.6V20.64H1666.15L1665.24 21.648C1665.24 19.568 1665.86 17.968 1667.11 16.848C1668.36 15.696 1670.08 15.12 1672.29 15.12C1674.95 15.12 1677.06 15.936 1678.63 17.568C1680.2 19.2 1680.98 21.424 1680.98 24.24V42H1676.66V24.72C1676.66 22.832 1676.15 21.376 1675.12 20.352C1674.13 19.296 1672.77 18.768 1671.04 18.768C1669.25 18.768 1667.83 19.328 1666.77 20.448C1665.75 21.568 1665.24 23.152 1665.24 25.2V42H1660.92ZM1702.56 42C1700.29 42 1698.51 41.392 1697.23 40.176C1695.99 38.96 1695.36 37.248 1695.36 35.04V19.536H1687.92V15.6H1695.36V8.16H1699.68V15.6H1710.24V19.536H1699.68V35.04C1699.68 37.056 1700.64 38.064 1702.56 38.064H1709.76V42H1702.56ZM1717.23 42V15.6H1721.02V18.768H1721.89L1721.21 19.92C1721.21 18.448 1721.6 17.28 1722.37 16.416C1723.17 15.552 1724.24 15.12 1725.58 15.12C1727.05 15.12 1728.19 15.664 1728.99 16.752C1729.79 17.84 1730.19 19.376 1730.19 21.36L1728.89 18.768H1730.91L1730 19.92C1730 18.448 1730.4 17.28 1731.2 16.416C1732.03 15.552 1733.12 15.12 1734.46 15.12C1736.13 15.12 1737.41 15.744 1738.3 16.992C1739.23 18.24 1739.69 19.888 1739.69 21.936V42H1735.71V21.888C1735.71 20.8 1735.47 19.952 1734.99 19.344C1734.54 18.736 1733.87 18.432 1732.97 18.432C1732.11 18.432 1731.42 18.736 1730.91 19.344C1730.43 19.92 1730.19 20.752 1730.19 21.84V42H1726.73V21.888C1726.73 20.768 1726.48 19.92 1725.97 19.344C1725.49 18.736 1724.8 18.432 1723.9 18.432C1723.01 18.432 1722.33 18.736 1721.89 19.344C1721.44 19.92 1721.21 20.752 1721.21 21.84V42H1717.23ZM1760.84 42C1759.31 42 1757.96 41.696 1756.81 41.088C1755.66 40.48 1754.76 39.616 1754.12 38.496C1753.48 37.376 1753.16 36.064 1753.16 34.56V10.896H1744.28V6.96H1757.48V34.56C1757.48 35.648 1757.79 36.512 1758.4 37.152C1759 37.76 1759.82 38.064 1760.84 38.064H1769.24V42H1760.84Z" fill="black"/>
<path d="M1200.42 227.64V192.6H1204.74V197.64H1205.6L1204.74 198.648C1204.74 196.632 1205.39 195.048 1206.7 193.896C1208.05 192.712 1209.81 192.12 1211.98 192.12C1214.64 192.12 1216.75 193 1218.32 194.76C1219.92 196.488 1220.72 198.872 1220.72 201.912V209.64C1220.72 211.656 1220.35 213.4 1219.62 214.872C1218.91 216.344 1217.9 217.48 1216.59 218.28C1215.31 219.08 1213.78 219.48 1211.98 219.48C1209.84 219.48 1208.1 218.888 1206.75 217.704C1205.41 216.52 1204.74 214.936 1204.74 212.952L1205.6 213.96H1204.64L1204.74 219.96V227.64H1200.42ZM1210.54 215.736C1212.37 215.736 1213.79 215.192 1214.82 214.104C1215.87 213.016 1216.4 211.448 1216.4 209.4V202.2C1216.4 200.152 1215.87 198.584 1214.82 197.496C1213.79 196.408 1212.37 195.864 1210.54 195.864C1208.78 195.864 1207.38 196.424 1206.32 197.544C1205.26 198.664 1204.74 200.216 1204.74 202.2V209.4C1204.74 211.384 1205.26 212.936 1206.32 214.056C1207.38 215.176 1208.78 215.736 1210.54 215.736ZM1239.18 219.384C1237.07 219.384 1235.25 218.984 1233.71 218.184C1232.17 217.384 1230.97 216.232 1230.11 214.728C1229.28 213.192 1228.86 211.384 1228.86 209.304V202.296C1228.86 200.184 1229.28 198.376 1230.11 196.872C1230.97 195.368 1232.17 194.216 1233.71 193.416C1235.25 192.616 1237.07 192.216 1239.18 192.216C1241.29 192.216 1243.12 192.616 1244.65 193.416C1246.19 194.216 1247.37 195.368 1248.21 196.872C1249.07 198.376 1249.5 200.168 1249.5 202.248V209.304C1249.5 211.384 1249.07 213.192 1248.21 214.728C1247.37 216.232 1246.19 217.384 1244.65 218.184C1243.12 218.984 1241.29 219.384 1239.18 219.384ZM1239.18 215.544C1241.07 215.544 1242.54 215.016 1243.6 213.96C1244.65 212.904 1245.18 211.352 1245.18 209.304V202.296C1245.18 200.248 1244.65 198.696 1243.6 197.64C1242.54 196.584 1241.07 196.056 1239.18 196.056C1237.33 196.056 1235.85 196.584 1234.77 197.64C1233.71 198.696 1233.18 200.248 1233.18 202.296V209.304C1233.18 211.352 1233.71 212.904 1234.77 213.96C1235.85 215.016 1237.33 215.544 1239.18 215.544ZM1267.15 219.384C1265.35 219.384 1263.79 219.112 1262.44 218.568C1261.13 217.992 1260.07 217.192 1259.27 216.168C1258.51 215.144 1258.04 213.928 1257.88 212.52H1262.2C1262.39 213.448 1262.91 214.184 1263.74 214.728C1264.6 215.272 1265.74 215.544 1267.15 215.544H1269.16C1270.86 215.544 1272.12 215.208 1272.95 214.536C1273.79 213.832 1274.2 212.904 1274.2 211.752C1274.2 210.632 1273.82 209.752 1273.05 209.112C1272.31 208.44 1271.21 207.992 1269.74 207.768L1266.19 207.192C1263.59 206.744 1261.66 205.944 1260.38 204.792C1259.13 203.608 1258.51 201.896 1258.51 199.656C1258.51 197.288 1259.26 195.464 1260.76 194.184C1262.27 192.872 1264.52 192.216 1267.53 192.216H1269.35C1271.88 192.216 1273.91 192.808 1275.45 193.992C1276.99 195.176 1277.91 196.776 1278.23 198.792H1273.91C1273.72 197.96 1273.24 197.304 1272.47 196.824C1271.71 196.312 1270.67 196.056 1269.35 196.056H1267.53C1265.9 196.056 1264.7 196.36 1263.93 196.968C1263.19 197.576 1262.83 198.488 1262.83 199.704C1262.83 200.792 1263.15 201.592 1263.79 202.104C1264.43 202.616 1265.43 202.984 1266.81 203.208L1270.36 203.784C1273.21 204.232 1275.27 205.064 1276.55 206.28C1277.87 207.496 1278.52 209.256 1278.52 211.56C1278.52 213.992 1277.74 215.912 1276.17 217.32C1274.63 218.696 1272.3 219.384 1269.16 219.384H1267.15ZM1299.62 219C1297.35 219 1295.58 218.392 1294.3 217.176C1293.05 215.96 1292.42 214.248 1292.42 212.04V196.536H1284.98V192.6H1292.42V185.16H1296.74V192.6H1307.3V196.536H1296.74V212.04C1296.74 214.056 1297.7 215.064 1299.62 215.064H1306.82V219H1299.62ZM1324.71 219.384C1322.92 219.384 1321.35 219.112 1320.01 218.568C1318.69 217.992 1317.64 217.192 1316.84 216.168C1316.07 215.144 1315.61 213.928 1315.45 212.52H1319.77C1319.96 213.448 1320.47 214.184 1321.3 214.728C1322.17 215.272 1323.3 215.544 1324.71 215.544H1326.73C1328.42 215.544 1329.69 215.208 1330.52 214.536C1331.35 213.832 1331.77 212.904 1331.77 211.752C1331.77 210.632 1331.38 209.752 1330.61 209.112C1329.88 208.44 1328.77 207.992 1327.3 207.768L1323.75 207.192C1321.16 206.744 1319.22 205.944 1317.94 204.792C1316.69 203.608 1316.07 201.896 1316.07 199.656C1316.07 197.288 1316.82 195.464 1318.33 194.184C1319.83 192.872 1322.09 192.216 1325.09 192.216H1326.92C1329.45 192.216 1331.48 192.808 1333.01 193.992C1334.55 195.176 1335.48 196.776 1335.8 198.792H1331.48C1331.29 197.96 1330.81 197.304 1330.04 196.824C1329.27 196.312 1328.23 196.056 1326.92 196.056H1325.09C1323.46 196.056 1322.26 196.36 1321.49 196.968C1320.76 197.576 1320.39 198.488 1320.39 199.704C1320.39 200.792 1320.71 201.592 1321.35 202.104C1321.99 202.616 1323 202.984 1324.37 203.208L1327.93 203.784C1330.77 204.232 1332.84 205.064 1334.12 206.28C1335.43 207.496 1336.09 209.256 1336.09 211.56C1336.09 213.992 1335.3 215.912 1333.73 217.32C1332.2 218.696 1329.86 219.384 1326.73 219.384H1324.71ZM1343.51 224.28L1360.55 179.16H1365.11L1348.07 224.28H1343.51ZM1391.25 224.28C1389.36 224.28 1387.73 223.96 1386.35 223.32C1385.01 222.712 1383.98 221.8 1383.28 220.584C1382.58 219.4 1382.27 217.976 1382.37 216.312L1382.85 208.44C1382.94 206.744 1382.69 205.528 1382.08 204.792C1381.47 204.024 1380.13 203.64 1378.05 203.64H1372.77V199.8H1378.05C1380.13 199.8 1381.47 199.432 1382.08 198.696C1382.69 197.928 1382.94 196.696 1382.85 195L1382.37 187.128C1382.27 185.432 1382.58 183.992 1383.28 182.808C1383.98 181.624 1385.01 180.728 1386.35 180.12C1387.73 179.48 1389.36 179.16 1391.25 179.16H1393.41V183H1391.25C1389.74 183 1388.59 183.352 1387.79 184.056C1386.99 184.728 1386.62 185.752 1386.69 187.128L1387.17 195C1387.3 197.08 1386.8 198.744 1385.68 199.992C1384.56 201.208 1382.98 201.816 1380.93 201.816V201.576C1382.94 201.576 1384.51 202.2 1385.63 203.448C1386.78 204.696 1387.3 206.36 1387.17 208.44L1386.69 216.312C1386.62 217.688 1386.99 218.712 1387.79 219.384C1388.59 220.088 1389.74 220.44 1391.25 220.44H1393.41V224.28H1391.25ZM1401.55 219V215.064H1410.91V196.536H1402.75V192.6H1415.23V215.064H1424.11V219H1401.55ZM1412.59 187.848C1411.53 187.848 1410.7 187.576 1410.09 187.032C1409.48 186.488 1409.18 185.752 1409.18 184.824C1409.18 183.864 1409.48 183.112 1410.09 182.568C1410.7 181.992 1411.53 181.704 1412.59 181.704C1413.64 181.704 1414.48 181.992 1415.08 182.568C1415.69 183.112 1416 183.864 1416 184.824C1416 185.752 1415.69 186.488 1415.08 187.032C1414.48 187.576 1413.64 187.848 1412.59 187.848ZM1439.11 219.48C1436.49 219.48 1434.36 218.6 1432.73 216.84C1431.13 215.08 1430.33 212.696 1430.33 209.688V201.96C1430.33 198.92 1431.13 196.52 1432.73 194.76C1434.33 193 1436.46 192.12 1439.11 192.12C1441.29 192.12 1443.03 192.712 1444.35 193.896C1445.66 195.08 1446.31 196.664 1446.31 198.648L1445.45 197.64H1446.41L1446.31 191.64V183.96H1450.63V219H1446.31V213.96H1445.45L1446.31 212.952C1446.31 214.968 1445.66 216.568 1444.35 217.752C1443.03 218.904 1441.29 219.48 1439.11 219.48ZM1440.55 215.736C1442.35 215.736 1443.75 215.176 1444.78 214.056C1445.8 212.936 1446.31 211.384 1446.31 209.4V202.2C1446.31 200.216 1445.8 198.664 1444.78 197.544C1443.75 196.424 1442.35 195.864 1440.55 195.864C1438.73 195.864 1437.29 196.408 1436.23 197.496C1435.18 198.584 1434.65 200.152 1434.65 202.2V209.4C1434.65 211.448 1435.18 213.016 1436.23 214.104C1437.29 215.192 1438.73 215.736 1440.55 215.736ZM1459.11 224.28V220.44H1461.27C1462.78 220.44 1463.93 220.088 1464.73 219.384C1465.53 218.712 1465.9 217.688 1465.83 216.312L1465.35 208.44C1465.22 206.36 1465.72 204.696 1466.84 203.448C1467.99 202.2 1469.58 201.576 1471.59 201.576V201.816C1469.54 201.816 1467.96 201.208 1466.84 199.992C1465.72 198.744 1465.22 197.08 1465.35 195L1465.83 187.128C1465.9 185.752 1465.53 184.728 1464.73 184.056C1463.93 183.352 1462.78 183 1461.27 183H1459.11V179.16H1461.27C1463.16 179.16 1464.78 179.48 1466.12 180.12C1467.5 180.728 1468.54 181.624 1469.24 182.808C1469.94 183.992 1470.25 185.432 1470.15 187.128L1469.67 195C1469.58 196.696 1469.83 197.928 1470.44 198.696C1471.05 199.432 1472.39 199.8 1474.47 199.8H1479.75V203.64H1474.47C1472.42 203.64 1471.08 204.024 1470.44 204.792C1469.83 205.528 1469.58 206.744 1469.67 208.44L1470.15 216.312C1470.25 217.976 1469.94 219.4 1469.24 220.584C1468.54 221.8 1467.5 222.712 1466.12 223.32C1464.78 223.96 1463.16 224.28 1461.27 224.28H1459.11ZM1487.41 224.28L1504.45 179.16H1509.01L1491.97 224.28H1487.41ZM1530.59 219C1529.06 219 1527.71 218.696 1526.56 218.088C1525.41 217.48 1524.51 216.616 1523.87 215.496C1523.23 214.376 1522.91 213.064 1522.91 211.56V187.896H1514.03V183.96H1527.23V211.56C1527.23 212.648 1527.54 213.512 1528.15 214.152C1528.75 214.76 1529.57 215.064 1530.59 215.064H1538.99V219H1530.59ZM1545.46 219V215.064H1554.82V196.536H1546.66V192.6H1559.14V215.064H1568.02V219H1545.46ZM1556.5 187.848C1555.44 187.848 1554.61 187.576 1554 187.032C1553.39 186.488 1553.09 185.752 1553.09 184.824C1553.09 183.864 1553.39 183.112 1554 182.568C1554.61 181.992 1555.44 181.704 1556.5 181.704C1557.55 181.704 1558.38 181.992 1558.99 182.568C1559.6 183.112 1559.9 183.864 1559.9 184.824C1559.9 185.752 1559.6 186.488 1558.99 187.032C1558.38 187.576 1557.55 187.848 1556.5 187.848ZM1574.72 219V183.96H1579.04V203.496H1584.12L1591.8 192.6H1596.75L1587.87 205.176L1596.89 219H1591.85L1584.17 207.24H1579.04V219H1574.72ZM1613.34 219.48C1611.26 219.48 1609.43 219.064 1607.87 218.232C1606.33 217.4 1605.13 216.232 1604.27 214.728C1603.43 213.192 1603.02 211.416 1603.02 209.4V202.2C1603.02 200.152 1603.43 198.376 1604.27 196.872C1605.13 195.368 1606.33 194.2 1607.87 193.368C1609.43 192.536 1611.26 192.12 1613.34 192.12C1615.42 192.12 1617.23 192.536 1618.76 193.368C1620.33 194.2 1621.53 195.368 1622.36 196.872C1623.23 198.376 1623.66 200.152 1623.66 202.2V206.856H1607.24V209.4C1607.24 211.48 1607.77 213.08 1608.83 214.2C1609.88 215.288 1611.39 215.832 1613.34 215.832C1615 215.832 1616.35 215.544 1617.37 214.968C1618.39 214.36 1619.02 213.464 1619.24 212.28H1623.56C1623.27 214.488 1622.19 216.248 1620.3 217.56C1618.44 218.84 1616.12 219.48 1613.34 219.48ZM1619.43 203.976V202.2C1619.43 200.12 1618.91 198.52 1617.85 197.4C1616.83 196.28 1615.32 195.72 1613.34 195.72C1611.39 195.72 1609.88 196.28 1608.83 197.4C1607.77 198.52 1607.24 200.12 1607.24 202.2V203.592H1619.77L1619.43 203.976ZM1642.12 219.48C1640.9 219.48 1639.93 219.128 1639.19 218.424C1638.49 217.72 1638.13 216.776 1638.13 215.592C1638.13 214.344 1638.49 213.352 1639.19 212.616C1639.93 211.88 1640.9 211.512 1642.12 211.512C1643.33 211.512 1644.29 211.88 1645 212.616C1645.73 213.352 1646.1 214.344 1646.1 215.592C1646.1 216.776 1645.73 217.72 1645 218.424C1644.29 219.128 1643.33 219.48 1642.12 219.48ZM1660.92 219V183.96H1665.24V192.6V197.64H1666.15L1665.24 198.648C1665.24 196.568 1665.86 194.968 1667.11 193.848C1668.36 192.696 1670.08 192.12 1672.29 192.12C1674.95 192.12 1677.06 192.936 1678.63 194.568C1680.2 196.2 1680.98 198.424 1680.98 201.24V219H1676.66V201.72C1676.66 199.832 1676.15 198.376 1675.12 197.352C1674.13 196.296 1672.77 195.768 1671.04 195.768C1669.25 195.768 1667.83 196.328 1666.77 197.448C1665.75 198.568 1665.24 200.152 1665.24 202.2V219H1660.92ZM1702.56 219C1700.29 219 1698.51 218.392 1697.23 217.176C1695.99 215.96 1695.36 214.248 1695.36 212.04V196.536H1687.92V192.6H1695.36V185.16H1699.68V192.6H1710.24V196.536H1699.68V212.04C1699.68 214.056 1700.64 215.064 1702.56 215.064H1709.76V219H1702.56ZM1717.23 219V192.6H1721.02V195.768H1721.89L1721.21 196.92C1721.21 195.448 1721.6 194.28 1722.37 193.416C1723.17 192.552 1724.24 192.12 1725.58 192.12C1727.05 192.12 1728.19 192.664 1728.99 193.752C1729.79 194.84 1730.19 196.376 1730.19 198.36L1728.89 195.768H1730.91L1730 196.92C1730 195.448 1730.4 194.28 1731.2 193.416C1732.03 192.552 1733.12 192.12 1734.46 192.12C1736.13 192.12 1737.41 192.744 1738.3 193.992C1739.23 195.24 1739.69 196.888 1739.69 198.936V219H1735.71V198.888C1735.71 197.8 1735.47 196.952 1734.99 196.344C1734.54 195.736 1733.87 195.432 1732.97 195.432C1732.11 195.432 1731.42 195.736 1730.91 196.344C1730.43 196.92 1730.19 197.752 1730.19 198.84V219H1726.73V198.888C1726.73 197.768 1726.48 196.92 1725.97 196.344C1725.49 195.736 1724.8 195.432 1723.9 195.432C1723.01 195.432 1722.33 195.736 1721.89 196.344C1721.44 196.92 1721.21 197.752 1721.21 198.84V219H1717.23ZM1760.84 219C1759.31 219 1757.96 218.696 1756.81 218.088C1755.66 217.48 1754.76 216.616 1754.12 215.496C1753.48 214.376 1753.16 213.064 1753.16 211.56V187.896H1744.28V183.96H1757.48V211.56C1757.48 212.648 1757.79 213.512 1758.4 214.152C1759 214.76 1759.82 215.064 1760.84 215.064H1769.24V219H1760.84Z" fill="black"/>
<path d="M308 179L326.501 208.287L342.614 177.621L308 179ZM485 272L466.499 242.713L450.386 273.379L485 272ZM331.902 191.558L330.506 194.214L459.703 262.097L461.098 259.442L462.494 256.786L333.297 188.903L331.902 191.558Z" fill="black"/>
<path d="M620 233L650.899 217.339L621.887 198.41L620 233ZM727 69L724.487 67.3607L632.241 208.748L634.753 210.387L637.266 212.027L729.513 70.6393L727 69Z" fill="black"/>
<path d="M308 151L339.29 165.865L336.518 131.335L308 151ZM1342 68L1341.76 65.0096L334.673 145.849L334.913 148.84L335.154 151.83L1342.24 70.9904L1342 68Z" fill="black"/>
<path d="M1582 68L1564.68 98L1599.32 98L1582 68ZM1582 158L1585 158L1585 95L1582 95L1579 95L1579 158L1582 158Z" fill="black"/>
<path d="M488 31L453.391 29.5145L469.409 60.2297L488 31ZM302 128L303.387 130.66L465.447 46.1449L464.06 43.4849L462.673 40.8249L300.613 125.34L302 128Z" fill="black"/>
<path d="M1173 31L1143 13.6795L1143 48.3205L1173 31ZM965 31L965 34L1146 34L1146 31L1146 28L965 28L965 31Z" fill="black"/>
<path d="M929 62L947.051 91.566L963.631 61.15L929 62ZM1173 195L1154.95 165.434L1138.37 195.85L1173 195ZM952.707 74.9222L951.271 77.5563L1147.86 184.712L1149.29 182.078L1150.73 179.444L954.143 72.2881L952.707 74.9222Z" fill="black"/>
<path d="M734 273L765.798 286.743L761.801 252.333L734 273ZM1173 222L1172.65 219.02L760.473 266.904L760.82 269.884L761.166 272.864L1173.35 224.98L1173 222Z" fill="black"/>
</g>
<defs>
<clipPath id="clip0_112_240">
<rect width="1773" height="290" fill="white"/>
</clipPath>
</defs>
</svg>
