<svg width="1779" height="385" viewBox="0 0 1779 385" fill="none" xmlns="http://www.w3.org/2000/svg">
<g clip-path="url(#clip0_112_88)">
<rect width="1779" height="385" fill="white"/>
<path d="M14.592 337.48C12.48 337.48 10.64 337.08 9.072 336.28C7.536 335.48 6.336 334.328 5.472 332.824C4.64 331.288 4.224 329.48 4.224 327.4V311.56C4.224 309.448 4.64 307.64 5.472 306.136C6.336 304.632 7.536 303.48 9.072 302.68C10.64 301.88 12.48 301.48 14.592 301.48C16.704 301.48 18.528 301.896 20.064 302.728C21.6 303.528 22.784 304.68 23.616 306.184C24.448 307.688 24.864 309.48 24.864 311.56H20.544C20.544 309.576 20.016 308.056 18.96 307C17.936 305.912 16.48 305.368 14.592 305.368C12.704 305.368 11.216 305.896 10.128 306.952C9.072 308.008 8.544 309.528 8.544 311.512V327.4C8.544 329.384 9.072 330.92 10.128 332.008C11.216 333.064 12.704 333.592 14.592 333.592C16.48 333.592 17.936 333.064 18.96 332.008C20.016 330.92 20.544 329.384 20.544 327.4H24.864C24.864 329.448 24.448 331.24 23.616 332.776C22.784 334.28 21.6 335.448 20.064 336.28C18.528 337.08 16.704 337.48 14.592 337.48ZM46.7813 337C45.2453 337 43.9013 336.696 42.7493 336.088C41.5973 335.48 40.7013 334.616 40.0613 333.496C39.4213 332.376 39.1013 331.064 39.1013 329.56V305.896H30.2213V301.96H43.4213V329.56C43.4213 330.648 43.7253 331.512 44.3333 332.152C44.9413 332.76 45.7573 333.064 46.7813 333.064H55.1813V337H46.7813ZM61.6425 337V333.064H71.0025V314.536H62.8425V310.6H75.3225V333.064H84.2025V337H61.6425ZM72.6825 305.848C71.6265 305.848 70.7945 305.576 70.1865 305.032C69.5785 304.488 69.2745 303.752 69.2745 302.824C69.2745 301.864 69.5785 301.112 70.1865 300.568C70.7945 299.992 71.6265 299.704 72.6825 299.704C73.7385 299.704 74.5705 299.992 75.1785 300.568C75.7865 301.112 76.0905 301.864 76.0905 302.824C76.0905 303.752 75.7865 304.488 75.1785 305.032C74.5705 305.576 73.7385 305.848 72.6825 305.848ZM100.744 337.48C98.6638 337.48 96.8398 337.064 95.2718 336.232C93.7358 335.4 92.5358 334.232 91.6718 332.728C90.8398 331.192 90.4238 329.416 90.4238 327.4V320.2C90.4238 318.152 90.8398 316.376 91.6718 314.872C92.5358 313.368 93.7358 312.2 95.2718 311.368C96.8398 310.536 98.6638 310.12 100.744 310.12C102.824 310.12 104.632 310.536 106.168 311.368C107.736 312.2 108.936 313.368 109.768 314.872C110.632 316.376 111.064 318.152 111.064 320.2V324.856H94.6478V327.4C94.6478 329.48 95.1758 331.08 96.2318 332.2C97.2878 333.288 98.7918 333.832 100.744 333.832C102.408 333.832 103.752 333.544 104.776 332.968C105.8 332.36 106.424 331.464 106.648 330.28H110.968C110.68 332.488 109.592 334.248 107.704 335.56C105.848 336.84 103.528 337.48 100.744 337.48ZM106.84 321.976V320.2C106.84 318.12 106.312 316.52 105.256 315.4C104.232 314.28 102.728 313.72 100.744 313.72C98.7918 313.72 97.2878 314.28 96.2318 315.4C95.1758 316.52 94.6478 318.12 94.6478 320.2V321.592H107.176L106.84 321.976ZM119.541 337V310.6H123.861V315.64H124.773L123.861 316.648C123.861 314.568 124.485 312.968 125.733 311.848C126.981 310.696 128.709 310.12 130.917 310.12C133.573 310.12 135.685 310.936 137.253 312.568C138.821 314.2 139.605 316.424 139.605 319.24V337H135.285V319.72C135.285 317.832 134.773 316.392 133.749 315.4C132.757 314.376 131.397 313.864 129.669 313.864C127.877 313.864 126.453 314.408 125.397 315.496C124.373 316.584 123.861 318.152 123.861 320.2V337H119.541ZM161.186 337C158.914 337 157.138 336.392 155.858 335.176C154.61 333.96 153.986 332.248 153.986 330.04V314.536H146.546V310.6H153.986V303.16H158.306V310.6H168.866V314.536H158.306V330.04C158.306 332.056 159.266 333.064 161.186 333.064H168.386V337H161.186Z" fill="black"/>
<path d="M14.592 38.48C12.288 38.48 10.304 38.096 8.64 37.328C7.008 36.56 5.744 35.456 4.848 34.016C3.952 32.576 3.488 30.864 3.456 28.88H7.776C7.776 30.64 8.368 32.032 9.552 33.056C10.768 34.08 12.448 34.592 14.592 34.592C16.608 34.592 18.176 34.096 19.296 33.104C20.448 32.112 21.024 30.736 21.024 28.976C21.024 27.568 20.64 26.336 19.872 25.28C19.136 24.224 18.064 23.488 16.656 23.072L11.904 21.584C9.504 20.848 7.648 19.616 6.336 17.888C5.056 16.16 4.416 14.128 4.416 11.792C4.416 9.904 4.832 8.272 5.664 6.896C6.528 5.488 7.728 4.4 9.264 3.632C10.8 2.832 12.608 2.432 14.688 2.432C17.76 2.432 20.224 3.296 22.08 5.024C23.936 6.72 24.88 8.992 24.912 11.84H20.592C20.592 10.112 20.064 8.768 19.008 7.808C17.984 6.816 16.528 6.32 14.64 6.32C12.784 6.32 11.328 6.768 10.272 7.664C9.248 8.56 8.736 9.808 8.736 11.408C8.736 12.848 9.12 14.096 9.888 15.152C10.656 16.208 11.76 16.96 13.2 17.408L18 18.944C20.336 19.68 22.144 20.928 23.424 22.688C24.704 24.448 25.344 26.512 25.344 28.88C25.344 30.8 24.896 32.48 24 33.92C23.104 35.36 21.84 36.48 20.208 37.28C18.608 38.08 16.736 38.48 14.592 38.48ZM43.1813 38.48C41.1013 38.48 39.2773 38.064 37.7093 37.232C36.1733 36.4 34.9733 35.232 34.1093 33.728C33.2773 32.192 32.8613 30.416 32.8613 28.4V21.2C32.8613 19.152 33.2773 17.376 34.1093 15.872C34.9733 14.368 36.1733 13.2 37.7093 12.368C39.2773 11.536 41.1013 11.12 43.1813 11.12C45.2613 11.12 47.0693 11.536 48.6053 12.368C50.1733 13.2 51.3733 14.368 52.2053 15.872C53.0693 17.376 53.5013 19.152 53.5013 21.2V25.856H37.0853V28.4C37.0853 30.48 37.6133 32.08 38.6693 33.2C39.7253 34.288 41.2293 34.832 43.1813 34.832C44.8453 34.832 46.1893 34.544 47.2133 33.968C48.2373 33.36 48.8613 32.464 49.0853 31.28H53.4053C53.1173 33.488 52.0293 35.248 50.1413 36.56C48.2853 37.84 45.9653 38.48 43.1813 38.48ZM49.2773 22.976V21.2C49.2773 19.12 48.7493 17.52 47.6933 16.4C46.6693 15.28 45.1653 14.72 43.1813 14.72C41.2293 14.72 39.7253 15.28 38.6693 16.4C37.6133 17.52 37.0853 19.12 37.0853 21.2V22.592H49.6133L49.2773 22.976ZM62.8905 38V11.6H67.1145V16.64H68.1225L66.7305 19.76C66.7305 16.912 67.3385 14.768 68.5545 13.328C69.8025 11.856 71.6425 11.12 74.0745 11.12C76.8585 11.12 79.0665 12 80.6985 13.76C82.3625 15.488 83.1945 17.84 83.1945 20.816V22.4H78.8745V21.2C78.8745 19.12 78.3625 17.536 77.3385 16.448C76.3465 15.328 74.9225 14.768 73.0665 14.768C71.2425 14.768 69.8025 15.328 68.7465 16.448C67.7225 17.568 67.2105 19.152 67.2105 21.2V38H62.8905ZM97.8158 38L88.9838 11.6H93.3997L99.2558 29.36C99.6078 30.416 99.9278 31.44 100.216 32.432C100.504 33.392 100.712 34.144 100.84 34.688C101 34.144 101.224 33.392 101.512 32.432C101.8 31.44 102.104 30.416 102.424 29.36L108.136 11.6H112.504L103.672 38H97.8158ZM129.525 38.48C127.445 38.48 125.621 38.064 124.053 37.232C122.517 36.4 121.317 35.232 120.453 33.728C119.621 32.192 119.205 30.416 119.205 28.4V21.2C119.205 19.152 119.621 17.376 120.453 15.872C121.317 14.368 122.517 13.2 124.053 12.368C125.621 11.536 127.445 11.12 129.525 11.12C131.605 11.12 133.413 11.536 134.949 12.368C136.517 13.2 137.717 14.368 138.549 15.872C139.413 17.376 139.845 19.152 139.845 21.2V25.856H123.429V28.4C123.429 30.48 123.957 32.08 125.013 33.2C126.069 34.288 127.573 34.832 129.525 34.832C131.189 34.832 132.533 34.544 133.557 33.968C134.581 33.36 135.205 32.464 135.429 31.28H139.749C139.461 33.488 138.373 35.248 136.485 36.56C134.629 37.84 132.309 38.48 129.525 38.48ZM135.621 22.976V21.2C135.621 19.12 135.093 17.52 134.037 16.4C133.013 15.28 131.509 14.72 129.525 14.72C127.573 14.72 126.069 15.28 125.013 16.4C123.957 17.52 123.429 19.12 123.429 21.2V22.592H135.957L135.621 22.976ZM149.234 38V11.6H153.458V16.64H154.466L153.074 19.76C153.074 16.912 153.682 14.768 154.898 13.328C156.146 11.856 157.986 11.12 160.418 11.12C163.202 11.12 165.41 12 167.042 13.76C168.706 15.488 169.538 17.84 169.538 20.816V22.4H165.218V21.2C165.218 19.12 164.706 17.536 163.682 16.448C162.69 15.328 161.266 14.768 159.41 14.768C157.586 14.768 156.146 15.328 155.09 16.448C154.066 17.568 153.554 19.152 153.554 21.2V38H149.234Z" fill="black"/>
<path d="M1778 22.0001L1758 10.4531L1758 33.5471L1778 22.0001ZM208 22L208 24L218.064 24L218.064 22L218.064 20L208 20L208 22ZM238.192 22L238.192 24L258.321 24L258.321 22L258.321 20L238.192 20L238.192 22ZM278.449 22L278.449 24L298.577 24L298.577 22L298.577 20L278.449 20L278.449 22ZM318.705 22L318.705 24L338.833 24L338.833 22L338.833 20L318.705 20L318.705 22ZM358.962 22L358.962 24L379.09 24L379.09 22L379.09 20L358.962 20L358.962 22ZM399.218 22L399.218 24L419.346 24L419.346 22L419.346 20L399.218 20L399.218 22ZM439.474 22L439.474 24L459.603 24L459.603 22L459.603 20L439.474 20L439.474 22ZM479.731 22L479.731 24L499.859 24L499.859 22L499.859 20L479.731 20L479.731 22ZM519.987 22L519.987 24L540.115 24L540.115 22L540.115 20L519.987 20L519.987 22ZM560.244 22L560.244 24L580.372 24L580.372 22L580.372 20L560.244 20L560.244 22ZM600.5 22L600.5 24L620.628 24L620.628 22L620.628 20L600.5 20L600.5 22ZM640.756 22L640.756 24L660.885 24L660.885 22L660.885 20L640.756 20L640.756 22ZM681.013 22L681.013 24L701.141 24L701.141 22L701.141 20L681.013 20L681.013 22ZM721.269 22L721.269 24L741.397 24L741.397 22L741.397 20L721.269 20L721.269 22ZM761.526 22L761.526 24L781.654 24.0001L781.654 22.0001L781.654 20.0001L761.526 20L761.526 22ZM801.782 22.0001L801.782 24.0001L821.91 24.0001L821.91 22.0001L821.91 20.0001L801.782 20.0001L801.782 22.0001ZM842.038 22.0001L842.038 24.0001L862.167 24.0001L862.167 22.0001L862.167 20.0001L842.038 20.0001L842.038 22.0001ZM882.295 22.0001L882.295 24.0001L902.423 24.0001L902.423 22.0001L902.423 20.0001L882.295 20.0001L882.295 22.0001ZM922.551 22.0001L922.551 24.0001L942.679 24.0001L942.679 22.0001L942.679 20.0001L922.551 20.0001L922.551 22.0001ZM962.807 22.0001L962.807 24.0001L982.936 24.0001L982.936 22.0001L982.936 20.0001L962.807 20.0001L962.807 22.0001ZM1003.06 22.0001L1003.06 24.0001L1023.19 24.0001L1023.19 22.0001L1023.19 20.0001L1003.06 20.0001L1003.06 22.0001ZM1043.32 22.0001L1043.32 24.0001L1063.45 24.0001L1063.45 22.0001L1063.45 20.0001L1043.32 20.0001L1043.32 22.0001ZM1083.58 22.0001L1083.58 24.0001L1103.7 24.0001L1103.7 22.0001L1103.7 20.0001L1083.58 20.0001L1083.58 22.0001ZM1123.83 22.0001L1123.83 24.0001L1143.96 24.0001L1143.96 22.0001L1143.96 20.0001L1123.83 20.0001L1123.83 22.0001ZM1164.09 22.0001L1164.09 24.0001L1184.22 24.0001L1184.22 22.0001L1184.22 20.0001L1164.09 20.0001L1164.09 22.0001ZM1204.35 22.0001L1204.35 24.0001L1224.47 24.0001L1224.47 22.0001L1224.47 20.0001L1204.35 20.0001L1204.35 22.0001ZM1244.6 22.0001L1244.6 24.0001L1264.73 24.0001L1264.73 22.0001L1264.73 20.0001L1244.6 20.0001L1244.6 22.0001ZM1284.86 22.0001L1284.86 24.0001L1304.99 24.0001L1304.99 22.0001L1304.99 20.0001L1284.86 20.0001L1284.86 22.0001ZM1325.11 22.0001L1325.11 24.0001L1345.24 24.0001L1345.24 22.0001L1345.24 20.0001L1325.11 20.0001L1325.11 22.0001ZM1365.37 22.0001L1365.37 24.0001L1385.5 24.0001L1385.5 22.0001L1385.5 20.0001L1365.37 20.0001L1365.37 22.0001ZM1405.63 22.0001L1405.63 24.0001L1425.76 24.0001L1425.76 22.0001L1425.76 20.0001L1405.63 20.0001L1405.63 22.0001ZM1445.88 22.0001L1445.88 24.0001L1466.01 24.0001L1466.01 22.0001L1466.01 20.0001L1445.88 20.0001L1445.88 22.0001ZM1486.14 22.0001L1486.14 24.0001L1506.27 24.0001L1506.27 22.0001L1506.27 20.0001L1486.14 20.0001L1486.14 22.0001ZM1526.4 22.0001L1526.4 24.0001L1546.52 24.0001L1546.52 22.0001L1546.52 20.0001L1526.4 20.0001L1526.4 22.0001ZM1566.65 22.0001L1566.65 24.0001L1586.78 24.0001L1586.78 22.0001L1586.78 20.0001L1566.65 20.0001L1566.65 22.0001ZM1606.91 22.0001L1606.91 24.0001L1627.04 24.0001L1627.04 22.0001L1627.04 20.0001L1606.91 20.0001L1606.91 22.0001ZM1647.17 22.0001L1647.17 24.0001L1667.29 24.0001L1667.29 22.0001L1667.29 20.0001L1647.17 20.0001L1647.17 22.0001ZM1687.42 22.0001L1687.42 24.0001L1707.55 24.0001L1707.55 22.0001L1707.55 20.0001L1687.42 20.0001L1687.42 22.0001ZM1727.68 22.0001L1727.68 24.0001L1747.81 24.0001L1747.81 22.0001L1747.81 20.0001L1727.68 20.0001L1727.68 22.0001Z" fill="black"/>
<path d="M1778 321L1758 309.453L1758 332.547L1778 321ZM208 321L208 323L218.064 323L218.064 321L218.064 319L208 319L208 321ZM238.192 321L238.192 323L258.321 323L258.321 321L258.321 319L238.192 319L238.192 321ZM278.449 321L278.449 323L298.577 323L298.577 321L298.577 319L278.449 319L278.449 321ZM318.705 321L318.705 323L338.833 323L338.833 321L338.833 319L318.705 319L318.705 321ZM358.962 321L358.962 323L379.09 323L379.09 321L379.09 319L358.962 319L358.962 321ZM399.218 321L399.218 323L419.346 323L419.346 321L419.346 319L399.218 319L399.218 321ZM439.474 321L439.474 323L459.603 323L459.603 321L459.603 319L439.474 319L439.474 321ZM479.731 321L479.731 323L499.859 323L499.859 321L499.859 319L479.731 319L479.731 321ZM519.987 321L519.987 323L540.115 323L540.115 321L540.115 319L519.987 319L519.987 321ZM560.244 321L560.244 323L580.372 323L580.372 321L580.372 319L560.244 319L560.244 321ZM600.5 321L600.5 323L620.628 323L620.628 321L620.628 319L600.5 319L600.5 321ZM640.756 321L640.756 323L660.885 323L660.885 321L660.885 319L640.756 319L640.756 321ZM681.013 321L681.013 323L701.141 323L701.141 321L701.141 319L681.013 319L681.013 321ZM721.269 321L721.269 323L741.397 323L741.397 321L741.397 319L721.269 319L721.269 321ZM761.526 321L761.526 323L781.654 323L781.654 321L781.654 319L761.526 319L761.526 321ZM801.782 321L801.782 323L821.91 323L821.91 321L821.91 319L801.782 319L801.782 321ZM842.038 321L842.038 323L862.167 323L862.167 321L862.167 319L842.038 319L842.038 321ZM882.295 321L882.295 323L902.423 323L902.423 321L902.423 319L882.295 319L882.295 321ZM922.551 321L922.551 323L942.679 323L942.679 321L942.679 319L922.551 319L922.551 321ZM962.807 321L962.807 323L982.936 323L982.936 321L982.936 319L962.807 319L962.807 321ZM1003.06 321L1003.06 323L1023.19 323L1023.19 321L1023.19 319L1003.06 319L1003.06 321ZM1043.32 321L1043.32 323L1063.45 323L1063.45 321L1063.45 319L1043.32 319L1043.32 321ZM1083.58 321L1083.58 323L1103.7 323L1103.7 321L1103.7 319L1083.58 319L1083.58 321ZM1123.83 321L1123.83 323L1143.96 323L1143.96 321L1143.96 319L1123.83 319L1123.83 321ZM1164.09 321L1164.09 323L1184.22 323L1184.22 321L1184.22 319L1164.09 319L1164.09 321ZM1204.35 321L1204.35 323L1224.47 323L1224.47 321L1224.47 319L1204.35 319L1204.35 321ZM1244.6 321L1244.6 323L1264.73 323L1264.73 321L1264.73 319L1244.6 319L1244.6 321ZM1284.86 321L1284.86 323L1304.99 323L1304.99 321L1304.99 319L1284.86 319L1284.86 321ZM1325.11 321L1325.11 323L1345.24 323L1345.24 321L1345.24 319L1325.11 319L1325.11 321ZM1365.37 321L1365.37 323L1385.5 323L1385.5 321L1385.5 319L1365.37 319L1365.37 321ZM1405.63 321L1405.63 323L1425.76 323L1425.76 321L1425.76 319L1405.63 319L1405.63 321ZM1445.88 321L1445.88 323L1466.01 323L1466.01 321L1466.01 319L1445.88 319L1445.88 321ZM1486.14 321L1486.14 323L1506.27 323L1506.27 321L1506.27 319L1486.14 319L1486.14 321ZM1526.4 321L1526.4 323L1546.52 323L1546.52 321L1546.52 319L1526.4 319L1526.4 321ZM1566.65 321L1566.65 323L1586.78 323L1586.78 321L1586.78 319L1566.65 319L1566.65 321ZM1606.91 321L1606.91 323L1627.04 323L1627.04 321L1627.04 319L1606.91 319L1606.91 321ZM1647.17 321L1647.17 323L1667.29 323L1667.29 321L1667.29 319L1647.17 319L1647.17 321ZM1687.42 321L1687.42 323L1707.55 323L1707.55 321L1707.55 319L1687.42 319L1687.42 321ZM1727.68 321L1727.68 323L1747.81 323L1747.81 321L1747.81 319L1727.68 319L1727.68 321Z" fill="black"/>
<path d="M402 24L375.714 46.5623L408.397 58.0453L402 24ZM298 320L300.83 320.994L395.88 50.4679L393.05 49.4734L390.219 48.479L295.17 319.006L298 320Z" fill="black"/>
<path d="M402 24L375.714 46.5623L408.397 58.0453L402 24ZM298 320L300.83 320.994L395.88 50.4679L393.05 49.4734L390.219 48.479L295.17 319.006L298 320Z" fill="black"/>
<path d="M1164 26L1135.97 46.3533L1167.61 60.4523L1164 26ZM1033 320L1035.74 321.221L1155.75 51.8835L1153.01 50.6625L1150.27 49.4415L1030.26 318.779L1033 320Z" fill="black"/>
<path d="M1248 26L1219.97 46.3533L1251.61 60.4523L1248 26ZM1117 320L1119.74 321.221L1239.75 51.8835L1237.01 50.6625L1234.27 49.4415L1114.26 318.779L1117 320Z" fill="black"/>
<path d="M792 320L799.526 286.186L766.48 296.576L792 320ZM698 21L695.138 21.8997L781.041 295.143L783.902 294.243L786.764 293.343L700.862 20.1003L698 21Z" fill="black"/>
<path d="M1601 320L1608.12 286.098L1575.2 296.887L1601 320ZM1503 21L1500.15 21.9344L1589.74 295.277L1592.59 294.343L1595.44 293.409L1505.85 20.0656L1503 21Z" fill="black"/>
<path d="M1503 320L1510.12 286.098L1477.2 296.887L1503 320ZM1405 21L1402.15 21.9344L1491.74 295.277L1494.59 294.343L1497.44 293.409L1407.85 20.0656L1405 21Z" fill="black"/>
<line x1="402" y1="23" x2="701" y2="23" stroke="black" stroke-width="6"/>
<line x1="1164" y1="23" x2="1506" y2="23" stroke="black" stroke-width="6"/>
<line x1="277" y1="322" x2="823" y2="322" stroke="black" stroke-width="6"/>
<line x1="1030" y1="322" x2="1627" y2="322" stroke="black" stroke-width="6"/>
<path d="M286.728 363.32C285.32 363.32 284.093 363.053 283.048 362.52C282.024 361.987 281.224 361.219 280.648 360.216C280.093 359.192 279.816 357.987 279.816 356.6V346.04C279.816 344.632 280.093 343.427 280.648 342.424C281.224 341.421 282.024 340.653 283.048 340.12C284.093 339.587 285.32 339.32 286.728 339.32C288.136 339.32 289.352 339.597 290.376 340.152C291.4 340.685 292.189 341.453 292.744 342.456C293.299 343.459 293.576 344.653 293.576 346.04H290.696C290.696 344.717 290.344 343.704 289.64 343C288.957 342.275 287.987 341.912 286.728 341.912C285.469 341.912 284.477 342.264 283.752 342.968C283.048 343.672 282.696 344.685 282.696 346.008V356.6C282.696 357.923 283.048 358.947 283.752 359.672C284.477 360.397 285.469 360.76 286.728 360.76C287.987 360.76 288.957 360.397 289.64 359.672C290.344 358.947 290.696 357.923 290.696 356.6V353.72H285.96V351.096H293.576V356.6C293.576 357.965 293.299 359.16 292.744 360.184C292.189 361.187 291.4 361.965 290.376 362.52C289.352 363.053 288.136 363.32 286.728 363.32ZM299.388 363V339.64H312.828V342.264H302.236V349.496H311.708V352.088H302.236V360.376H312.828V363H299.388ZM323.535 363V342.232H317.135V339.608H332.815V342.232H326.415V363H323.535ZM356.15 366.52L367.51 336.44H370.55L359.19 366.52H356.15Z" fill="black"/>
<path d="M1105.26 124.688L1097.43 113.549L1084.29 114.377L1085.72 111.369L1093.51 111.057C1093.92 111.039 1094.36 111.034 1094.83 111.043C1095.29 111.024 1095.65 111.007 1095.92 110.991C1095.75 110.794 1095.52 110.523 1095.24 110.176C1094.95 109.8 1094.68 109.448 1094.43 109.12L1089.76 102.836L1091.11 99.9729L1098.63 110.575L1112.38 109.648L1110.97 112.627L1102.55 113.067C1102.14 113.085 1101.7 113.104 1101.24 113.123C1100.78 113.114 1100.4 113.103 1100.13 113.09C1100.31 113.296 1100.54 113.582 1100.82 113.949C1101.1 114.295 1101.37 114.633 1101.61 114.962L1106.63 121.796L1105.26 124.688ZM1114.19 105.812L1093.08 95.8191L1094.31 93.2159L1103.33 97.487L1106.54 90.7188L1097.51 86.4477L1098.75 83.8445L1119.86 93.8378L1118.63 96.441L1108.91 91.8413L1105.71 98.6096L1115.42 103.209L1114.19 105.812ZM1122.39 88.4982L1101.27 78.5049L1104.37 71.9681C1104.96 70.7147 1105.74 69.7388 1106.71 69.0403C1107.66 68.3328 1108.71 67.9331 1109.86 67.8415C1111.01 67.7498 1112.2 67.9914 1113.41 68.5663C1114.84 69.2417 1115.88 70.1972 1116.55 71.4329C1117.23 72.6494 1117.46 73.9852 1117.24 75.4404L1128.59 75.3956L1127.14 78.4616L1116.25 78.2672L1114.65 81.6513L1123.62 85.895L1122.39 88.4982ZM1112.31 80.5425L1114.17 76.6088C1114.68 75.529 1114.76 74.5015 1114.39 73.5265C1114.01 72.5423 1113.26 71.7856 1112.14 71.2563C1111 70.7178 1109.94 70.6167 1108.95 70.9529C1107.97 71.2891 1107.22 71.9971 1106.71 73.0769L1104.85 77.0106L1112.31 80.5425Z" fill="black"/>
<path d="M1162.38 186.385L1154.55 175.246L1141.41 176.074L1142.84 173.066L1150.63 172.754C1151.04 172.736 1151.48 172.731 1151.95 172.74C1152.4 172.72 1152.77 172.703 1153.03 172.688C1152.87 172.491 1152.64 172.219 1152.36 171.872C1152.06 171.497 1151.79 171.145 1151.55 170.816L1146.87 164.533L1148.23 161.669L1155.74 172.271L1169.49 171.345L1168.08 174.324L1159.66 174.763C1159.25 174.782 1158.82 174.801 1158.36 174.82C1157.89 174.811 1157.52 174.8 1157.24 174.787C1157.43 174.993 1157.66 175.279 1157.94 175.645C1158.22 175.992 1158.48 176.33 1158.73 176.659L1163.74 183.493L1162.38 186.385ZM1171.31 167.509L1150.19 157.516L1151.43 154.913L1160.45 159.184L1163.65 152.415L1154.63 148.144L1155.86 145.541L1176.98 155.534L1175.74 158.138L1166.03 153.538L1162.82 160.306L1172.54 164.906L1171.31 167.509ZM1179.5 150.195L1158.39 140.201L1161.48 133.665C1162.08 132.411 1162.86 131.435 1163.82 130.737C1164.77 130.029 1165.82 129.63 1166.98 129.538C1168.13 129.446 1169.31 129.688 1170.53 130.263C1171.95 130.938 1173 131.894 1173.67 133.13C1174.34 134.346 1174.57 135.682 1174.36 137.137L1185.71 137.092L1184.25 140.158L1173.37 139.964L1171.77 143.348L1180.74 147.592L1179.5 150.195ZM1169.43 142.239L1171.29 138.305C1171.8 137.226 1171.87 136.198 1171.51 135.223C1171.12 134.239 1170.37 133.482 1169.25 132.953C1168.12 132.414 1167.06 132.313 1166.07 132.649C1165.09 132.986 1164.34 133.694 1163.83 134.774L1161.96 138.707L1169.43 142.239Z" fill="black"/>
<path d="M1118.94 363V339.64H1126.46C1127.91 339.64 1129.17 339.928 1130.24 340.504C1131.31 341.059 1132.13 341.848 1132.7 342.872C1133.3 343.896 1133.6 345.112 1133.6 346.52C1133.6 347.907 1133.3 349.123 1132.7 350.168C1132.13 351.192 1131.31 351.992 1130.24 352.568C1129.17 353.123 1127.91 353.4 1126.46 353.4H1121.82V363H1118.94ZM1121.82 350.808H1126.46C1127.72 350.808 1128.73 350.424 1129.47 349.656C1130.24 348.867 1130.62 347.821 1130.62 346.52C1130.62 345.197 1130.24 344.152 1129.47 343.384C1128.73 342.616 1127.72 342.232 1126.46 342.232H1121.82V350.808ZM1144.79 363.32C1143.38 363.32 1142.16 363.053 1141.14 362.52C1140.14 361.987 1139.36 361.219 1138.8 360.216C1138.27 359.192 1138 357.987 1138 356.6V346.04C1138 344.632 1138.27 343.427 1138.8 342.424C1139.36 341.421 1140.14 340.653 1141.14 340.12C1142.16 339.587 1143.38 339.32 1144.79 339.32C1146.2 339.32 1147.4 339.587 1148.4 340.12C1149.43 340.653 1150.21 341.421 1150.74 342.424C1151.29 343.427 1151.57 344.621 1151.57 346.008V356.6C1151.57 357.987 1151.29 359.192 1150.74 360.216C1150.21 361.219 1149.43 361.987 1148.4 362.52C1147.4 363.053 1146.2 363.32 1144.79 363.32ZM1144.79 360.728C1146.05 360.728 1147.01 360.376 1147.67 359.672C1148.35 358.947 1148.69 357.923 1148.69 356.6V346.04C1148.69 344.717 1148.35 343.704 1147.67 343C1147.01 342.275 1146.05 341.912 1144.79 341.912C1143.55 341.912 1142.59 342.275 1141.91 343C1141.22 343.704 1140.88 344.717 1140.88 346.04V356.6C1140.88 357.923 1141.22 358.947 1141.91 359.672C1142.59 360.376 1143.55 360.728 1144.79 360.728ZM1164.1 363.32C1162.57 363.32 1161.24 363.064 1160.14 362.552C1159.05 362.04 1158.2 361.304 1157.61 360.344C1157.01 359.384 1156.7 358.243 1156.68 356.92H1159.56C1159.56 358.093 1159.95 359.021 1160.74 359.704C1161.55 360.387 1162.67 360.728 1164.1 360.728C1165.45 360.728 1166.49 360.397 1167.24 359.736C1168.01 359.075 1168.39 358.157 1168.39 356.984C1168.39 356.045 1168.14 355.224 1167.62 354.52C1167.13 353.816 1166.42 353.325 1165.48 353.048L1162.31 352.056C1160.71 351.565 1159.47 350.744 1158.6 349.592C1157.75 348.44 1157.32 347.085 1157.32 345.528C1157.32 344.269 1157.6 343.181 1158.15 342.264C1158.73 341.325 1159.53 340.6 1160.55 340.088C1161.58 339.555 1162.78 339.288 1164.17 339.288C1166.22 339.288 1167.86 339.864 1169.1 341.016C1170.33 342.147 1170.96 343.661 1170.98 345.56H1168.1C1168.1 344.408 1167.75 343.512 1167.05 342.872C1166.36 342.211 1165.39 341.88 1164.14 341.88C1162.9 341.88 1161.93 342.179 1161.22 342.776C1160.54 343.373 1160.2 344.205 1160.2 345.272C1160.2 346.232 1160.46 347.064 1160.97 347.768C1161.48 348.472 1162.22 348.973 1163.18 349.272L1166.38 350.296C1167.93 350.787 1169.14 351.619 1169.99 352.792C1170.84 353.965 1171.27 355.341 1171.27 356.92C1171.27 358.2 1170.97 359.32 1170.38 360.28C1169.78 361.24 1168.94 361.987 1167.85 362.52C1166.78 363.053 1165.53 363.32 1164.1 363.32ZM1181.72 363V342.232H1175.32V339.608H1191V342.232H1184.6V363H1181.72Z" fill="black"/>
<path d="M1039.73 363.32C1038.32 363.32 1037.09 363.053 1036.05 362.52C1035.02 361.987 1034.22 361.219 1033.65 360.216C1033.09 359.192 1032.82 357.987 1032.82 356.6V346.04C1032.82 344.632 1033.09 343.427 1033.65 342.424C1034.22 341.421 1035.02 340.653 1036.05 340.12C1037.09 339.587 1038.32 339.32 1039.73 339.32C1041.14 339.32 1042.35 339.597 1043.38 340.152C1044.4 340.685 1045.19 341.453 1045.74 342.456C1046.3 343.459 1046.58 344.653 1046.58 346.04H1043.7C1043.7 344.717 1043.34 343.704 1042.64 343C1041.96 342.275 1040.99 341.912 1039.73 341.912C1038.47 341.912 1037.48 342.264 1036.75 342.968C1036.05 343.672 1035.7 344.685 1035.7 346.008V356.6C1035.7 357.923 1036.05 358.947 1036.75 359.672C1037.48 360.397 1038.47 360.76 1039.73 360.76C1040.99 360.76 1041.96 360.397 1042.64 359.672C1043.34 358.947 1043.7 357.923 1043.7 356.6V353.72H1038.96V351.096H1046.58V356.6C1046.58 357.965 1046.3 359.16 1045.74 360.184C1045.19 361.187 1044.4 361.965 1043.38 362.52C1042.35 363.053 1041.14 363.32 1039.73 363.32ZM1052.39 363V339.64H1065.83V342.264H1055.24V349.496H1064.71V352.088H1055.24V360.376H1065.83V363H1052.39ZM1076.54 363V342.232H1070.14V339.608H1085.82V342.232H1079.42V363H1076.54Z" fill="black"/>
<path d="M774.944 143V140.056L782.08 132.472C783.296 131.171 784.181 130.019 784.736 129.016C785.291 127.992 785.568 127.011 785.568 126.072C785.568 124.771 785.205 123.747 784.48 123C783.776 122.253 782.805 121.88 781.568 121.88C780.203 121.88 779.125 122.264 778.336 123.032C777.568 123.8 777.184 124.856 777.184 126.2H774.304C774.347 124.792 774.667 123.576 775.264 122.552C775.883 121.507 776.725 120.707 777.792 120.152C778.88 119.597 780.139 119.32 781.568 119.32C782.976 119.32 784.192 119.597 785.216 120.152C786.261 120.685 787.061 121.453 787.616 122.456C788.171 123.459 788.448 124.653 788.448 126.04C788.448 127.363 788.096 128.675 787.392 129.976C786.688 131.277 785.536 132.76 783.936 134.424L778.176 140.376H788.832V143H774.944ZM800.788 143.32C799.358 143.32 798.11 143.043 797.044 142.488C795.998 141.912 795.188 141.112 794.612 140.088C794.036 139.043 793.748 137.827 793.748 136.44V126.2C793.748 124.792 794.036 123.576 794.612 122.552C795.188 121.528 795.998 120.739 797.044 120.184C798.11 119.608 799.358 119.32 800.788 119.32C802.238 119.32 803.486 119.608 804.532 120.184C805.577 120.739 806.388 121.528 806.964 122.552C807.54 123.576 807.828 124.792 807.828 126.2V136.44C807.828 137.827 807.54 139.043 806.964 140.088C806.388 141.112 805.566 141.912 804.5 142.488C803.454 143.043 802.217 143.32 800.788 143.32ZM800.788 140.856C802.068 140.856 803.092 140.451 803.86 139.64C804.649 138.808 805.044 137.741 805.044 136.44V126.2C805.044 124.899 804.649 123.843 803.86 123.032C803.092 122.2 802.068 121.784 800.788 121.784C799.508 121.784 798.473 122.2 797.684 123.032C796.916 123.843 796.532 124.899 796.532 126.2V136.44C796.532 137.741 796.916 138.808 797.684 139.64C798.473 140.451 799.508 140.856 800.788 140.856ZM800.788 133.208C800.212 133.208 799.742 133.027 799.38 132.664C799.038 132.301 798.868 131.821 798.868 131.224C798.868 130.648 799.038 130.189 799.38 129.848C799.742 129.485 800.212 129.304 800.788 129.304C801.364 129.304 801.822 129.485 802.164 129.848C802.526 130.189 802.708 130.648 802.708 131.224C802.708 131.821 802.526 132.301 802.164 132.664C801.822 133.027 801.364 133.208 800.788 133.208ZM819.975 143.32C818.546 143.32 817.298 143.043 816.231 142.488C815.186 141.912 814.375 141.112 813.799 140.088C813.223 139.043 812.935 137.827 812.935 136.44V126.2C812.935 124.792 813.223 123.576 813.799 122.552C814.375 121.528 815.186 120.739 816.231 120.184C817.298 119.608 818.546 119.32 819.975 119.32C821.426 119.32 822.674 119.608 823.719 120.184C824.764 120.739 825.575 121.528 826.151 122.552C826.727 123.576 827.015 124.792 827.015 126.2V136.44C827.015 137.827 826.727 139.043 826.151 140.088C825.575 141.112 824.754 141.912 823.687 142.488C822.642 143.043 821.404 143.32 819.975 143.32ZM819.975 140.856C821.255 140.856 822.279 140.451 823.047 139.64C823.836 138.808 824.231 137.741 824.231 136.44V126.2C824.231 124.899 823.836 123.843 823.047 123.032C822.279 122.2 821.255 121.784 819.975 121.784C818.695 121.784 817.66 122.2 816.871 123.032C816.103 123.843 815.719 124.899 815.719 126.2V136.44C815.719 137.741 816.103 138.808 816.871 139.64C817.66 140.451 818.695 140.856 819.975 140.856ZM819.975 133.208C819.399 133.208 818.93 133.027 818.567 132.664C818.226 132.301 818.055 131.821 818.055 131.224C818.055 130.648 818.226 130.189 818.567 129.848C818.93 129.485 819.399 129.304 819.975 129.304C820.551 129.304 821.01 129.485 821.351 129.848C821.714 130.189 821.895 130.648 821.895 131.224C821.895 131.821 821.714 132.301 821.351 132.664C821.01 133.027 820.551 133.208 819.975 133.208ZM774.4 188.52L785.76 158.44H788.8L777.44 188.52H774.4ZM793.908 185V182.376H800.148V170.024H794.708V167.4H803.028V182.376H808.948V185H793.908ZM801.268 164.232C800.564 164.232 800.009 164.051 799.604 163.688C799.198 163.325 798.996 162.835 798.996 162.216C798.996 161.576 799.198 161.075 799.604 160.712C800.009 160.328 800.564 160.136 801.268 160.136C801.972 160.136 802.526 160.328 802.932 160.712C803.337 161.075 803.54 161.576 803.54 162.216C803.54 162.835 803.337 163.325 802.932 163.688C802.526 164.051 801.972 164.232 801.268 164.232ZM813.319 185V167.4H816.199V170.76H816.807L816.199 171.432C816.199 170.045 816.615 168.979 817.447 168.232C818.279 167.464 819.431 167.08 820.903 167.08C822.674 167.08 824.082 167.624 825.127 168.712C826.172 169.8 826.695 171.283 826.695 173.16V185H823.815V173.48C823.815 172.221 823.474 171.261 822.791 170.6C822.13 169.917 821.223 169.576 820.071 169.576C818.876 169.576 817.927 169.939 817.223 170.664C816.54 171.389 816.199 172.435 816.199 173.8V185H813.319ZM838.139 185.32C836.389 185.32 834.971 184.733 833.883 183.56C832.816 182.387 832.283 180.797 832.283 178.792V173.64C832.283 171.613 832.816 170.013 833.883 168.84C834.949 167.667 836.368 167.08 838.139 167.08C839.589 167.08 840.752 167.475 841.627 168.264C842.501 169.053 842.939 170.109 842.939 171.432L842.363 170.76H843.003L842.939 166.76V161.64H845.819V185H842.939V181.64H842.363L842.939 180.968C842.939 182.312 842.501 183.379 841.627 184.168C840.752 184.936 839.589 185.32 838.139 185.32ZM839.099 182.824C840.293 182.824 841.232 182.451 841.915 181.704C842.597 180.957 842.939 179.923 842.939 178.6V173.8C842.939 172.477 842.597 171.443 841.915 170.696C841.232 169.949 840.293 169.576 839.099 169.576C837.883 169.576 836.923 169.939 836.219 170.664C835.515 171.389 835.163 172.435 835.163 173.8V178.6C835.163 179.965 835.515 181.011 836.219 181.736C836.923 182.461 837.883 182.824 839.099 182.824ZM858.35 185.32C856.963 185.32 855.747 185.043 854.702 184.488C853.678 183.933 852.878 183.155 852.302 182.152C851.747 181.128 851.47 179.944 851.47 178.6V173.8C851.47 172.435 851.747 171.251 852.302 170.248C852.878 169.245 853.678 168.467 854.702 167.912C855.747 167.357 856.963 167.08 858.35 167.08C859.737 167.08 860.942 167.357 861.966 167.912C863.011 168.467 863.811 169.245 864.366 170.248C864.942 171.251 865.23 172.435 865.23 173.8V176.904H854.286V178.6C854.286 179.987 854.638 181.053 855.342 181.8C856.046 182.525 857.049 182.888 858.35 182.888C859.459 182.888 860.355 182.696 861.038 182.312C861.721 181.907 862.137 181.309 862.286 180.52H865.166C864.974 181.992 864.249 183.165 862.99 184.04C861.753 184.893 860.206 185.32 858.35 185.32ZM862.414 174.984V173.8C862.414 172.413 862.062 171.347 861.358 170.6C860.675 169.853 859.673 169.48 858.35 169.48C857.049 169.48 856.046 169.853 855.342 170.6C854.638 171.347 854.286 172.413 854.286 173.8V174.728H862.638L862.414 174.984ZM869.538 185L875.778 175.944L869.922 167.4H873.314L876.802 172.84C876.951 173.075 877.09 173.331 877.218 173.608C877.367 173.885 877.484 174.109 877.57 174.28C877.634 174.109 877.73 173.885 877.858 173.608C878.007 173.331 878.156 173.075 878.306 172.84L881.826 167.4H885.186L879.33 175.976L885.538 185H882.146L878.37 179.24C878.22 179.005 878.071 178.739 877.922 178.44C877.794 178.12 877.676 177.864 877.57 177.672C877.484 177.864 877.356 178.12 877.186 178.44C877.036 178.739 876.876 179.005 876.706 179.24L872.898 185H869.538ZM896.725 185.32C895.914 185.32 895.264 185.085 894.773 184.616C894.304 184.147 894.069 183.517 894.069 182.728C894.069 181.896 894.304 181.235 894.773 180.744C895.264 180.253 895.914 180.008 896.725 180.008C897.536 180.008 898.176 180.253 898.645 180.744C899.136 181.235 899.381 181.896 899.381 182.728C899.381 183.517 899.136 184.147 898.645 184.616C898.176 185.085 897.536 185.32 896.725 185.32ZM909.257 185V161.64H912.137V167.4V170.76H912.745L912.137 171.432C912.137 170.045 912.553 168.979 913.385 168.232C914.217 167.464 915.369 167.08 916.841 167.08C918.611 167.08 920.019 167.624 921.065 168.712C922.11 169.8 922.633 171.283 922.633 173.16V185H919.753V173.48C919.753 172.221 919.411 171.251 918.729 170.568C918.067 169.864 917.161 169.512 916.009 169.512C914.814 169.512 913.865 169.885 913.161 170.632C912.478 171.379 912.137 172.435 912.137 173.8V185H909.257ZM937.02 185C935.505 185 934.321 184.595 933.468 183.784C932.636 182.973 932.22 181.832 932.22 180.36V170.024H927.26V167.4H932.22V162.44H935.1V167.4H942.14V170.024H935.1V180.36C935.1 181.704 935.74 182.376 937.02 182.376H941.82V185H937.02ZM946.799 185V167.4H949.328V169.512H949.904L949.456 170.28C949.456 169.299 949.712 168.52 950.224 167.944C950.757 167.368 951.472 167.08 952.368 167.08C953.349 167.08 954.106 167.443 954.64 168.168C955.173 168.893 955.44 169.917 955.44 171.24L954.576 169.512H955.92L955.312 170.28C955.312 169.299 955.578 168.52 956.112 167.944C956.666 167.368 957.392 167.08 958.288 167.08C959.397 167.08 960.25 167.496 960.847 168.328C961.466 169.16 961.776 170.259 961.776 171.624V185H959.12V171.592C959.12 170.867 958.96 170.301 958.64 169.896C958.341 169.491 957.893 169.288 957.296 169.288C956.72 169.288 956.261 169.491 955.92 169.896C955.6 170.28 955.44 170.835 955.44 171.56V185H953.135V171.592C953.135 170.845 952.965 170.28 952.624 169.896C952.304 169.491 951.845 169.288 951.248 169.288C950.65 169.288 950.202 169.491 949.904 169.896C949.605 170.28 949.456 170.835 949.456 171.56V185H946.799ZM975.875 185C974.851 185 973.955 184.797 973.187 184.392C972.419 183.987 971.822 183.411 971.395 182.664C970.968 181.917 970.755 181.043 970.755 180.04V164.264H964.835V161.64H973.635V180.04C973.635 180.765 973.838 181.341 974.243 181.768C974.648 182.173 975.192 182.376 975.875 182.376H981.475V185H975.875Z" fill="black"/>
</g>
<defs>
<clipPath id="clip0_112_88">
<rect width="1779" height="385" fill="white"/>
</clipPath>
</defs>
</svg>
