<svg width="1779" height="473" viewBox="0 0 1779 473" fill="none" xmlns="http://www.w3.org/2000/svg">
<g clip-path="url(#clip0_112_117)">
<rect width="1779" height="473" fill="white"/>
<path d="M14.592 419.48C12.48 419.48 10.64 419.08 9.072 418.28C7.536 417.48 6.336 416.328 5.472 414.824C4.64 413.288 4.224 411.48 4.224 409.4V393.56C4.224 391.448 4.64 389.64 5.472 388.136C6.336 386.632 7.536 385.48 9.072 384.68C10.64 383.88 12.48 383.48 14.592 383.48C16.704 383.48 18.528 383.896 20.064 384.728C21.6 385.528 22.784 386.68 23.616 388.184C24.448 389.688 24.864 391.48 24.864 393.56H20.544C20.544 391.576 20.016 390.056 18.96 389C17.936 387.912 16.48 387.368 14.592 387.368C12.704 387.368 11.216 387.896 10.128 388.952C9.072 390.008 8.544 391.528 8.544 393.512V409.4C8.544 411.384 9.072 412.92 10.128 414.008C11.216 415.064 12.704 415.592 14.592 415.592C16.48 415.592 17.936 415.064 18.96 414.008C20.016 412.92 20.544 411.384 20.544 409.4H24.864C24.864 411.448 24.448 413.24 23.616 414.776C22.784 416.28 21.6 417.448 20.064 418.28C18.528 419.08 16.704 419.48 14.592 419.48ZM46.7813 419C45.2453 419 43.9013 418.696 42.7493 418.088C41.5973 417.48 40.7013 416.616 40.0613 415.496C39.4213 414.376 39.1013 413.064 39.1013 411.56V387.896H30.2213V383.96H43.4213V411.56C43.4213 412.648 43.7253 413.512 44.3333 414.152C44.9413 414.76 45.7573 415.064 46.7813 415.064H55.1813V419H46.7813ZM61.6425 419V415.064H71.0025V396.536H62.8425V392.6H75.3225V415.064H84.2025V419H61.6425ZM72.6825 387.848C71.6265 387.848 70.7945 387.576 70.1865 387.032C69.5785 386.488 69.2745 385.752 69.2745 384.824C69.2745 383.864 69.5785 383.112 70.1865 382.568C70.7945 381.992 71.6265 381.704 72.6825 381.704C73.7385 381.704 74.5705 381.992 75.1785 382.568C75.7865 383.112 76.0905 383.864 76.0905 384.824C76.0905 385.752 75.7865 386.488 75.1785 387.032C74.5705 387.576 73.7385 387.848 72.6825 387.848ZM100.744 419.48C98.6638 419.48 96.8398 419.064 95.2718 418.232C93.7358 417.4 92.5358 416.232 91.6718 414.728C90.8398 413.192 90.4238 411.416 90.4238 409.4V402.2C90.4238 400.152 90.8398 398.376 91.6718 396.872C92.5358 395.368 93.7358 394.2 95.2718 393.368C96.8398 392.536 98.6638 392.12 100.744 392.12C102.824 392.12 104.632 392.536 106.168 393.368C107.736 394.2 108.936 395.368 109.768 396.872C110.632 398.376 111.064 400.152 111.064 402.2V406.856H94.6478V409.4C94.6478 411.48 95.1758 413.08 96.2318 414.2C97.2878 415.288 98.7918 415.832 100.744 415.832C102.408 415.832 103.752 415.544 104.776 414.968C105.8 414.36 106.424 413.464 106.648 412.28H110.968C110.68 414.488 109.592 416.248 107.704 417.56C105.848 418.84 103.528 419.48 100.744 419.48ZM106.84 403.976V402.2C106.84 400.12 106.312 398.52 105.256 397.4C104.232 396.28 102.728 395.72 100.744 395.72C98.7918 395.72 97.2878 396.28 96.2318 397.4C95.1758 398.52 94.6478 400.12 94.6478 402.2V403.592H107.176L106.84 403.976ZM119.541 419V392.6H123.861V397.64H124.773L123.861 398.648C123.861 396.568 124.485 394.968 125.733 393.848C126.981 392.696 128.709 392.12 130.917 392.12C133.573 392.12 135.685 392.936 137.253 394.568C138.821 396.2 139.605 398.424 139.605 401.24V419H135.285V401.72C135.285 399.832 134.773 398.392 133.749 397.4C132.757 396.376 131.397 395.864 129.669 395.864C127.877 395.864 126.453 396.408 125.397 397.496C124.373 398.584 123.861 400.152 123.861 402.2V419H119.541ZM161.186 419C158.914 419 157.138 418.392 155.858 417.176C154.61 415.96 153.986 414.248 153.986 412.04V396.536H146.546V392.6H153.986V385.16H158.306V392.6H168.866V396.536H158.306V412.04C158.306 414.056 159.266 415.064 161.186 415.064H168.386V419H161.186Z" fill="black"/>
<path d="M14.592 119.48C12.288 119.48 10.304 119.096 8.64 118.328C7.008 117.56 5.744 116.456 4.848 115.016C3.952 113.576 3.488 111.864 3.456 109.88H7.776C7.776 111.64 8.368 113.032 9.552 114.056C10.768 115.08 12.448 115.592 14.592 115.592C16.608 115.592 18.176 115.096 19.296 114.104C20.448 113.112 21.024 111.736 21.024 109.976C21.024 108.568 20.64 107.336 19.872 106.28C19.136 105.224 18.064 104.488 16.656 104.072L11.904 102.584C9.504 101.848 7.648 100.616 6.336 98.888C5.056 97.16 4.416 95.128 4.416 92.792C4.416 90.904 4.832 89.272 5.664 87.896C6.528 86.488 7.728 85.4 9.264 84.632C10.8 83.832 12.608 83.432 14.688 83.432C17.76 83.432 20.224 84.296 22.08 86.024C23.936 87.72 24.88 89.992 24.912 92.84H20.592C20.592 91.112 20.064 89.768 19.008 88.808C17.984 87.816 16.528 87.32 14.64 87.32C12.784 87.32 11.328 87.768 10.272 88.664C9.248 89.56 8.736 90.808 8.736 92.408C8.736 93.848 9.12 95.096 9.888 96.152C10.656 97.208 11.76 97.96 13.2 98.408L18 99.944C20.336 100.68 22.144 101.928 23.424 103.688C24.704 105.448 25.344 107.512 25.344 109.88C25.344 111.8 24.896 113.48 24 114.92C23.104 116.36 21.84 117.48 20.208 118.28C18.608 119.08 16.736 119.48 14.592 119.48ZM43.1813 119.48C41.1013 119.48 39.2773 119.064 37.7093 118.232C36.1733 117.4 34.9733 116.232 34.1093 114.728C33.2773 113.192 32.8613 111.416 32.8613 109.4V102.2C32.8613 100.152 33.2773 98.376 34.1093 96.872C34.9733 95.368 36.1733 94.2 37.7093 93.368C39.2773 92.536 41.1013 92.12 43.1813 92.12C45.2613 92.12 47.0693 92.536 48.6053 93.368C50.1733 94.2 51.3733 95.368 52.2053 96.872C53.0693 98.376 53.5013 100.152 53.5013 102.2V106.856H37.0853V109.4C37.0853 111.48 37.6133 113.08 38.6693 114.2C39.7253 115.288 41.2293 115.832 43.1813 115.832C44.8453 115.832 46.1893 115.544 47.2133 114.968C48.2373 114.36 48.8613 113.464 49.0853 112.28H53.4053C53.1173 114.488 52.0293 116.248 50.1413 117.56C48.2853 118.84 45.9653 119.48 43.1813 119.48ZM49.2773 103.976V102.2C49.2773 100.12 48.7493 98.52 47.6933 97.4C46.6693 96.28 45.1653 95.72 43.1813 95.72C41.2293 95.72 39.7253 96.28 38.6693 97.4C37.6133 98.52 37.0853 100.12 37.0853 102.2V103.592H49.6133L49.2773 103.976ZM62.8905 119V92.6H67.1145V97.64H68.1225L66.7305 100.76C66.7305 97.912 67.3385 95.768 68.5545 94.328C69.8025 92.856 71.6425 92.12 74.0745 92.12C76.8585 92.12 79.0665 93 80.6985 94.76C82.3625 96.488 83.1945 98.84 83.1945 101.816V103.4H78.8745V102.2C78.8745 100.12 78.3625 98.536 77.3385 97.448C76.3465 96.328 74.9225 95.768 73.0665 95.768C71.2425 95.768 69.8025 96.328 68.7465 97.448C67.7225 98.568 67.2105 100.152 67.2105 102.2V119H62.8905ZM97.8158 119L88.9838 92.6H93.3997L99.2558 110.36C99.6078 111.416 99.9278 112.44 100.216 113.432C100.504 114.392 100.712 115.144 100.84 115.688C101 115.144 101.224 114.392 101.512 113.432C101.8 112.44 102.104 111.416 102.424 110.36L108.136 92.6H112.504L103.672 119H97.8158ZM129.525 119.48C127.445 119.48 125.621 119.064 124.053 118.232C122.517 117.4 121.317 116.232 120.453 114.728C119.621 113.192 119.205 111.416 119.205 109.4V102.2C119.205 100.152 119.621 98.376 120.453 96.872C121.317 95.368 122.517 94.2 124.053 93.368C125.621 92.536 127.445 92.12 129.525 92.12C131.605 92.12 133.413 92.536 134.949 93.368C136.517 94.2 137.717 95.368 138.549 96.872C139.413 98.376 139.845 100.152 139.845 102.2V106.856H123.429V109.4C123.429 111.48 123.957 113.08 125.013 114.2C126.069 115.288 127.573 115.832 129.525 115.832C131.189 115.832 132.533 115.544 133.557 114.968C134.581 114.36 135.205 113.464 135.429 112.28H139.749C139.461 114.488 138.373 116.248 136.485 117.56C134.629 118.84 132.309 119.48 129.525 119.48ZM135.621 103.976V102.2C135.621 100.12 135.093 98.52 134.037 97.4C133.013 96.28 131.509 95.72 129.525 95.72C127.573 95.72 126.069 96.28 125.013 97.4C123.957 98.52 123.429 100.12 123.429 102.2V103.592H135.957L135.621 103.976ZM149.234 119V92.6H153.458V97.64H154.466L153.074 100.76C153.074 97.912 153.682 95.768 154.898 94.328C156.146 92.856 157.986 92.12 160.418 92.12C163.202 92.12 165.41 93 167.042 94.76C168.706 96.488 169.538 98.84 169.538 101.816V103.4H165.218V102.2C165.218 100.12 164.706 98.536 163.682 97.448C162.69 96.328 161.266 95.768 159.41 95.768C157.586 95.768 156.146 96.328 155.09 97.448C154.066 98.568 153.554 100.152 153.554 102.2V119H149.234Z" fill="black"/>
<path d="M1778 104L1758 92.4531L1758 115.547L1778 104ZM208 104L208 106L218.064 106L218.064 104L218.064 102L208 102L208 104ZM238.192 104L238.192 106L258.321 106L258.321 104L258.321 102L238.192 102L238.192 104ZM278.449 104L278.449 106L298.577 106L298.577 104L298.577 102L278.449 102L278.449 104ZM318.705 104L318.705 106L338.833 106L338.833 104L338.833 102L318.705 102L318.705 104ZM358.962 104L358.962 106L379.09 106L379.09 104L379.09 102L358.962 102L358.962 104ZM399.218 104L399.218 106L419.346 106L419.346 104L419.346 102L399.218 102L399.218 104ZM439.474 104L439.474 106L459.603 106L459.603 104L459.603 102L439.474 102L439.474 104ZM479.731 104L479.731 106L499.859 106L499.859 104L499.859 102L479.731 102L479.731 104ZM519.987 104L519.987 106L540.115 106L540.115 104L540.115 102L519.987 102L519.987 104ZM560.244 104L560.244 106L580.372 106L580.372 104L580.372 102L560.244 102L560.244 104ZM600.5 104L600.5 106L620.628 106L620.628 104L620.628 102L600.5 102L600.5 104ZM640.756 104L640.756 106L660.885 106L660.885 104L660.885 102L640.756 102L640.756 104ZM681.013 104L681.013 106L701.141 106L701.141 104L701.141 102L681.013 102L681.013 104ZM721.269 104L721.269 106L741.397 106L741.397 104L741.397 102L721.269 102L721.269 104ZM761.526 104L761.526 106L781.654 106L781.654 104L781.654 102L761.526 102L761.526 104ZM801.782 104L801.782 106L821.91 106L821.91 104L821.91 102L801.782 102L801.782 104ZM842.038 104L842.038 106L862.167 106L862.167 104L862.167 102L842.038 102L842.038 104ZM882.295 104L882.295 106L902.423 106L902.423 104L902.423 102L882.295 102L882.295 104ZM922.551 104L922.551 106L942.679 106L942.679 104L942.679 102L922.551 102L922.551 104ZM962.807 104L962.807 106L982.936 106L982.936 104L982.936 102L962.807 102L962.807 104ZM1003.06 104L1003.06 106L1023.19 106L1023.19 104L1023.19 102L1003.06 102L1003.06 104ZM1043.32 104L1043.32 106L1063.45 106L1063.45 104L1063.45 102L1043.32 102L1043.32 104ZM1083.58 104L1083.58 106L1103.7 106L1103.7 104L1103.7 102L1083.58 102L1083.58 104ZM1123.83 104L1123.83 106L1143.96 106L1143.96 104L1143.96 102L1123.83 102L1123.83 104ZM1164.09 104L1164.09 106L1184.22 106L1184.22 104L1184.22 102L1164.09 102L1164.09 104ZM1204.35 104L1204.35 106L1224.47 106L1224.47 104L1224.47 102L1204.35 102L1204.35 104ZM1244.6 104L1244.6 106L1264.73 106L1264.73 104L1264.73 102L1244.6 102L1244.6 104ZM1284.86 104L1284.86 106L1304.99 106L1304.99 104L1304.99 102L1284.86 102L1284.86 104ZM1325.11 104L1325.11 106L1345.24 106L1345.24 104L1345.24 102L1325.11 102L1325.11 104ZM1365.37 104L1365.37 106L1385.5 106L1385.5 104L1385.5 102L1365.37 102L1365.37 104ZM1405.63 104L1405.63 106L1425.76 106L1425.76 104L1425.76 102L1405.63 102L1405.63 104ZM1445.88 104L1445.88 106L1466.01 106L1466.01 104L1466.01 102L1445.88 102L1445.88 104ZM1486.14 104L1486.14 106L1506.27 106L1506.27 104L1506.27 102L1486.14 102L1486.14 104ZM1526.4 104L1526.4 106L1546.52 106L1546.52 104L1546.52 102L1526.4 102L1526.4 104ZM1566.65 104L1566.65 106L1586.78 106L1586.78 104L1586.78 102L1566.65 102L1566.65 104ZM1606.91 104L1606.91 106L1627.04 106L1627.04 104L1627.04 102L1606.91 102L1606.91 104ZM1647.17 104L1647.17 106L1667.29 106L1667.29 104L1667.29 102L1647.17 102L1647.17 104ZM1687.42 104L1687.42 106L1707.55 106L1707.55 104L1707.55 102L1687.42 102L1687.42 104ZM1727.68 104L1727.68 106L1747.81 106L1747.81 104L1747.81 102L1727.68 102L1727.68 104Z" fill="black"/>
<path d="M1778 403L1758 391.453L1758 414.547L1778 403ZM208 403L208 405L218.064 405L218.064 403L218.064 401L208 401L208 403ZM238.192 403L238.192 405L258.321 405L258.321 403L258.321 401L238.192 401L238.192 403ZM278.449 403L278.449 405L298.577 405L298.577 403L298.577 401L278.449 401L278.449 403ZM318.705 403L318.705 405L338.833 405L338.833 403L338.833 401L318.705 401L318.705 403ZM358.962 403L358.962 405L379.09 405L379.09 403L379.09 401L358.962 401L358.962 403ZM399.218 403L399.218 405L419.346 405L419.346 403L419.346 401L399.218 401L399.218 403ZM439.474 403L439.474 405L459.603 405L459.603 403L459.603 401L439.474 401L439.474 403ZM479.731 403L479.731 405L499.859 405L499.859 403L499.859 401L479.731 401L479.731 403ZM519.987 403L519.987 405L540.115 405L540.115 403L540.115 401L519.987 401L519.987 403ZM560.244 403L560.244 405L580.372 405L580.372 403L580.372 401L560.244 401L560.244 403ZM600.5 403L600.5 405L620.628 405L620.628 403L620.628 401L600.5 401L600.5 403ZM640.756 403L640.756 405L660.885 405L660.885 403L660.885 401L640.756 401L640.756 403ZM681.013 403L681.013 405L701.141 405L701.141 403L701.141 401L681.013 401L681.013 403ZM721.269 403L721.269 405L741.397 405L741.397 403L741.397 401L721.269 401L721.269 403ZM761.526 403L761.526 405L781.654 405L781.654 403L781.654 401L761.526 401L761.526 403ZM801.782 403L801.782 405L821.91 405L821.91 403L821.91 401L801.782 401L801.782 403ZM842.038 403L842.038 405L862.167 405L862.167 403L862.167 401L842.038 401L842.038 403ZM882.295 403L882.295 405L902.423 405L902.423 403L902.423 401L882.295 401L882.295 403ZM922.551 403L922.551 405L942.679 405L942.679 403L942.679 401L922.551 401L922.551 403ZM962.807 403L962.807 405L982.936 405L982.936 403L982.936 401L962.807 401L962.807 403ZM1003.06 403L1003.06 405L1023.19 405L1023.19 403L1023.19 401L1003.06 401L1003.06 403ZM1043.32 403L1043.32 405L1063.45 405L1063.45 403L1063.45 401L1043.32 401L1043.32 403ZM1083.58 403L1083.58 405L1103.7 405L1103.7 403L1103.7 401L1083.58 401L1083.58 403ZM1123.83 403L1123.83 405L1143.96 405L1143.96 403L1143.96 401L1123.83 401L1123.83 403ZM1164.09 403L1164.09 405L1184.22 405L1184.22 403L1184.22 401L1164.09 401L1164.09 403ZM1204.35 403L1204.35 405L1224.47 405L1224.47 403L1224.47 401L1204.35 401L1204.35 403ZM1244.6 403L1244.6 405L1264.73 405L1264.73 403L1264.73 401L1244.6 401L1244.6 403ZM1284.86 403L1284.86 405L1304.99 405L1304.99 403L1304.99 401L1284.86 401L1284.86 403ZM1325.11 403L1325.11 405L1345.24 405L1345.24 403L1345.24 401L1325.11 401L1325.11 403ZM1365.37 403L1365.37 405L1385.5 405L1385.5 403L1385.5 401L1365.37 401L1365.37 403ZM1405.63 403L1405.63 405L1425.76 405L1425.76 403L1425.76 401L1405.63 401L1405.63 403ZM1445.88 403L1445.88 405L1466.01 405L1466.01 403L1466.01 401L1445.88 401L1445.88 403ZM1486.14 403L1486.14 405L1506.27 405L1506.27 403L1506.27 401L1486.14 401L1486.14 403ZM1526.4 403L1526.4 405L1546.52 405L1546.52 403L1546.52 401L1526.4 401L1526.4 403ZM1566.65 403L1566.65 405L1586.78 405L1586.78 403L1586.78 401L1566.65 401L1566.65 403ZM1606.91 403L1606.91 405L1627.04 405L1627.04 403L1627.04 401L1606.91 401L1606.91 403ZM1647.17 403L1647.17 405L1667.29 405L1667.29 403L1667.29 401L1647.17 401L1647.17 403ZM1687.42 403L1687.42 405L1707.55 405L1707.55 403L1707.55 401L1687.42 401L1687.42 403ZM1727.68 403L1727.68 405L1747.81 405L1747.81 403L1747.81 401L1727.68 401L1727.68 403Z" fill="black"/>
<path d="M402 106L375.714 128.562L408.397 140.045L402 106ZM298 402L300.83 402.994L395.88 132.468L393.05 131.473L390.219 130.479L295.17 401.006L298 402Z" fill="black"/>
<path d="M402 106L375.714 128.562L408.397 140.045L402 106ZM298 402L300.83 402.994L395.88 132.468L393.05 131.473L390.219 130.479L295.17 401.006L298 402Z" fill="black"/>
<path d="M721 108L695.223 131.142L728.153 141.894L721 108ZM625 402L627.852 402.931L715.471 134.598L712.619 133.666L709.767 132.735L622.148 401.069L625 402Z" fill="black"/>
<path d="M599 402L609.869 369.108L575.949 376.142L599 402ZM537 103L534.062 103.609L590.58 376.172L593.518 375.562L596.455 374.953L539.938 102.391L537 103Z" fill="black"/>
<path d="M927 401L937.635 368.032L903.766 375.306L927 401ZM863 103L860.067 103.63L918.397 375.232L921.331 374.602L924.264 373.972L865.933 102.37L863 103Z" fill="black"/>
<line x1="402" y1="105" x2="540" y2="105" stroke="black" stroke-width="6"/>
<line x1="721" y1="105" x2="866" y2="105" stroke="black" stroke-width="6"/>
<line x1="1244" y1="105" x2="1426" y2="105" stroke="black" stroke-width="6"/>
<line x1="277" y1="404" x2="943" y2="404" stroke="black" stroke-width="6"/>
<path d="M286.728 445.32C285.32 445.32 284.093 445.053 283.048 444.52C282.024 443.987 281.224 443.219 280.648 442.216C280.093 441.192 279.816 439.987 279.816 438.6V428.04C279.816 426.632 280.093 425.427 280.648 424.424C281.224 423.421 282.024 422.653 283.048 422.12C284.093 421.587 285.32 421.32 286.728 421.32C288.136 421.32 289.352 421.597 290.376 422.152C291.4 422.685 292.189 423.453 292.744 424.456C293.299 425.459 293.576 426.653 293.576 428.04H290.696C290.696 426.717 290.344 425.704 289.64 425C288.957 424.275 287.987 423.912 286.728 423.912C285.469 423.912 284.477 424.264 283.752 424.968C283.048 425.672 282.696 426.685 282.696 428.008V438.6C282.696 439.923 283.048 440.947 283.752 441.672C284.477 442.397 285.469 442.76 286.728 442.76C287.987 442.76 288.957 442.397 289.64 441.672C290.344 440.947 290.696 439.923 290.696 438.6V435.72H285.96V433.096H293.576V438.6C293.576 439.965 293.299 441.16 292.744 442.184C292.189 443.187 291.4 443.965 290.376 444.52C289.352 445.053 288.136 445.32 286.728 445.32ZM299.388 445V421.64H312.828V424.264H302.236V431.496H311.708V434.088H302.236V442.376H312.828V445H299.388ZM323.535 445V424.232H317.135V421.608H332.815V424.232H326.415V445H323.535ZM356.15 448.52L367.51 418.44H370.55L359.19 448.52H356.15Z" fill="black"/>
<path d="M634.728 445.32C633.32 445.32 632.093 445.053 631.048 444.52C630.024 443.987 629.224 443.219 628.648 442.216C628.093 441.192 627.816 439.987 627.816 438.6V428.04C627.816 426.632 628.093 425.427 628.648 424.424C629.224 423.421 630.024 422.653 631.048 422.12C632.093 421.587 633.32 421.32 634.728 421.32C636.136 421.32 637.352 421.597 638.376 422.152C639.4 422.685 640.189 423.453 640.744 424.456C641.299 425.459 641.576 426.653 641.576 428.04H638.696C638.696 426.717 638.344 425.704 637.64 425C636.957 424.275 635.987 423.912 634.728 423.912C633.469 423.912 632.477 424.264 631.752 424.968C631.048 425.672 630.696 426.685 630.696 428.008V438.6C630.696 439.923 631.048 440.947 631.752 441.672C632.477 442.397 633.469 442.76 634.728 442.76C635.987 442.76 636.957 442.397 637.64 441.672C638.344 440.947 638.696 439.923 638.696 438.6V435.72H633.96V433.096H641.576V438.6C641.576 439.965 641.299 441.16 640.744 442.184C640.189 443.187 639.4 443.965 638.376 444.52C637.352 445.053 636.136 445.32 634.728 445.32ZM647.388 445V421.64H660.828V424.264H650.236V431.496H659.708V434.088H650.236V442.376H660.828V445H647.388ZM671.535 445V424.232H665.135V421.608H680.815V424.232H674.415V445H671.535ZM704.15 448.52L715.51 418.44H718.55L707.19 448.52H704.15ZM723.049 445V427.4H725.578V429.512H726.154L725.706 430.28C725.706 429.299 725.962 428.52 726.474 427.944C727.007 427.368 727.722 427.08 728.618 427.08C729.599 427.08 730.356 427.443 730.89 428.168C731.423 428.893 731.69 429.917 731.69 431.24L730.826 429.512H732.17L731.562 430.28C731.562 429.299 731.828 428.52 732.362 427.944C732.916 427.368 733.642 427.08 734.538 427.08C735.647 427.08 736.5 427.496 737.097 428.328C737.716 429.16 738.026 430.259 738.026 431.624V445H735.37V431.592C735.37 430.867 735.21 430.301 734.89 429.896C734.591 429.491 734.143 429.288 733.546 429.288C732.97 429.288 732.511 429.491 732.17 429.896C731.85 430.28 731.69 430.835 731.69 431.56V445H729.385V431.592C729.385 430.845 729.215 430.28 728.874 429.896C728.554 429.491 728.095 429.288 727.498 429.288C726.9 429.288 726.452 429.491 726.154 429.896C725.855 430.28 725.706 430.835 725.706 431.56V445H723.049ZM748.189 445.32C746.333 445.32 744.872 444.851 743.805 443.912C742.738 442.952 742.205 441.661 742.205 440.04C742.205 438.397 742.738 437.107 743.805 436.168C744.872 435.229 746.312 434.76 748.125 434.76H753.565V433C753.565 431.912 753.234 431.08 752.573 430.504C751.933 429.907 751.016 429.608 749.821 429.608C748.776 429.608 747.901 429.832 747.197 430.28C746.493 430.707 746.088 431.293 745.981 432.04H743.101C743.293 430.525 744.008 429.32 745.245 428.424C746.482 427.528 748.029 427.08 749.885 427.08C751.912 427.08 753.512 427.603 754.685 428.648C755.858 429.693 756.445 431.112 756.445 432.904V445H753.629V441.64H753.149L753.629 441.16C753.629 442.44 753.128 443.453 752.125 444.2C751.144 444.947 749.832 445.32 748.189 445.32ZM748.893 443.048C750.258 443.048 751.378 442.707 752.253 442.024C753.128 441.341 753.565 440.467 753.565 439.4V436.904H748.189C747.229 436.904 746.472 437.171 745.917 437.704C745.362 438.237 745.085 438.963 745.085 439.88C745.085 440.861 745.416 441.64 746.077 442.216C746.76 442.771 747.698 443.048 748.893 443.048ZM762.033 445V442.376H768.273V430.024H762.833V427.4H771.153V442.376H777.073V445H762.033ZM769.393 424.232C768.689 424.232 768.134 424.051 767.729 423.688C767.323 423.325 767.121 422.835 767.121 422.216C767.121 421.576 767.323 421.075 767.729 420.712C768.134 420.328 768.689 420.136 769.393 420.136C770.097 420.136 770.651 420.328 771.057 420.712C771.462 421.075 771.665 421.576 771.665 422.216C771.665 422.835 771.462 423.325 771.057 423.688C770.651 424.051 770.097 424.232 769.393 424.232ZM781.444 445V427.4H784.324V430.76H784.932L784.324 431.432C784.324 430.045 784.74 428.979 785.572 428.232C786.404 427.464 787.556 427.08 789.028 427.08C790.799 427.08 792.207 427.624 793.252 428.712C794.297 429.8 794.82 431.283 794.82 433.16V445H791.94V433.48C791.94 432.221 791.599 431.261 790.916 430.6C790.255 429.917 789.348 429.576 788.196 429.576C787.001 429.576 786.052 429.939 785.348 430.664C784.665 431.389 784.324 432.435 784.324 433.8V445H781.444ZM807.288 445.32C806.477 445.32 805.826 445.085 805.336 444.616C804.866 444.147 804.632 443.517 804.632 442.728C804.632 441.896 804.866 441.235 805.336 440.744C805.826 440.253 806.477 440.008 807.288 440.008C808.098 440.008 808.738 440.253 809.208 440.744C809.698 441.235 809.944 441.896 809.944 442.728C809.944 443.517 809.698 444.147 809.208 444.616C808.738 445.085 808.098 445.32 807.288 445.32ZM819.595 450.76V448.104H823.723C825.046 448.104 826.07 447.741 826.795 447.016C827.542 446.312 827.915 445.309 827.915 444.008V430.024H820.555V427.4H830.795V444.008C830.795 446.077 830.155 447.72 828.875 448.936C827.595 450.152 825.878 450.76 823.723 450.76H819.595ZM829.195 424.232C828.491 424.232 827.936 424.051 827.531 423.688C827.126 423.325 826.923 422.835 826.923 422.216C826.923 421.576 827.126 421.075 827.531 420.712C827.936 420.328 828.491 420.136 829.195 420.136C829.899 420.136 830.454 420.328 830.859 420.712C831.264 421.075 831.467 421.576 831.467 422.216C831.467 422.835 831.264 423.325 830.859 423.688C830.454 424.051 829.899 424.232 829.195 424.232ZM845.119 445.256C843.924 445.256 842.879 445.075 841.983 444.712C841.108 444.328 840.404 443.795 839.871 443.112C839.359 442.429 839.049 441.619 838.943 440.68H841.823C841.951 441.299 842.292 441.789 842.847 442.152C843.423 442.515 844.18 442.696 845.119 442.696H846.463C847.593 442.696 848.436 442.472 848.991 442.024C849.545 441.555 849.823 440.936 849.823 440.168C849.823 439.421 849.567 438.835 849.055 438.408C848.564 437.96 847.828 437.661 846.847 437.512L844.479 437.128C842.751 436.829 841.46 436.296 840.607 435.528C839.775 434.739 839.359 433.597 839.359 432.104C839.359 430.525 839.86 429.309 840.863 428.456C841.865 427.581 843.369 427.144 845.375 427.144H846.591C848.276 427.144 849.631 427.539 850.655 428.328C851.679 429.117 852.297 430.184 852.51 431.528H849.631C849.503 430.973 849.183 430.536 848.671 430.216C848.159 429.875 847.465 429.704 846.591 429.704H845.375C844.287 429.704 843.487 429.907 842.975 430.312C842.484 430.717 842.239 431.325 842.239 432.136C842.239 432.861 842.452 433.395 842.879 433.736C843.305 434.077 843.977 434.323 844.895 434.472L847.263 434.856C849.161 435.155 850.537 435.709 851.391 436.52C852.265 437.331 852.703 438.504 852.703 440.04C852.703 441.661 852.18 442.941 851.135 443.88C850.111 444.797 848.553 445.256 846.463 445.256H845.119Z" fill="black"/>
<path d="M1184.73 445.32C1183.32 445.32 1182.09 445.053 1181.05 444.52C1180.02 443.987 1179.22 443.219 1178.65 442.216C1178.09 441.192 1177.82 439.987 1177.82 438.6V428.04C1177.82 426.632 1178.09 425.427 1178.65 424.424C1179.22 423.421 1180.02 422.653 1181.05 422.12C1182.09 421.587 1183.32 421.32 1184.73 421.32C1186.14 421.32 1187.35 421.597 1188.38 422.152C1189.4 422.685 1190.19 423.453 1190.74 424.456C1191.3 425.459 1191.58 426.653 1191.58 428.04H1188.7C1188.7 426.717 1188.34 425.704 1187.64 425C1186.96 424.275 1185.99 423.912 1184.73 423.912C1183.47 423.912 1182.48 424.264 1181.75 424.968C1181.05 425.672 1180.7 426.685 1180.7 428.008V438.6C1180.7 439.923 1181.05 440.947 1181.75 441.672C1182.48 442.397 1183.47 442.76 1184.73 442.76C1185.99 442.76 1186.96 442.397 1187.64 441.672C1188.34 440.947 1188.7 439.923 1188.7 438.6V435.72H1183.96V433.096H1191.58V438.6C1191.58 439.965 1191.3 441.16 1190.74 442.184C1190.19 443.187 1189.4 443.965 1188.38 444.52C1187.35 445.053 1186.14 445.32 1184.73 445.32ZM1197.39 445V421.64H1210.83V424.264H1200.24V431.496H1209.71V434.088H1200.24V442.376H1210.83V445H1197.39ZM1221.54 445V424.232H1215.14V421.608H1230.82V424.232H1224.42V445H1221.54ZM1254.15 448.52L1265.51 418.44H1268.55L1257.19 448.52H1254.15ZM1273.05 445V427.4H1275.58V429.512H1276.15L1275.71 430.28C1275.71 429.299 1275.96 428.52 1276.47 427.944C1277.01 427.368 1277.72 427.08 1278.62 427.08C1279.6 427.08 1280.36 427.443 1280.89 428.168C1281.42 428.893 1281.69 429.917 1281.69 431.24L1280.83 429.512H1282.17L1281.56 430.28C1281.56 429.299 1281.83 428.52 1282.36 427.944C1282.92 427.368 1283.64 427.08 1284.54 427.08C1285.65 427.08 1286.5 427.496 1287.1 428.328C1287.72 429.16 1288.03 430.259 1288.03 431.624V445H1285.37V431.592C1285.37 430.867 1285.21 430.301 1284.89 429.896C1284.59 429.491 1284.14 429.288 1283.55 429.288C1282.97 429.288 1282.51 429.491 1282.17 429.896C1281.85 430.28 1281.69 430.835 1281.69 431.56V445H1279.39V431.592C1279.39 430.845 1279.21 430.28 1278.87 429.896C1278.55 429.491 1278.09 429.288 1277.5 429.288C1276.9 429.288 1276.45 429.491 1276.15 429.896C1275.85 430.28 1275.71 430.835 1275.71 431.56V445H1273.05ZM1299.73 445.32C1298.34 445.32 1297.12 445.043 1296.08 444.488C1295.05 443.933 1294.25 443.155 1293.68 442.152C1293.12 441.128 1292.85 439.944 1292.85 438.6V433.8C1292.85 432.435 1293.12 431.251 1293.68 430.248C1294.25 429.245 1295.05 428.467 1296.08 427.912C1297.12 427.357 1298.34 427.08 1299.73 427.08C1301.11 427.08 1302.32 427.357 1303.34 427.912C1304.39 428.467 1305.19 429.245 1305.74 430.248C1306.32 431.251 1306.61 432.435 1306.61 433.8V436.904H1295.66V438.6C1295.66 439.987 1296.01 441.053 1296.72 441.8C1297.42 442.525 1298.42 442.888 1299.73 442.888C1300.83 442.888 1301.73 442.696 1302.41 442.312C1303.1 441.907 1303.51 441.309 1303.66 440.52H1306.54C1306.35 441.992 1305.62 443.165 1304.37 444.04C1303.13 444.893 1301.58 445.32 1299.73 445.32ZM1303.79 434.984V433.8C1303.79 432.413 1303.44 431.347 1302.73 430.6C1302.05 429.853 1301.05 429.48 1299.73 429.48C1298.42 429.48 1297.42 429.853 1296.72 430.6C1296.01 431.347 1295.66 432.413 1295.66 433.8V434.728H1304.01L1303.79 434.984Z" fill="black"/>
<path d="M965.944 445V421.64H973.176C974.563 421.64 975.779 421.928 976.824 422.504C977.869 423.059 978.68 423.837 979.256 424.84C979.832 425.843 980.12 427.016 980.12 428.36C980.12 429.939 979.704 431.293 978.872 432.424C978.061 433.555 976.952 434.333 975.544 434.76L980.44 445H977.048L972.568 435.08H968.824V445H965.944ZM968.824 432.488H973.176C974.371 432.488 975.331 432.115 976.056 431.368C976.781 430.6 977.144 429.597 977.144 428.36C977.144 427.101 976.781 426.099 976.056 425.352C975.331 424.605 974.371 424.232 973.176 424.232H968.824V432.488ZM991.788 445.32C990.401 445.32 989.185 445.043 988.14 444.488C987.116 443.933 986.316 443.155 985.74 442.152C985.185 441.128 984.908 439.944 984.908 438.6V433.8C984.908 432.435 985.185 431.251 985.74 430.248C986.316 429.245 987.116 428.467 988.14 427.912C989.185 427.357 990.401 427.08 991.788 427.08C993.174 427.08 994.38 427.357 995.404 427.912C996.449 428.467 997.249 429.245 997.804 430.248C998.38 431.251 998.668 432.435 998.668 433.8V436.904H987.724V438.6C987.724 439.987 988.076 441.053 988.78 441.8C989.484 442.525 990.486 442.888 991.788 442.888C992.897 442.888 993.793 442.696 994.476 442.312C995.158 441.907 995.574 441.309 995.724 440.52H998.604C998.412 441.992 997.686 443.165 996.428 444.04C995.19 444.893 993.644 445.32 991.788 445.32ZM995.852 434.984V433.8C995.852 432.413 995.5 431.347 994.796 430.6C994.113 429.853 993.11 429.48 991.788 429.48C990.486 429.48 989.484 429.853 988.78 430.6C988.076 431.347 987.724 432.413 987.724 433.8V434.728H996.076L995.852 434.984ZM1004.32 445V427.4H1007.2V430.76H1007.81L1007.2 431.432C1007.2 430.045 1007.62 428.979 1008.45 428.232C1009.28 427.464 1010.43 427.08 1011.9 427.08C1013.67 427.08 1015.08 427.624 1016.13 428.712C1017.17 429.8 1017.7 431.283 1017.7 433.16V445H1014.82V433.48C1014.82 432.221 1014.47 431.261 1013.79 430.6C1013.13 429.917 1012.22 429.576 1011.07 429.576C1009.88 429.576 1008.93 429.939 1008.22 430.664C1007.54 431.389 1007.2 432.435 1007.2 433.8V445H1004.32ZM1029.14 445.32C1027.39 445.32 1025.97 444.733 1024.88 443.56C1023.82 442.387 1023.28 440.797 1023.28 438.792V433.64C1023.28 431.613 1023.82 430.013 1024.88 428.84C1025.95 427.667 1027.37 427.08 1029.14 427.08C1030.59 427.08 1031.75 427.475 1032.63 428.264C1033.5 429.053 1033.94 430.109 1033.94 431.432L1033.36 430.76H1034L1033.94 426.76V421.64H1036.82V445H1033.94V441.64H1033.36L1033.94 440.968C1033.94 442.312 1033.5 443.379 1032.63 444.168C1031.75 444.936 1030.59 445.32 1029.14 445.32ZM1030.1 442.824C1031.29 442.824 1032.23 442.451 1032.91 441.704C1033.6 440.957 1033.94 439.923 1033.94 438.6V433.8C1033.94 432.477 1033.6 431.443 1032.91 430.696C1032.23 429.949 1031.29 429.576 1030.1 429.576C1028.88 429.576 1027.92 429.939 1027.22 430.664C1026.51 431.389 1026.16 432.435 1026.16 433.8V438.6C1026.16 439.965 1026.51 441.011 1027.22 441.736C1027.92 442.461 1028.88 442.824 1030.1 442.824ZM1049.35 445.32C1047.96 445.32 1046.75 445.043 1045.7 444.488C1044.68 443.933 1043.88 443.155 1043.3 442.152C1042.75 441.128 1042.47 439.944 1042.47 438.6V433.8C1042.47 432.435 1042.75 431.251 1043.3 430.248C1043.88 429.245 1044.68 428.467 1045.7 427.912C1046.75 427.357 1047.96 427.08 1049.35 427.08C1050.74 427.08 1051.94 427.357 1052.97 427.912C1054.01 428.467 1054.81 429.245 1055.37 430.248C1055.94 431.251 1056.23 432.435 1056.23 433.8V436.904H1045.29V438.6C1045.29 439.987 1045.64 441.053 1046.34 441.8C1047.05 442.525 1048.05 442.888 1049.35 442.888C1050.46 442.888 1051.36 442.696 1052.04 442.312C1052.72 441.907 1053.14 441.309 1053.29 440.52H1056.17C1055.97 441.992 1055.25 443.165 1053.99 444.04C1052.75 444.893 1051.21 445.32 1049.35 445.32ZM1053.41 434.984V433.8C1053.41 432.413 1053.06 431.347 1052.36 430.6C1051.68 429.853 1050.67 429.48 1049.35 429.48C1048.05 429.48 1047.05 429.853 1046.34 430.6C1045.64 431.347 1045.29 432.413 1045.29 433.8V434.728H1053.64L1053.41 434.984ZM1062.49 445V427.4H1065.31V430.76H1065.98L1065.05 432.84C1065.05 430.941 1065.45 429.512 1066.27 428.552C1067.1 427.571 1068.32 427.08 1069.95 427.08C1071.8 427.08 1073.27 427.667 1074.36 428.84C1075.47 429.992 1076.03 431.56 1076.03 433.544V434.6H1073.15V433.8C1073.15 432.413 1072.8 431.357 1072.12 430.632C1071.46 429.885 1070.51 429.512 1069.27 429.512C1068.06 429.512 1067.1 429.885 1066.39 430.632C1065.71 431.379 1065.37 432.435 1065.37 433.8V445H1062.49ZM1080.85 445V442.376H1087.09V430.024H1081.65V427.4H1089.97V442.376H1095.89V445H1080.85ZM1088.21 424.232C1087.5 424.232 1086.95 424.051 1086.54 423.688C1086.14 423.325 1085.93 422.835 1085.93 422.216C1085.93 421.576 1086.14 421.075 1086.54 420.712C1086.95 420.328 1087.5 420.136 1088.21 420.136C1088.91 420.136 1089.46 420.328 1089.87 420.712C1090.27 421.075 1090.48 421.576 1090.48 422.216C1090.48 422.835 1090.27 423.325 1089.87 423.688C1089.46 424.051 1088.91 424.232 1088.21 424.232ZM1100.26 445V427.4H1103.14V430.76H1103.74L1103.14 431.432C1103.14 430.045 1103.55 428.979 1104.38 428.232C1105.22 427.464 1106.37 427.08 1107.84 427.08C1109.61 427.08 1111.02 427.624 1112.06 428.712C1113.11 429.8 1113.63 431.283 1113.63 433.16V445H1110.75V433.48C1110.75 432.221 1110.41 431.261 1109.73 430.6C1109.07 429.917 1108.16 429.576 1107.01 429.576C1105.81 429.576 1104.86 429.939 1104.16 430.664C1103.48 431.389 1103.14 432.435 1103.14 433.8V445H1100.26ZM1121.65 450.76V448.136H1127.25C1128.15 448.136 1128.8 447.933 1129.2 447.528C1129.63 447.123 1129.84 446.493 1129.84 445.64V443.4L1129.91 440.2H1129.33L1129.88 439.72C1129.88 441 1129.45 442.013 1128.6 442.76C1127.74 443.507 1126.6 443.88 1125.17 443.88C1123.36 443.88 1121.93 443.293 1120.88 442.12C1119.84 440.925 1119.32 439.325 1119.32 437.32V433.608C1119.32 431.603 1119.84 430.013 1120.88 428.84C1121.93 427.667 1123.36 427.08 1125.17 427.08C1126.6 427.08 1127.74 427.453 1128.6 428.2C1129.45 428.947 1129.88 429.96 1129.88 431.24L1129.33 430.76H1129.88V427.4H1132.72V445.64C1132.72 447.219 1132.23 448.467 1131.25 449.384C1130.29 450.301 1128.95 450.76 1127.22 450.76H1121.65ZM1126.04 441.384C1127.23 441.384 1128.17 441.011 1128.85 440.264C1129.53 439.517 1129.88 438.483 1129.88 437.16V433.8C1129.88 432.477 1129.53 431.443 1128.85 430.696C1128.17 429.949 1127.23 429.576 1126.04 429.576C1124.82 429.576 1123.87 429.939 1123.19 430.664C1122.53 431.389 1122.2 432.435 1122.2 433.8V437.16C1122.2 438.525 1122.53 439.571 1123.19 440.296C1123.87 441.021 1124.82 441.384 1126.04 441.384Z" fill="black"/>
<path d="M1158.24 26V2.64H1173.28V7.12H1162.98V12.304H1172.45V16.784H1163.04V26H1158.24ZM1184.92 26.32C1183.36 26.32 1181.99 26.032 1180.82 25.456C1179.65 24.8587 1178.73 24.0373 1178.07 22.992C1177.43 21.9253 1177.11 20.688 1177.11 19.28V9.36C1177.11 7.93067 1177.43 6.69333 1178.07 5.648C1178.73 4.60266 1179.65 3.792 1180.82 3.216C1181.99 2.61867 1183.36 2.32 1184.92 2.32C1186.49 2.32 1187.86 2.61867 1189.01 3.216C1190.18 3.792 1191.09 4.60266 1191.73 5.648C1192.39 6.69333 1192.72 7.93067 1192.72 9.36H1187.92C1187.92 8.42133 1187.66 7.70667 1187.12 7.216C1186.61 6.72533 1185.88 6.48 1184.92 6.48C1183.96 6.48 1183.21 6.72533 1182.68 7.216C1182.16 7.70667 1181.91 8.42133 1181.91 9.36V19.28C1181.91 20.1973 1182.16 20.912 1182.68 21.424C1183.21 21.9147 1183.96 22.16 1184.92 22.16C1185.88 22.16 1186.61 21.9147 1187.12 21.424C1187.66 20.912 1187.92 20.1973 1187.92 19.28H1192.72C1192.72 20.688 1192.39 21.9253 1191.73 22.992C1191.09 24.0373 1190.18 24.8587 1189.01 25.456C1187.86 26.032 1186.49 26.32 1184.92 26.32ZM1196.49 26V2.64H1204.46C1206.1 2.64 1207.53 2.94933 1208.74 3.568C1209.98 4.18667 1210.93 5.05067 1211.59 6.16C1212.27 7.26933 1212.62 8.57067 1212.62 10.064C1212.62 11.536 1212.27 12.8373 1211.59 13.968C1210.91 15.0773 1209.96 15.9413 1208.74 16.56C1207.53 17.1787 1206.1 17.488 1204.46 17.488H1201.29V26H1196.49ZM1201.29 13.168H1204.46C1205.48 13.168 1206.29 12.8907 1206.89 12.336C1207.51 11.76 1207.82 11.0027 1207.82 10.064C1207.82 9.12533 1207.51 8.37867 1206.89 7.824C1206.29 7.248 1205.48 6.96 1204.46 6.96H1201.29V13.168Z" fill="#BA0000"/>
<path d="M1163.2 63V44.12H1157.28V39.64H1173.92V44.12H1168V63H1163.2ZM1182.39 63V44.12H1176.47V39.64H1193.11V44.12H1187.19V63H1182.39ZM1196.94 63V58.84H1201.58V43.8H1196.94V39.64H1211.02V43.8H1206.38V58.84H1211.02V63H1196.94Z" fill="#BA0000"/>
<path d="M1528.94 445V421.64H1536.18C1537.56 421.64 1538.78 421.928 1539.82 422.504C1540.87 423.059 1541.68 423.837 1542.26 424.84C1542.83 425.843 1543.12 427.016 1543.12 428.36C1543.12 429.939 1542.7 431.293 1541.87 432.424C1541.06 433.555 1539.95 434.333 1538.54 434.76L1543.44 445H1540.05L1535.57 435.08H1531.82V445H1528.94ZM1531.82 432.488H1536.18C1537.37 432.488 1538.33 432.115 1539.06 431.368C1539.78 430.6 1540.14 429.597 1540.14 428.36C1540.14 427.101 1539.78 426.099 1539.06 425.352C1538.33 424.605 1537.37 424.232 1536.18 424.232H1531.82V432.488ZM1554.79 445.32C1553.4 445.32 1552.18 445.043 1551.14 444.488C1550.12 443.933 1549.32 443.155 1548.74 442.152C1548.18 441.128 1547.91 439.944 1547.91 438.6V433.8C1547.91 432.435 1548.18 431.251 1548.74 430.248C1549.32 429.245 1550.12 428.467 1551.14 427.912C1552.18 427.357 1553.4 427.08 1554.79 427.08C1556.17 427.08 1557.38 427.357 1558.4 427.912C1559.45 428.467 1560.25 429.245 1560.8 430.248C1561.38 431.251 1561.67 432.435 1561.67 433.8V436.904H1550.72V438.6C1550.72 439.987 1551.08 441.053 1551.78 441.8C1552.48 442.525 1553.49 442.888 1554.79 442.888C1555.9 442.888 1556.79 442.696 1557.48 442.312C1558.16 441.907 1558.57 441.309 1558.72 440.52H1561.6C1561.41 441.992 1560.69 443.165 1559.43 444.04C1558.19 444.893 1556.64 445.32 1554.79 445.32ZM1558.85 434.984V433.8C1558.85 432.413 1558.5 431.347 1557.8 430.6C1557.11 429.853 1556.11 429.48 1554.79 429.48C1553.49 429.48 1552.48 429.853 1551.78 430.6C1551.08 431.347 1550.72 432.413 1550.72 433.8V434.728H1559.08L1558.85 434.984ZM1567.32 445V427.4H1570.2V430.76H1570.81L1570.2 431.432C1570.2 430.045 1570.62 428.979 1571.45 428.232C1572.28 427.464 1573.43 427.08 1574.9 427.08C1576.67 427.08 1578.08 427.624 1579.13 428.712C1580.17 429.8 1580.7 431.283 1580.7 433.16V445H1577.82V433.48C1577.82 432.221 1577.47 431.261 1576.79 430.6C1576.13 429.917 1575.22 429.576 1574.07 429.576C1572.88 429.576 1571.93 429.939 1571.22 430.664C1570.54 431.389 1570.2 432.435 1570.2 433.8V445H1567.32ZM1592.14 445.32C1590.39 445.32 1588.97 444.733 1587.88 443.56C1586.82 442.387 1586.28 440.797 1586.28 438.792V433.64C1586.28 431.613 1586.82 430.013 1587.88 428.84C1588.95 427.667 1590.37 427.08 1592.14 427.08C1593.59 427.08 1594.75 427.475 1595.63 428.264C1596.5 429.053 1596.94 430.109 1596.94 431.432L1596.36 430.76H1597L1596.94 426.76V421.64H1599.82V445H1596.94V441.64H1596.36L1596.94 440.968C1596.94 442.312 1596.5 443.379 1595.63 444.168C1594.75 444.936 1593.59 445.32 1592.14 445.32ZM1593.1 442.824C1594.29 442.824 1595.23 442.451 1595.91 441.704C1596.6 440.957 1596.94 439.923 1596.94 438.6V433.8C1596.94 432.477 1596.6 431.443 1595.91 430.696C1595.23 429.949 1594.29 429.576 1593.1 429.576C1591.88 429.576 1590.92 429.939 1590.22 430.664C1589.51 431.389 1589.16 432.435 1589.16 433.8V438.6C1589.16 439.965 1589.51 441.011 1590.22 441.736C1590.92 442.461 1591.88 442.824 1593.1 442.824ZM1612.35 445.32C1610.96 445.32 1609.75 445.043 1608.7 444.488C1607.68 443.933 1606.88 443.155 1606.3 442.152C1605.75 441.128 1605.47 439.944 1605.47 438.6V433.8C1605.47 432.435 1605.75 431.251 1606.3 430.248C1606.88 429.245 1607.68 428.467 1608.7 427.912C1609.75 427.357 1610.96 427.08 1612.35 427.08C1613.74 427.08 1614.94 427.357 1615.97 427.912C1617.01 428.467 1617.81 429.245 1618.37 430.248C1618.94 431.251 1619.23 432.435 1619.23 433.8V436.904H1608.29V438.6C1608.29 439.987 1608.64 441.053 1609.34 441.8C1610.05 442.525 1611.05 442.888 1612.35 442.888C1613.46 442.888 1614.36 442.696 1615.04 442.312C1615.72 441.907 1616.14 441.309 1616.29 440.52H1619.17C1618.97 441.992 1618.25 443.165 1616.99 444.04C1615.75 444.893 1614.21 445.32 1612.35 445.32ZM1616.41 434.984V433.8C1616.41 432.413 1616.06 431.347 1615.36 430.6C1614.68 429.853 1613.67 429.48 1612.35 429.48C1611.05 429.48 1610.05 429.853 1609.34 430.6C1608.64 431.347 1608.29 432.413 1608.29 433.8V434.728H1616.64L1616.41 434.984ZM1625.49 445V427.4H1628.31V430.76H1628.98L1628.05 432.84C1628.05 430.941 1628.45 429.512 1629.27 428.552C1630.1 427.571 1631.32 427.08 1632.95 427.08C1634.8 427.08 1636.27 427.667 1637.36 428.84C1638.47 429.992 1639.03 431.56 1639.03 433.544V434.6H1636.15V433.8C1636.15 432.413 1635.8 431.357 1635.12 430.632C1634.46 429.885 1633.51 429.512 1632.27 429.512C1631.06 429.512 1630.1 429.885 1629.39 430.632C1628.71 431.379 1628.37 432.435 1628.37 433.8V445H1625.49ZM1643.85 445V442.376H1650.09V430.024H1644.65V427.4H1652.97V442.376H1658.89V445H1643.85ZM1651.21 424.232C1650.5 424.232 1649.95 424.051 1649.54 423.688C1649.14 423.325 1648.93 422.835 1648.93 422.216C1648.93 421.576 1649.14 421.075 1649.54 420.712C1649.95 420.328 1650.5 420.136 1651.21 420.136C1651.91 420.136 1652.46 420.328 1652.87 420.712C1653.27 421.075 1653.48 421.576 1653.48 422.216C1653.48 422.835 1653.27 423.325 1652.87 423.688C1652.46 424.051 1651.91 424.232 1651.21 424.232ZM1663.26 445V427.4H1666.14V430.76H1666.74L1666.14 431.432C1666.14 430.045 1666.55 428.979 1667.38 428.232C1668.22 427.464 1669.37 427.08 1670.84 427.08C1672.61 427.08 1674.02 427.624 1675.06 428.712C1676.11 429.8 1676.63 431.283 1676.63 433.16V445H1673.75V433.48C1673.75 432.221 1673.41 431.261 1672.73 430.6C1672.07 429.917 1671.16 429.576 1670.01 429.576C1668.81 429.576 1667.86 429.939 1667.16 430.664C1666.48 431.389 1666.14 432.435 1666.14 433.8V445H1663.26ZM1684.65 450.76V448.136H1690.25C1691.15 448.136 1691.8 447.933 1692.2 447.528C1692.63 447.123 1692.84 446.493 1692.84 445.64V443.4L1692.91 440.2H1692.33L1692.88 439.72C1692.88 441 1692.45 442.013 1691.6 442.76C1690.74 443.507 1689.6 443.88 1688.17 443.88C1686.36 443.88 1684.93 443.293 1683.88 442.12C1682.84 440.925 1682.32 439.325 1682.32 437.32V433.608C1682.32 431.603 1682.84 430.013 1683.88 428.84C1684.93 427.667 1686.36 427.08 1688.17 427.08C1689.6 427.08 1690.74 427.453 1691.6 428.2C1692.45 428.947 1692.88 429.96 1692.88 431.24L1692.33 430.76H1692.88V427.4H1695.72V445.64C1695.72 447.219 1695.23 448.467 1694.25 449.384C1693.29 450.301 1691.95 450.76 1690.22 450.76H1684.65ZM1689.04 441.384C1690.23 441.384 1691.17 441.011 1691.85 440.264C1692.53 439.517 1692.88 438.483 1692.88 437.16V433.8C1692.88 432.477 1692.53 431.443 1691.85 430.696C1691.17 429.949 1690.23 429.576 1689.04 429.576C1687.82 429.576 1686.87 429.939 1686.19 430.664C1685.53 431.389 1685.2 432.435 1685.2 433.8V437.16C1685.2 438.525 1685.53 439.571 1686.19 440.296C1686.87 441.021 1687.82 441.384 1689.04 441.384Z" fill="black"/>
<path d="M1458.51 198.43C1457.97 196.257 1458.15 194.397 1459.07 192.851C1459.98 191.305 1461.49 190.269 1463.6 189.743L1464.3 192.538C1462.91 192.883 1461.92 193.514 1461.34 194.429C1460.78 195.359 1460.66 196.487 1460.99 197.812C1461.32 199.137 1461.95 200.069 1462.88 200.608C1463.83 201.163 1465 201.268 1466.38 200.923L1479.99 197.538L1478.63 192.104L1481.18 191.47L1483.23 199.699L1467.08 203.717C1464.97 204.243 1463.14 204.026 1461.61 203.067C1460.08 202.129 1459.05 200.583 1458.51 198.43ZM1463.41 218.106C1463.03 216.615 1462.96 215.27 1463.19 214.07C1463.43 212.89 1463.94 211.895 1464.72 211.083C1465.51 210.272 1466.55 209.696 1467.82 209.356L1468.52 212.151C1467.38 212.434 1466.58 213.041 1466.1 213.972C1465.64 214.924 1465.58 216.093 1465.92 217.48C1466.25 218.784 1466.82 219.719 1467.64 220.284C1468.47 220.869 1469.45 221.02 1470.59 220.737C1471.5 220.51 1472.24 220.064 1472.8 219.397C1473.36 218.751 1473.66 217.939 1473.71 216.961L1473.9 213.647C1473.99 211.976 1474.49 210.577 1475.4 209.45C1476.31 208.343 1477.52 207.602 1479.03 207.226C1480.25 206.922 1481.38 206.929 1482.4 207.245C1483.45 207.578 1484.35 208.179 1485.09 209.049C1485.86 209.914 1486.41 211.019 1486.74 212.365C1487.24 214.352 1487.07 216.085 1486.26 217.564C1485.46 219.038 1484.14 220.014 1482.3 220.494L1481.61 217.699C1482.72 217.421 1483.51 216.863 1483.96 216.025C1484.44 215.203 1484.52 214.181 1484.22 212.96C1483.92 211.759 1483.4 210.889 1482.65 210.35C1481.9 209.832 1481.01 209.702 1479.98 209.959C1479.05 210.191 1478.3 210.64 1477.74 211.307C1477.18 211.974 1476.87 212.809 1476.81 213.813L1476.59 217.166C1476.49 218.795 1475.98 220.166 1475.04 221.277C1474.11 222.389 1472.88 223.135 1471.35 223.516C1470.11 223.825 1468.95 223.806 1467.87 223.458C1466.79 223.11 1465.87 222.473 1465.09 221.546C1464.31 220.64 1463.75 219.493 1463.41 218.106ZM1468.01 236.601C1467.67 235.235 1467.63 233.991 1467.9 232.868C1468.18 231.766 1468.74 230.825 1469.58 230.045C1470.44 229.28 1471.55 228.73 1472.89 228.395L1483.14 225.845C1484.5 225.505 1485.74 225.473 1486.84 225.748C1487.95 226.045 1488.88 226.615 1489.64 227.459C1490.41 228.324 1490.96 229.439 1491.3 230.806C1491.64 232.172 1491.67 233.406 1491.39 234.508C1491.12 235.63 1490.57 236.572 1489.72 237.331C1488.88 238.112 1487.79 238.669 1486.45 239.004L1476.17 241.562C1474.82 241.897 1473.59 241.919 1472.46 241.628C1471.36 241.352 1470.42 240.782 1469.66 239.917C1468.9 239.073 1468.35 237.968 1468.01 236.601ZM1470.52 235.975C1470.83 237.197 1471.4 238.043 1472.24 238.515C1473.11 239.002 1474.19 239.086 1475.47 238.767L1485.72 236.217C1487 235.898 1487.9 235.322 1488.42 234.489C1488.97 233.672 1489.09 232.653 1488.78 231.432C1488.48 230.231 1487.9 229.387 1487.03 228.9C1486.18 228.407 1485.12 228.321 1483.83 228.64L1473.59 231.19C1472.3 231.51 1471.39 232.088 1470.85 232.926C1470.33 233.758 1470.22 234.775 1470.52 235.975ZM1471.33 248.623L1494 242.982L1494.93 246.708L1477.24 258.462C1477.75 258.292 1478.37 258.083 1479.1 257.836C1479.85 257.604 1480.64 257.364 1481.46 257.117C1482.3 256.885 1483.09 256.676 1483.84 256.49L1496.57 253.322L1497.24 256.024L1474.57 261.665L1473.65 257.938L1491.34 246.215C1490.85 246.38 1490.23 246.579 1489.48 246.811C1488.74 247.038 1487.95 247.267 1487.11 247.499C1486.29 247.746 1485.5 247.965 1484.73 248.156L1472 251.324L1471.33 248.623Z" fill="black"/>
<path d="M1247 108L1223.06 133.038L1256.71 141.251L1247 108ZM1175 403L1177.91 403.711L1243.51 134.941L1240.6 134.23L1237.68 133.519L1172.09 402.289L1175 403Z" fill="black"/>
<path d="M1496 403L1505.74 369.755L1472.08 377.946L1496 403ZM1423 103L1420.09 103.709L1486.7 377.475L1489.62 376.766L1492.53 376.056L1425.91 102.291L1423 103Z" fill="black"/>
<line x1="963" y1="404" x2="1144" y2="404" stroke="black" stroke-width="6"/>
<line x1="1526" y1="404" x2="1708" y2="404" stroke="black" stroke-width="6"/>
<line x1="1162" y1="404" x2="1507" y2="404" stroke="black" stroke-width="6"/>
<line x1="1144" y1="407" x2="1144" y2="3" stroke="#BA0000" stroke-width="6"/>
</g>
<defs>
<clipPath id="clip0_112_117">
<rect width="1779" height="473" fill="white"/>
</clipPath>
</defs>
</svg>
