<svg width="926" height="232" viewBox="0 0 926 232" fill="none" xmlns="http://www.w3.org/2000/svg">
<rect x="11.5" y="148.5" width="301" height="75" fill="white" stroke="black" stroke-width="3"/>
<rect x="312.5" y="148.5" width="301" height="75" fill="white" stroke="black" stroke-width="3"/>
<rect x="613.5" y="148.5" width="301" height="75" fill="white" stroke="black" stroke-width="3"/>
<path d="M155.649 180L160.305 173.328L156.201 167.352H158.601L161.529 172.056L164.481 167.352H166.809L162.705 173.232L167.361 180H164.913L161.433 174.576L157.953 180H155.649ZM124.907 190C125.747 190 126.487 190.16 127.127 190.48C127.767 190.787 128.261 191.207 128.607 191.74C128.954 192.26 129.127 192.833 129.127 193.46C129.127 194.26 128.867 194.96 128.347 195.56C127.827 196.147 127.194 196.513 126.447 196.66C127.314 196.727 128.047 197.053 128.647 197.64C129.261 198.227 129.567 199.027 129.567 200.04C129.567 200.827 129.367 201.54 128.967 202.18C128.567 202.82 128.001 203.32 127.267 203.68C126.547 204.04 125.721 204.22 124.787 204.22C123.974 204.22 123.187 204.067 122.427 203.76C121.681 203.453 121.061 203 120.567 202.4L121.687 201.48C122.061 201.92 122.514 202.26 123.047 202.5C123.594 202.727 124.161 202.84 124.747 202.84C125.707 202.84 126.454 202.593 126.987 202.1C127.534 201.593 127.807 200.907 127.807 200.04C127.807 198.293 126.854 197.42 124.947 197.42H123.807L124.007 196.08H124.827C125.547 196.08 126.161 195.88 126.667 195.48C127.174 195.067 127.427 194.467 127.427 193.68C127.427 192.947 127.181 192.38 126.687 191.98C126.207 191.567 125.587 191.36 124.827 191.36C124.254 191.36 123.741 191.46 123.287 191.66C122.847 191.86 122.387 192.18 121.907 192.62L120.987 191.6C122.107 190.533 123.414 190 124.907 190ZM136.9 190C137.74 190 138.473 190.167 139.1 190.5C139.74 190.833 140.226 191.293 140.56 191.88C140.893 192.453 141.06 193.107 141.06 193.84C141.06 194.693 140.86 195.52 140.46 196.32C140.073 197.12 139.446 198 138.58 198.96C137.713 199.907 136.486 201.107 134.9 202.56H141.38L141.18 204H132.98V202.64C134.78 200.92 136.113 199.573 136.98 198.6C137.86 197.627 138.466 196.793 138.8 196.1C139.133 195.407 139.3 194.673 139.3 193.9C139.3 193.127 139.08 192.52 138.64 192.08C138.2 191.64 137.593 191.42 136.82 191.42C136.166 191.42 135.62 191.533 135.18 191.76C134.753 191.973 134.313 192.347 133.86 192.88L132.7 191.98C133.246 191.3 133.853 190.8 134.52 190.48C135.2 190.16 135.993 190 136.9 190ZM159.184 194.84C159.997 193.773 161.004 193.24 162.204 193.24C163.551 193.24 164.544 193.72 165.184 194.68C165.824 195.64 166.144 196.987 166.144 198.72C166.144 200.373 165.777 201.707 165.044 202.72C164.311 203.72 163.284 204.22 161.964 204.22C160.751 204.22 159.797 203.78 159.104 202.9L158.984 204H157.504V189.22L159.184 189.02V194.84ZM161.584 202.86C162.464 202.86 163.137 202.513 163.604 201.82C164.084 201.127 164.324 200.093 164.324 198.72C164.324 197.36 164.111 196.333 163.684 195.64C163.271 194.947 162.651 194.6 161.824 194.6C161.291 194.6 160.797 194.76 160.344 195.08C159.904 195.4 159.517 195.8 159.184 196.28V201.5C159.464 201.927 159.811 202.26 160.224 202.5C160.637 202.74 161.091 202.86 161.584 202.86ZM173.496 188.54C173.869 188.54 174.169 188.653 174.396 188.88C174.623 189.093 174.736 189.373 174.736 189.72C174.736 190.067 174.623 190.353 174.396 190.58C174.169 190.793 173.869 190.9 173.496 190.9C173.136 190.9 172.843 190.793 172.616 190.58C172.403 190.353 172.296 190.067 172.296 189.72C172.296 189.373 172.403 189.093 172.616 188.88C172.843 188.653 173.136 188.54 173.496 188.54ZM174.836 202.66H177.796V204H169.916V202.66H173.156V194.8H170.016V193.46H174.836V202.66ZM189.868 203.46C189.508 203.7 189.068 203.887 188.548 204.02C188.042 204.153 187.535 204.22 187.028 204.22C185.922 204.22 185.055 203.933 184.428 203.36C183.802 202.773 183.488 202.007 183.488 201.06V194.78H181.068V193.46H183.488V191.08L185.168 190.88V193.46H188.828L188.608 194.78H185.168V201.04C185.168 201.64 185.328 202.087 185.648 202.38C185.968 202.673 186.482 202.82 187.188 202.82C187.908 202.82 188.582 202.653 189.208 202.32L189.868 203.46ZM197.08 202.84C197.88 202.84 198.514 202.687 198.98 202.38C199.447 202.073 199.68 201.667 199.68 201.16C199.68 200.813 199.62 200.533 199.5 200.32C199.38 200.093 199.14 199.893 198.78 199.72C198.42 199.533 197.874 199.347 197.14 199.16C195.914 198.853 195.007 198.487 194.42 198.06C193.834 197.62 193.54 196.973 193.54 196.12C193.54 195.24 193.907 194.54 194.64 194.02C195.374 193.5 196.34 193.24 197.54 193.24C199.007 193.24 200.287 193.627 201.38 194.4L200.62 195.56C200.18 195.253 199.72 195.02 199.24 194.86C198.76 194.687 198.207 194.6 197.58 194.6C196.06 194.6 195.3 195.06 195.3 195.98C195.3 196.3 195.38 196.56 195.54 196.76C195.714 196.96 195.987 197.14 196.36 197.3C196.747 197.447 197.32 197.627 198.08 197.84C199.227 198.147 200.08 198.54 200.64 199.02C201.214 199.487 201.5 200.173 201.5 201.08C201.5 202.133 201.074 202.92 200.22 203.44C199.367 203.96 198.32 204.22 197.08 204.22C195.427 204.22 194.054 203.747 192.96 202.8L193.9 201.7C194.327 202.047 194.814 202.327 195.36 202.54C195.907 202.74 196.48 202.84 197.08 202.84Z" fill="black"/>
<path d="M463.801 180.072C463.305 181.528 462.625 182.688 461.761 183.552C460.897 184.416 459.689 184.928 458.137 185.088L457.849 183.48C458.697 183.336 459.369 183.112 459.865 182.808C460.377 182.52 460.777 182.152 461.065 181.704C461.353 181.272 461.617 180.704 461.857 180H461.185L456.793 167.352H458.929L462.553 178.464L466.129 167.352H468.217L463.801 180.072ZM425.907 190C426.747 190 427.487 190.16 428.127 190.48C428.767 190.787 429.261 191.207 429.607 191.74C429.954 192.26 430.127 192.833 430.127 193.46C430.127 194.26 429.867 194.96 429.347 195.56C428.827 196.147 428.194 196.513 427.447 196.66C428.314 196.727 429.047 197.053 429.647 197.64C430.261 198.227 430.567 199.027 430.567 200.04C430.567 200.827 430.367 201.54 429.967 202.18C429.567 202.82 429.001 203.32 428.267 203.68C427.547 204.04 426.721 204.22 425.787 204.22C424.974 204.22 424.187 204.067 423.427 203.76C422.681 203.453 422.061 203 421.567 202.4L422.687 201.48C423.061 201.92 423.514 202.26 424.047 202.5C424.594 202.727 425.161 202.84 425.747 202.84C426.707 202.84 427.454 202.593 427.987 202.1C428.534 201.593 428.807 200.907 428.807 200.04C428.807 198.293 427.854 197.42 425.947 197.42H424.807L425.007 196.08H425.827C426.547 196.08 427.161 195.88 427.667 195.48C428.174 195.067 428.427 194.467 428.427 193.68C428.427 192.947 428.181 192.38 427.687 191.98C427.207 191.567 426.587 191.36 425.827 191.36C425.254 191.36 424.741 191.46 424.287 191.66C423.847 191.86 423.387 192.18 422.907 192.62L421.987 191.6C423.107 190.533 424.414 190 425.907 190ZM437.9 190C438.74 190 439.473 190.167 440.1 190.5C440.74 190.833 441.226 191.293 441.56 191.88C441.893 192.453 442.06 193.107 442.06 193.84C442.06 194.693 441.86 195.52 441.46 196.32C441.073 197.12 440.446 198 439.58 198.96C438.713 199.907 437.486 201.107 435.9 202.56H442.38L442.18 204H433.98V202.64C435.78 200.92 437.113 199.573 437.98 198.6C438.86 197.627 439.466 196.793 439.8 196.1C440.133 195.407 440.3 194.673 440.3 193.9C440.3 193.127 440.08 192.52 439.64 192.08C439.2 191.64 438.593 191.42 437.82 191.42C437.166 191.42 436.62 191.533 436.18 191.76C435.753 191.973 435.313 192.347 434.86 192.88L433.7 191.98C434.246 191.3 434.853 190.8 435.52 190.48C436.2 190.16 436.993 190 437.9 190ZM460.184 194.84C460.997 193.773 462.004 193.24 463.204 193.24C464.551 193.24 465.544 193.72 466.184 194.68C466.824 195.64 467.144 196.987 467.144 198.72C467.144 200.373 466.777 201.707 466.044 202.72C465.311 203.72 464.284 204.22 462.964 204.22C461.751 204.22 460.797 203.78 460.104 202.9L459.984 204H458.504V189.22L460.184 189.02V194.84ZM462.584 202.86C463.464 202.86 464.137 202.513 464.604 201.82C465.084 201.127 465.324 200.093 465.324 198.72C465.324 197.36 465.111 196.333 464.684 195.64C464.271 194.947 463.651 194.6 462.824 194.6C462.291 194.6 461.797 194.76 461.344 195.08C460.904 195.4 460.517 195.8 460.184 196.28V201.5C460.464 201.927 460.811 202.26 461.224 202.5C461.637 202.74 462.091 202.86 462.584 202.86ZM474.496 188.54C474.869 188.54 475.169 188.653 475.396 188.88C475.623 189.093 475.736 189.373 475.736 189.72C475.736 190.067 475.623 190.353 475.396 190.58C475.169 190.793 474.869 190.9 474.496 190.9C474.136 190.9 473.843 190.793 473.616 190.58C473.403 190.353 473.296 190.067 473.296 189.72C473.296 189.373 473.403 189.093 473.616 188.88C473.843 188.653 474.136 188.54 474.496 188.54ZM475.836 202.66H478.796V204H470.916V202.66H474.156V194.8H471.016V193.46H475.836V202.66ZM490.868 203.46C490.508 203.7 490.068 203.887 489.548 204.02C489.042 204.153 488.535 204.22 488.028 204.22C486.922 204.22 486.055 203.933 485.428 203.36C484.802 202.773 484.488 202.007 484.488 201.06V194.78H482.068V193.46H484.488V191.08L486.168 190.88V193.46H489.828L489.608 194.78H486.168V201.04C486.168 201.64 486.328 202.087 486.648 202.38C486.968 202.673 487.482 202.82 488.188 202.82C488.908 202.82 489.582 202.653 490.208 202.32L490.868 203.46ZM498.08 202.84C498.88 202.84 499.514 202.687 499.98 202.38C500.447 202.073 500.68 201.667 500.68 201.16C500.68 200.813 500.62 200.533 500.5 200.32C500.38 200.093 500.14 199.893 499.78 199.72C499.42 199.533 498.874 199.347 498.14 199.16C496.914 198.853 496.007 198.487 495.42 198.06C494.834 197.62 494.54 196.973 494.54 196.12C494.54 195.24 494.907 194.54 495.64 194.02C496.374 193.5 497.34 193.24 498.54 193.24C500.007 193.24 501.287 193.627 502.38 194.4L501.62 195.56C501.18 195.253 500.72 195.02 500.24 194.86C499.76 194.687 499.207 194.6 498.58 194.6C497.06 194.6 496.3 195.06 496.3 195.98C496.3 196.3 496.38 196.56 496.54 196.76C496.714 196.96 496.987 197.14 497.36 197.3C497.747 197.447 498.32 197.627 499.08 197.84C500.227 198.147 501.08 198.54 501.64 199.02C502.214 199.487 502.5 200.173 502.5 201.08C502.5 202.133 502.074 202.92 501.22 203.44C500.367 203.96 499.32 204.22 498.08 204.22C496.427 204.22 495.054 203.747 493.96 202.8L494.9 201.7C495.327 202.047 495.814 202.327 496.36 202.54C496.907 202.74 497.48 202.84 498.08 202.84Z" fill="black"/>
<path d="M776.257 178.272L776.017 180H766.753V178.464L773.761 169.128H767.305V167.352H776.185V168.936L769.225 178.272H776.257ZM734.907 190C735.747 190 736.487 190.16 737.127 190.48C737.767 190.787 738.261 191.207 738.607 191.74C738.954 192.26 739.127 192.833 739.127 193.46C739.127 194.26 738.867 194.96 738.347 195.56C737.827 196.147 737.194 196.513 736.447 196.66C737.314 196.727 738.047 197.053 738.647 197.64C739.261 198.227 739.567 199.027 739.567 200.04C739.567 200.827 739.367 201.54 738.967 202.18C738.567 202.82 738.001 203.32 737.267 203.68C736.547 204.04 735.721 204.22 734.787 204.22C733.974 204.22 733.187 204.067 732.427 203.76C731.681 203.453 731.061 203 730.567 202.4L731.687 201.48C732.061 201.92 732.514 202.26 733.047 202.5C733.594 202.727 734.161 202.84 734.747 202.84C735.707 202.84 736.454 202.593 736.987 202.1C737.534 201.593 737.807 200.907 737.807 200.04C737.807 198.293 736.854 197.42 734.947 197.42H733.807L734.007 196.08H734.827C735.547 196.08 736.161 195.88 736.667 195.48C737.174 195.067 737.427 194.467 737.427 193.68C737.427 192.947 737.181 192.38 736.687 191.98C736.207 191.567 735.587 191.36 734.827 191.36C734.254 191.36 733.741 191.46 733.287 191.66C732.847 191.86 732.387 192.18 731.907 192.62L730.987 191.6C732.107 190.533 733.414 190 734.907 190ZM746.9 190C747.74 190 748.473 190.167 749.1 190.5C749.74 190.833 750.226 191.293 750.56 191.88C750.893 192.453 751.06 193.107 751.06 193.84C751.06 194.693 750.86 195.52 750.46 196.32C750.073 197.12 749.446 198 748.58 198.96C747.713 199.907 746.486 201.107 744.9 202.56H751.38L751.18 204H742.98V202.64C744.78 200.92 746.113 199.573 746.98 198.6C747.86 197.627 748.466 196.793 748.8 196.1C749.133 195.407 749.3 194.673 749.3 193.9C749.3 193.127 749.08 192.52 748.64 192.08C748.2 191.64 747.593 191.42 746.82 191.42C746.166 191.42 745.62 191.533 745.18 191.76C744.753 191.973 744.313 192.347 743.86 192.88L742.7 191.98C743.246 191.3 743.853 190.8 744.52 190.48C745.2 190.16 745.993 190 746.9 190ZM769.184 194.84C769.997 193.773 771.004 193.24 772.204 193.24C773.551 193.24 774.544 193.72 775.184 194.68C775.824 195.64 776.144 196.987 776.144 198.72C776.144 200.373 775.777 201.707 775.044 202.72C774.311 203.72 773.284 204.22 771.964 204.22C770.751 204.22 769.797 203.78 769.104 202.9L768.984 204H767.504V189.22L769.184 189.02V194.84ZM771.584 202.86C772.464 202.86 773.137 202.513 773.604 201.82C774.084 201.127 774.324 200.093 774.324 198.72C774.324 197.36 774.111 196.333 773.684 195.64C773.271 194.947 772.651 194.6 771.824 194.6C771.291 194.6 770.797 194.76 770.344 195.08C769.904 195.4 769.517 195.8 769.184 196.28V201.5C769.464 201.927 769.811 202.26 770.224 202.5C770.637 202.74 771.091 202.86 771.584 202.86ZM783.496 188.54C783.869 188.54 784.169 188.653 784.396 188.88C784.623 189.093 784.736 189.373 784.736 189.72C784.736 190.067 784.623 190.353 784.396 190.58C784.169 190.793 783.869 190.9 783.496 190.9C783.136 190.9 782.843 190.793 782.616 190.58C782.403 190.353 782.296 190.067 782.296 189.72C782.296 189.373 782.403 189.093 782.616 188.88C782.843 188.653 783.136 188.54 783.496 188.54ZM784.836 202.66H787.796V204H779.916V202.66H783.156V194.8H780.016V193.46H784.836V202.66ZM799.868 203.46C799.508 203.7 799.068 203.887 798.548 204.02C798.042 204.153 797.535 204.22 797.028 204.22C795.922 204.22 795.055 203.933 794.428 203.36C793.802 202.773 793.488 202.007 793.488 201.06V194.78H791.068V193.46H793.488V191.08L795.168 190.88V193.46H798.828L798.608 194.78H795.168V201.04C795.168 201.64 795.328 202.087 795.648 202.38C795.968 202.673 796.482 202.82 797.188 202.82C797.908 202.82 798.582 202.653 799.208 202.32L799.868 203.46ZM807.08 202.84C807.88 202.84 808.514 202.687 808.98 202.38C809.447 202.073 809.68 201.667 809.68 201.16C809.68 200.813 809.62 200.533 809.5 200.32C809.38 200.093 809.14 199.893 808.78 199.72C808.42 199.533 807.874 199.347 807.14 199.16C805.914 198.853 805.007 198.487 804.42 198.06C803.834 197.62 803.54 196.973 803.54 196.12C803.54 195.24 803.907 194.54 804.64 194.02C805.374 193.5 806.34 193.24 807.54 193.24C809.007 193.24 810.287 193.627 811.38 194.4L810.62 195.56C810.18 195.253 809.72 195.02 809.24 194.86C808.76 194.687 808.207 194.6 807.58 194.6C806.06 194.6 805.3 195.06 805.3 195.98C805.3 196.3 805.38 196.56 805.54 196.76C805.714 196.96 805.987 197.14 806.36 197.3C806.747 197.447 807.32 197.627 808.08 197.84C809.227 198.147 810.08 198.54 810.64 199.02C811.214 199.487 811.5 200.173 811.5 201.08C811.5 202.133 811.074 202.92 810.22 203.44C809.367 203.96 808.32 204.22 807.08 204.22C805.427 204.22 804.054 203.747 802.96 202.8L803.9 201.7C804.327 202.047 804.814 202.327 805.36 202.54C805.907 202.74 806.48 202.84 807.08 202.84Z" fill="black"/>
<rect x="87.5" y="8.5" width="198.445" height="75" fill="white" stroke="black" stroke-width="3"/>
<rect x="286.5" y="8.5" width="544.012" height="75" fill="white" stroke="black" stroke-width="3"/>
<path d="M153.642 35.152H147.402V43H145.314V26.464H147.402V33.448H153.642V26.464H155.73V43H153.642V35.152ZM161.721 37.384C161.769 38.776 162.129 39.824 162.801 40.528C163.489 41.232 164.353 41.584 165.393 41.584C166.017 41.584 166.585 41.496 167.097 41.32C167.625 41.128 168.185 40.84 168.777 40.456L169.713 41.8C169.121 42.264 168.441 42.624 167.673 42.88C166.921 43.136 166.161 43.264 165.393 43.264C163.569 43.264 162.145 42.672 161.121 41.488C160.113 40.288 159.609 38.688 159.609 36.688C159.609 35.424 159.833 34.296 160.281 33.304C160.729 32.296 161.369 31.512 162.201 30.952C163.033 30.376 164.001 30.088 165.105 30.088C166.705 30.088 167.961 30.648 168.873 31.768C169.801 32.872 170.265 34.384 170.265 36.304C170.265 36.672 170.249 37.032 170.217 37.384H161.721ZM165.129 31.744C164.153 31.744 163.361 32.096 162.753 32.8C162.145 33.488 161.801 34.504 161.721 35.848H168.297C168.281 34.52 167.993 33.504 167.433 32.8C166.873 32.096 166.105 31.744 165.129 31.744ZM183.575 40.24C183.575 40.736 183.655 41.104 183.815 41.344C183.975 41.568 184.239 41.736 184.607 41.848L184.103 43.288C182.871 43.128 182.103 42.528 181.799 41.488C181.351 42.064 180.783 42.504 180.095 42.808C179.423 43.112 178.671 43.264 177.839 43.264C176.575 43.264 175.575 42.912 174.839 42.208C174.119 41.504 173.759 40.56 173.759 39.376C173.759 38.08 174.263 37.08 175.271 36.376C176.295 35.672 177.759 35.32 179.663 35.32H181.535V34.288C181.535 33.392 181.279 32.752 180.767 32.368C180.255 31.968 179.511 31.768 178.535 31.768C177.575 31.768 176.479 31.984 175.247 32.416L174.695 30.88C176.183 30.352 177.567 30.088 178.847 30.088C180.383 30.088 181.551 30.448 182.351 31.168C183.167 31.888 183.575 32.888 183.575 34.168V40.24ZM178.343 41.752C178.967 41.752 179.559 41.592 180.119 41.272C180.695 40.952 181.167 40.512 181.535 39.952V36.712H179.711C178.367 36.712 177.399 36.936 176.807 37.384C176.215 37.832 175.919 38.488 175.919 39.352C175.919 40.952 176.727 41.752 178.343 41.752ZM198.494 25.264V43H196.718L196.526 41.344C196.062 41.984 195.526 42.464 194.918 42.784C194.31 43.104 193.654 43.264 192.95 43.264C191.35 43.264 190.142 42.68 189.326 41.512C188.526 40.344 188.126 38.736 188.126 36.688C188.126 35.424 188.326 34.296 188.726 33.304C189.126 32.296 189.694 31.512 190.43 30.952C191.182 30.376 192.062 30.088 193.07 30.088C194.462 30.088 195.598 30.592 196.478 31.6V25.024L198.494 25.264ZM193.598 31.72C192.542 31.72 191.726 32.136 191.15 32.968C190.59 33.8 190.31 35.04 190.31 36.688C190.31 38.32 190.566 39.56 191.078 40.408C191.606 41.24 192.366 41.656 193.358 41.656C194.558 41.656 195.598 40.984 196.478 39.64V33.352C196.126 32.824 195.702 32.424 195.206 32.152C194.71 31.864 194.174 31.72 193.598 31.72ZM204.893 37.384C204.941 38.776 205.301 39.824 205.973 40.528C206.661 41.232 207.525 41.584 208.565 41.584C209.189 41.584 209.757 41.496 210.269 41.32C210.797 41.128 211.357 40.84 211.949 40.456L212.885 41.8C212.293 42.264 211.613 42.624 210.845 42.88C210.093 43.136 209.333 43.264 208.565 43.264C206.741 43.264 205.317 42.672 204.293 41.488C203.285 40.288 202.781 38.688 202.781 36.688C202.781 35.424 203.005 34.296 203.453 33.304C203.901 32.296 204.541 31.512 205.373 30.952C206.205 30.376 207.173 30.088 208.277 30.088C209.877 30.088 211.133 30.648 212.045 31.768C212.973 32.872 213.437 34.384 213.437 36.304C213.437 36.672 213.421 37.032 213.389 37.384H204.893ZM208.301 31.744C207.325 31.744 206.533 32.096 205.925 32.8C205.317 33.488 204.973 34.504 204.893 35.848H211.469C211.453 34.52 211.165 33.504 210.605 32.8C210.045 32.096 209.277 31.744 208.301 31.744ZM226.219 30.088C226.731 30.088 227.323 30.176 227.995 30.352L227.707 34.648H226.075V31.936H225.955C224.003 31.936 222.619 33.328 221.803 36.112V41.44H224.371V43H217.795V41.44H219.787V31.912H217.795V30.352H221.299L221.683 33.352C222.195 32.264 222.803 31.448 223.507 30.904C224.227 30.36 225.131 30.088 226.219 30.088ZM147.561 66.72L152.921 54.62H146.461V53.22H154.621V54.52L149.121 67.18L147.561 66.72ZM161.893 53C162.733 53 163.467 53.1667 164.093 53.5C164.733 53.8333 165.22 54.2933 165.553 54.88C165.887 55.4533 166.053 56.1067 166.053 56.84C166.053 57.6933 165.853 58.52 165.453 59.32C165.067 60.12 164.44 61 163.573 61.96C162.707 62.9067 161.48 64.1067 159.893 65.56H166.373L166.173 67H157.973V65.64C159.773 63.92 161.107 62.5733 161.973 61.6C162.853 60.6267 163.46 59.7933 163.793 59.1C164.127 58.4067 164.293 57.6733 164.293 56.9C164.293 56.1267 164.073 55.52 163.633 55.08C163.193 54.64 162.587 54.42 161.813 54.42C161.16 54.42 160.613 54.5333 160.173 54.76C159.747 54.9733 159.307 55.3467 158.853 55.88L157.693 54.98C158.24 54.3 158.847 53.8 159.513 53.48C160.193 53.16 160.987 53 161.893 53ZM184.178 57.84C184.991 56.7733 185.998 56.24 187.198 56.24C188.545 56.24 189.538 56.72 190.178 57.68C190.818 58.64 191.138 59.9867 191.138 61.72C191.138 63.3733 190.771 64.7067 190.038 65.72C189.305 66.72 188.278 67.22 186.958 67.22C185.745 67.22 184.791 66.78 184.098 65.9L183.978 67H182.498V52.22L184.178 52.02V57.84ZM186.578 65.86C187.458 65.86 188.131 65.5133 188.598 64.82C189.078 64.1267 189.318 63.0933 189.318 61.72C189.318 60.36 189.105 59.3333 188.678 58.64C188.265 57.9467 187.645 57.6 186.818 57.6C186.285 57.6 185.791 57.76 185.338 58.08C184.898 58.4 184.511 58.8 184.178 59.28V64.5C184.458 64.9267 184.805 65.26 185.218 65.5C185.631 65.74 186.085 65.86 186.578 65.86ZM198.49 51.54C198.863 51.54 199.163 51.6533 199.39 51.88C199.617 52.0933 199.73 52.3733 199.73 52.72C199.73 53.0667 199.617 53.3533 199.39 53.58C199.163 53.7933 198.863 53.9 198.49 53.9C198.13 53.9 197.837 53.7933 197.61 53.58C197.397 53.3533 197.29 53.0667 197.29 52.72C197.29 52.3733 197.397 52.0933 197.61 51.88C197.837 51.6533 198.13 51.54 198.49 51.54ZM199.83 65.66H202.79V67H194.91V65.66H198.15V57.8H195.01V56.46H199.83V65.66ZM214.862 66.46C214.502 66.7 214.062 66.8867 213.542 67.02C213.036 67.1533 212.529 67.22 212.022 67.22C210.916 67.22 210.049 66.9333 209.422 66.36C208.796 65.7733 208.482 65.0067 208.482 64.06V57.78H206.062V56.46H208.482V54.08L210.162 53.88V56.46H213.822L213.602 57.78H210.162V64.04C210.162 64.64 210.322 65.0867 210.642 65.38C210.962 65.6733 211.476 65.82 212.182 65.82C212.902 65.82 213.576 65.6533 214.202 65.32L214.862 66.46ZM222.074 65.84C222.874 65.84 223.508 65.6867 223.974 65.38C224.441 65.0733 224.674 64.6667 224.674 64.16C224.674 63.8133 224.614 63.5333 224.494 63.32C224.374 63.0933 224.134 62.8933 223.774 62.72C223.414 62.5333 222.868 62.3467 222.134 62.16C220.908 61.8533 220.001 61.4867 219.414 61.06C218.828 60.62 218.534 59.9733 218.534 59.12C218.534 58.24 218.901 57.54 219.634 57.02C220.368 56.5 221.334 56.24 222.534 56.24C224.001 56.24 225.281 56.6267 226.374 57.4L225.614 58.56C225.174 58.2533 224.714 58.02 224.234 57.86C223.754 57.6867 223.201 57.6 222.574 57.6C221.054 57.6 220.294 58.06 220.294 58.98C220.294 59.3 220.374 59.56 220.534 59.76C220.708 59.96 220.981 60.14 221.354 60.3C221.741 60.4467 222.314 60.6267 223.074 60.84C224.221 61.1467 225.074 61.54 225.634 62.02C226.208 62.4867 226.494 63.1733 226.494 64.08C226.494 65.1333 226.068 65.92 225.214 66.44C224.361 66.96 223.314 67.22 222.074 67.22C220.421 67.22 219.048 66.7467 217.954 65.8L218.894 64.7C219.321 65.0467 219.808 65.3267 220.354 65.54C220.901 65.74 221.474 65.84 222.074 65.84Z" fill="black"/>
<path d="M391.985 31.552C391.985 33.392 391.417 34.736 390.281 35.584C389.145 36.432 387.585 36.856 385.601 36.856H383.465V43H381.401V26.464H385.601C387.633 26.464 389.201 26.888 390.305 27.736C391.425 28.584 391.985 29.856 391.985 31.552ZM389.753 31.576C389.753 30.376 389.401 29.504 388.697 28.96C388.009 28.4 387.065 28.12 385.865 28.12H383.465V35.2H385.793C387.041 35.2 388.009 34.928 388.697 34.384C389.401 33.84 389.753 32.904 389.753 31.576ZM404.48 40.24C404.48 40.736 404.56 41.104 404.72 41.344C404.88 41.568 405.144 41.736 405.512 41.848L405.008 43.288C403.776 43.128 403.008 42.528 402.704 41.488C402.256 42.064 401.688 42.504 401 42.808C400.328 43.112 399.576 43.264 398.744 43.264C397.48 43.264 396.48 42.912 395.744 42.208C395.024 41.504 394.664 40.56 394.664 39.376C394.664 38.08 395.168 37.08 396.176 36.376C397.2 35.672 398.664 35.32 400.568 35.32H402.44V34.288C402.44 33.392 402.184 32.752 401.672 32.368C401.16 31.968 400.416 31.768 399.44 31.768C398.48 31.768 397.384 31.984 396.152 32.416L395.6 30.88C397.088 30.352 398.472 30.088 399.752 30.088C401.288 30.088 402.456 30.448 403.256 31.168C404.072 31.888 404.48 32.888 404.48 34.168V40.24ZM399.248 41.752C399.872 41.752 400.464 41.592 401.024 41.272C401.6 40.952 402.072 40.512 402.44 39.952V36.712H400.616C399.272 36.712 398.304 36.936 397.712 37.384C397.12 37.832 396.824 38.488 396.824 39.352C396.824 40.952 397.632 41.752 399.248 41.752ZM415.894 43.072C415.398 44.528 414.718 45.688 413.854 46.552C412.99 47.416 411.782 47.928 410.23 48.088L409.942 46.48C410.79 46.336 411.462 46.112 411.958 45.808C412.47 45.52 412.87 45.152 413.158 44.704C413.446 44.272 413.71 43.704 413.95 43H413.278L408.886 30.352H411.022L414.646 41.464L418.222 30.352H420.31L415.894 43.072ZM429.133 39.88C429.133 41.016 429.829 41.584 431.221 41.584C431.877 41.584 432.581 41.44 433.333 41.152L433.861 42.616C433.061 43.048 432.061 43.264 430.861 43.264C429.725 43.264 428.813 42.952 428.125 42.328C427.453 41.704 427.117 40.856 427.117 39.784V26.872H423.229V25.264H429.133V39.88ZM443.404 30.088C445.148 30.088 446.484 30.68 447.412 31.864C448.356 33.032 448.828 34.632 448.828 36.664C448.828 38.648 448.348 40.248 447.388 41.464C446.444 42.664 445.108 43.264 443.38 43.264C441.636 43.264 440.292 42.68 439.348 41.512C438.404 40.328 437.932 38.72 437.932 36.688C437.932 34.688 438.404 33.088 439.348 31.888C440.308 30.688 441.66 30.088 443.404 30.088ZM443.404 31.744C442.3 31.744 441.476 32.152 440.932 32.968C440.388 33.784 440.116 35.024 440.116 36.688C440.116 38.352 440.38 39.592 440.908 40.408C441.452 41.208 442.276 41.608 443.38 41.608C444.484 41.608 445.3 41.208 445.828 40.408C446.372 39.592 446.644 38.344 446.644 36.664C446.644 35 446.372 33.768 445.828 32.968C445.3 32.152 444.492 31.744 443.404 31.744ZM462.042 40.24C462.042 40.736 462.122 41.104 462.282 41.344C462.442 41.568 462.706 41.736 463.074 41.848L462.57 43.288C461.338 43.128 460.57 42.528 460.266 41.488C459.818 42.064 459.25 42.504 458.562 42.808C457.89 43.112 457.138 43.264 456.306 43.264C455.042 43.264 454.042 42.912 453.306 42.208C452.586 41.504 452.226 40.56 452.226 39.376C452.226 38.08 452.73 37.08 453.738 36.376C454.762 35.672 456.226 35.32 458.13 35.32H460.002V34.288C460.002 33.392 459.746 32.752 459.234 32.368C458.722 31.968 457.978 31.768 457.002 31.768C456.042 31.768 454.946 31.984 453.714 32.416L453.162 30.88C454.65 30.352 456.034 30.088 457.314 30.088C458.85 30.088 460.018 30.448 460.818 31.168C461.634 31.888 462.042 32.888 462.042 34.168V40.24ZM456.81 41.752C457.434 41.752 458.026 41.592 458.586 41.272C459.162 40.952 459.634 40.512 460.002 39.952V36.712H458.178C456.834 36.712 455.866 36.936 455.274 37.384C454.682 37.832 454.386 38.488 454.386 39.352C454.386 40.952 455.194 41.752 456.81 41.752ZM476.961 25.264V43H475.185L474.993 41.344C474.529 41.984 473.993 42.464 473.385 42.784C472.777 43.104 472.121 43.264 471.417 43.264C469.817 43.264 468.609 42.68 467.793 41.512C466.993 40.344 466.593 38.736 466.593 36.688C466.593 35.424 466.793 34.296 467.193 33.304C467.593 32.296 468.161 31.512 468.897 30.952C469.649 30.376 470.529 30.088 471.537 30.088C472.929 30.088 474.065 30.592 474.945 31.6V25.024L476.961 25.264ZM472.065 31.72C471.009 31.72 470.193 32.136 469.617 32.968C469.057 33.8 468.777 35.04 468.777 36.688C468.777 38.32 469.033 39.56 469.545 40.408C470.073 41.24 470.833 41.656 471.825 41.656C473.025 41.656 474.065 40.984 474.945 39.64V33.352C474.593 32.824 474.169 32.424 473.673 32.152C473.177 31.864 472.641 31.72 472.065 31.72ZM503.606 25.024C504.806 25.024 505.95 25.248 507.038 25.696L506.39 27.208C505.59 26.856 504.686 26.68 503.678 26.68C501.918 26.68 501.038 27.376 501.038 28.768V31.336H505.31L505.094 32.944H501.038V43H498.998V32.944H495.998V31.336H498.998V28.816C498.998 27.68 499.43 26.768 500.294 26.08C501.174 25.376 502.278 25.024 503.606 25.024ZM515.357 30.088C517.101 30.088 518.437 30.68 519.365 31.864C520.309 33.032 520.781 34.632 520.781 36.664C520.781 38.648 520.301 40.248 519.341 41.464C518.397 42.664 517.061 43.264 515.333 43.264C513.589 43.264 512.245 42.68 511.301 41.512C510.357 40.328 509.885 38.72 509.885 36.688C509.885 34.688 510.357 33.088 511.301 31.888C512.261 30.688 513.613 30.088 515.357 30.088ZM515.357 31.744C514.253 31.744 513.429 32.152 512.885 32.968C512.341 33.784 512.069 35.024 512.069 36.688C512.069 38.352 512.333 39.592 512.861 40.408C513.405 41.208 514.229 41.608 515.333 41.608C516.437 41.608 517.253 41.208 517.781 40.408C518.325 39.592 518.597 38.344 518.597 36.664C518.597 35 518.325 33.768 517.781 32.968C517.253 32.152 516.445 31.744 515.357 31.744ZM533.467 30.088C533.979 30.088 534.571 30.176 535.243 30.352L534.955 34.648H533.323V31.936H533.203C531.251 31.936 529.867 33.328 529.051 36.112V41.44H531.619V43H525.043V41.44H527.035V31.912H525.043V30.352H528.547L528.931 33.352C529.443 32.264 530.051 31.448 530.755 30.904C531.475 30.36 532.379 30.088 533.467 30.088ZM555.169 38.776L553.849 43H551.785L557.185 26.464H559.825L565.201 43H563.041L561.721 38.776H555.169ZM561.169 37.048L558.457 28.24L555.721 37.048H561.169ZM573.831 41.536C574.935 41.536 576.031 41.168 577.119 40.432L578.079 41.752C577.551 42.216 576.895 42.584 576.111 42.856C575.327 43.128 574.567 43.264 573.831 43.264C571.959 43.264 570.495 42.68 569.439 41.512C568.399 40.328 567.879 38.736 567.879 36.736C567.879 35.472 568.111 34.336 568.575 33.328C569.055 32.32 569.743 31.528 570.639 30.952C571.535 30.376 572.599 30.088 573.831 30.088C575.463 30.088 576.871 30.584 578.055 31.576L577.071 32.896C575.967 32.16 574.879 31.792 573.807 31.792C572.671 31.792 571.759 32.216 571.071 33.064C570.399 33.896 570.063 35.12 570.063 36.736C570.063 38.352 570.399 39.56 571.071 40.36C571.759 41.144 572.679 41.536 573.831 41.536ZM588.222 41.536C589.326 41.536 590.422 41.168 591.51 40.432L592.47 41.752C591.942 42.216 591.286 42.584 590.502 42.856C589.718 43.128 588.958 43.264 588.222 43.264C586.35 43.264 584.886 42.68 583.83 41.512C582.79 40.328 582.27 38.736 582.27 36.736C582.27 35.472 582.502 34.336 582.966 33.328C583.446 32.32 584.134 31.528 585.03 30.952C585.926 30.376 586.99 30.088 588.222 30.088C589.854 30.088 591.262 30.584 592.446 31.576L591.462 32.896C590.358 32.16 589.27 31.792 588.198 31.792C587.062 31.792 586.15 32.216 585.462 33.064C584.79 33.896 584.454 35.12 584.454 36.736C584.454 38.352 584.79 39.56 585.462 40.36C586.15 41.144 587.07 41.536 588.222 41.536ZM598.485 37.384C598.533 38.776 598.893 39.824 599.565 40.528C600.253 41.232 601.117 41.584 602.157 41.584C602.781 41.584 603.349 41.496 603.861 41.32C604.389 41.128 604.949 40.84 605.541 40.456L606.477 41.8C605.885 42.264 605.205 42.624 604.437 42.88C603.685 43.136 602.925 43.264 602.157 43.264C600.333 43.264 598.909 42.672 597.885 41.488C596.877 40.288 596.373 38.688 596.373 36.688C596.373 35.424 596.597 34.296 597.045 33.304C597.493 32.296 598.133 31.512 598.965 30.952C599.797 30.376 600.765 30.088 601.869 30.088C603.469 30.088 604.725 30.648 605.637 31.768C606.565 32.872 607.029 34.384 607.029 36.304C607.029 36.672 607.013 37.032 606.981 37.384H598.485ZM601.893 31.744C600.917 31.744 600.125 32.096 599.517 32.8C598.909 33.488 598.565 34.504 598.485 35.848H605.061C605.045 34.52 604.757 33.504 604.197 32.8C603.637 32.096 602.869 31.744 601.893 31.744ZM616.211 39.88C616.211 41.016 616.907 41.584 618.299 41.584C618.955 41.584 619.659 41.44 620.411 41.152L620.939 42.616C620.139 43.048 619.139 43.264 617.939 43.264C616.803 43.264 615.891 42.952 615.203 42.328C614.531 41.704 614.195 40.856 614.195 39.784V26.872H610.307V25.264H616.211V39.88ZM627.266 37.384C627.314 38.776 627.674 39.824 628.346 40.528C629.034 41.232 629.898 41.584 630.938 41.584C631.562 41.584 632.13 41.496 632.642 41.32C633.17 41.128 633.73 40.84 634.322 40.456L635.258 41.8C634.666 42.264 633.986 42.624 633.218 42.88C632.466 43.136 631.706 43.264 630.938 43.264C629.114 43.264 627.69 42.672 626.666 41.488C625.658 40.288 625.154 38.688 625.154 36.688C625.154 35.424 625.378 34.296 625.826 33.304C626.274 32.296 626.914 31.512 627.746 30.952C628.578 30.376 629.546 30.088 630.65 30.088C632.25 30.088 633.506 30.648 634.418 31.768C635.346 32.872 635.81 34.384 635.81 36.304C635.81 36.672 635.794 37.032 635.762 37.384H627.266ZM630.674 31.744C629.698 31.744 628.906 32.096 628.298 32.8C627.69 33.488 627.346 34.504 627.266 35.848H633.842C633.826 34.52 633.538 33.504 632.978 32.8C632.418 32.096 631.65 31.744 630.674 31.744ZM648.592 30.088C649.104 30.088 649.696 30.176 650.368 30.352L650.08 34.648H648.448V31.936H648.328C646.376 31.936 644.992 33.328 644.176 36.112V41.44H646.744V43H640.168V41.44H642.16V31.912H640.168V30.352H643.672L644.056 33.352C644.568 32.264 645.176 31.448 645.88 30.904C646.6 30.36 647.504 30.088 648.592 30.088ZM659.263 30.088C661.007 30.088 662.343 30.68 663.271 31.864C664.215 33.032 664.687 34.632 664.687 36.664C664.687 38.648 664.207 40.248 663.247 41.464C662.303 42.664 660.967 43.264 659.239 43.264C657.495 43.264 656.151 42.68 655.207 41.512C654.263 40.328 653.791 38.72 653.791 36.688C653.791 34.688 654.263 33.088 655.207 31.888C656.167 30.688 657.519 30.088 659.263 30.088ZM659.263 31.744C658.159 31.744 657.335 32.152 656.791 32.968C656.247 33.784 655.975 35.024 655.975 36.688C655.975 38.352 656.239 39.592 656.767 40.408C657.311 41.208 658.135 41.608 659.239 41.608C660.343 41.608 661.159 41.208 661.687 40.408C662.231 39.592 662.503 38.344 662.503 36.664C662.503 35 662.231 33.768 661.687 32.968C661.159 32.152 660.351 31.744 659.263 31.744ZM677.158 30.088C677.878 30.088 678.462 30.344 678.91 30.856C679.374 31.352 679.606 32.264 679.606 33.592V43H677.758V33.928C677.758 33.048 677.702 32.456 677.59 32.152C677.478 31.832 677.206 31.672 676.774 31.672C675.958 31.672 675.222 32.176 674.566 33.184V43H672.694V33.928C672.694 33.048 672.638 32.456 672.526 32.152C672.414 31.832 672.142 31.672 671.71 31.672C670.894 31.672 670.158 32.176 669.502 33.184V43H667.654V30.352H669.214L669.358 31.84C669.742 31.28 670.142 30.848 670.558 30.544C670.99 30.24 671.502 30.088 672.094 30.088C673.278 30.088 674.038 30.648 674.374 31.768C674.758 31.224 675.166 30.808 675.598 30.52C676.03 30.232 676.55 30.088 677.158 30.088ZM684.828 37.384C684.876 38.776 685.236 39.824 685.908 40.528C686.596 41.232 687.46 41.584 688.5 41.584C689.124 41.584 689.692 41.496 690.204 41.32C690.732 41.128 691.292 40.84 691.884 40.456L692.82 41.8C692.228 42.264 691.548 42.624 690.78 42.88C690.028 43.136 689.268 43.264 688.5 43.264C686.676 43.264 685.252 42.672 684.228 41.488C683.22 40.288 682.716 38.688 682.716 36.688C682.716 35.424 682.94 34.296 683.388 33.304C683.836 32.296 684.476 31.512 685.308 30.952C686.14 30.376 687.108 30.088 688.212 30.088C689.812 30.088 691.068 30.648 691.98 31.768C692.908 32.872 693.372 34.384 693.372 36.304C693.372 36.672 693.356 37.032 693.324 37.384H684.828ZM688.236 31.744C687.26 31.744 686.468 32.096 685.86 32.8C685.252 33.488 684.908 34.504 684.828 35.848H691.404C691.388 34.52 691.1 33.504 690.54 32.8C689.98 32.096 689.212 31.744 688.236 31.744ZM707.667 42.352C707.235 42.64 706.707 42.864 706.083 43.024C705.475 43.184 704.867 43.264 704.259 43.264C702.931 43.264 701.891 42.92 701.139 42.232C700.387 41.528 700.011 40.608 700.011 39.472V31.936H697.107V30.352H700.011V27.496L702.027 27.256V30.352H706.419L706.155 31.936H702.027V39.448C702.027 40.168 702.219 40.704 702.603 41.056C702.987 41.408 703.603 41.584 704.451 41.584C705.315 41.584 706.123 41.384 706.875 40.984L707.667 42.352ZM713.61 37.384C713.658 38.776 714.018 39.824 714.69 40.528C715.378 41.232 716.242 41.584 717.282 41.584C717.906 41.584 718.474 41.496 718.986 41.32C719.514 41.128 720.074 40.84 720.666 40.456L721.602 41.8C721.01 42.264 720.33 42.624 719.562 42.88C718.81 43.136 718.05 43.264 717.282 43.264C715.458 43.264 714.034 42.672 713.01 41.488C712.002 40.288 711.498 38.688 711.498 36.688C711.498 35.424 711.722 34.296 712.17 33.304C712.618 32.296 713.258 31.512 714.09 30.952C714.922 30.376 715.89 30.088 716.994 30.088C718.594 30.088 719.85 30.648 720.762 31.768C721.69 32.872 722.154 34.384 722.154 36.304C722.154 36.672 722.138 37.032 722.106 37.384H713.61ZM717.018 31.744C716.042 31.744 715.25 32.096 714.642 32.8C714.034 33.488 713.69 34.504 713.61 35.848H720.186C720.17 34.52 719.882 33.504 719.322 32.8C718.762 32.096 717.994 31.744 717.018 31.744ZM734.936 30.088C735.448 30.088 736.04 30.176 736.712 30.352L736.424 34.648H734.792V31.936H734.672C732.72 31.936 731.336 33.328 730.52 36.112V41.44H733.088V43H726.512V41.44H728.504V31.912H726.512V30.352H730.016L730.4 33.352C730.912 32.264 731.52 31.448 732.224 30.904C732.944 30.36 733.848 30.088 734.936 30.088ZM522.307 53.02C523.814 53.02 524.941 53.4867 525.687 54.42C526.434 55.3533 526.807 56.66 526.807 58.34C526.807 60.2733 526.554 61.8133 526.047 62.96C525.554 64.1067 524.787 65.0133 523.747 65.68C522.721 66.3333 521.294 66.9133 519.467 67.42L519.067 66.14C521.027 65.62 522.507 64.9067 523.507 64C524.507 63.0933 525.014 61.8467 525.027 60.26C524.681 60.7533 524.227 61.16 523.667 61.48C523.121 61.8 522.487 61.96 521.767 61.96C521.007 61.96 520.327 61.78 519.727 61.42C519.141 61.06 518.681 60.5533 518.347 59.9C518.014 59.2333 517.847 58.4533 517.847 57.56C517.847 56.6 518.041 55.78 518.427 55.1C518.827 54.42 519.361 53.9067 520.027 53.56C520.707 53.2 521.467 53.02 522.307 53.02ZM522.047 60.6C522.687 60.6 523.254 60.44 523.747 60.12C524.241 59.8 524.681 59.3467 525.067 58.76C525.094 57.16 524.887 56.0333 524.447 55.38C524.007 54.7133 523.294 54.38 522.307 54.38C521.414 54.38 520.741 54.6533 520.287 55.2C519.834 55.7467 519.607 56.5533 519.607 57.62C519.607 58.6333 519.814 59.3867 520.227 59.88C520.654 60.36 521.261 60.6 522.047 60.6ZM535.12 58.04C535.84 58.04 536.493 58.2 537.08 58.52C537.68 58.84 538.153 59.3267 538.5 59.98C538.846 60.62 539.02 61.4133 539.02 62.36C539.02 63.3467 538.826 64.2133 538.44 64.96C538.053 65.6933 537.533 66.2533 536.88 66.64C536.226 67.0267 535.493 67.22 534.68 67.22C533.08 67.22 531.913 66.64 531.18 65.48C530.46 64.32 530.1 62.66 530.1 60.5C530.1 58.98 530.3 57.66 530.7 56.54C531.113 55.4067 531.7 54.5333 532.46 53.92C533.233 53.3067 534.153 53 535.22 53C536.22 53 537.133 53.2733 537.96 53.82L537.3 54.94C536.646 54.5533 535.946 54.36 535.2 54.36C534.146 54.36 533.32 54.8533 532.72 55.84C532.133 56.8267 531.826 58.1733 531.8 59.88C532.226 59.24 532.713 58.7733 533.26 58.48C533.806 58.1867 534.426 58.04 535.12 58.04ZM534.68 65.86C535.533 65.86 536.18 65.56 536.62 64.96C537.073 64.3467 537.3 63.5 537.3 62.42C537.3 60.4067 536.486 59.4 534.86 59.4C534.22 59.4 533.64 59.58 533.12 59.94C532.613 60.2867 532.18 60.76 531.82 61.36C531.846 62.92 532.086 64.06 532.54 64.78C532.993 65.5 533.706 65.86 534.68 65.86ZM556.184 57.84C556.997 56.7733 558.004 56.24 559.204 56.24C560.551 56.24 561.544 56.72 562.184 57.68C562.824 58.64 563.144 59.9867 563.144 61.72C563.144 63.3733 562.777 64.7067 562.044 65.72C561.311 66.72 560.284 67.22 558.964 67.22C557.751 67.22 556.797 66.78 556.104 65.9L555.984 67H554.504V52.22L556.184 52.02V57.84ZM558.584 65.86C559.464 65.86 560.137 65.5133 560.604 64.82C561.084 64.1267 561.324 63.0933 561.324 61.72C561.324 60.36 561.111 59.3333 560.684 58.64C560.271 57.9467 559.651 57.6 558.824 57.6C558.291 57.6 557.797 57.76 557.344 58.08C556.904 58.4 556.517 58.8 556.184 59.28V64.5C556.464 64.9267 556.811 65.26 557.224 65.5C557.637 65.74 558.091 65.86 558.584 65.86ZM570.496 51.54C570.869 51.54 571.169 51.6533 571.396 51.88C571.623 52.0933 571.736 52.3733 571.736 52.72C571.736 53.0667 571.623 53.3533 571.396 53.58C571.169 53.7933 570.869 53.9 570.496 53.9C570.136 53.9 569.843 53.7933 569.616 53.58C569.403 53.3533 569.296 53.0667 569.296 52.72C569.296 52.3733 569.403 52.0933 569.616 51.88C569.843 51.6533 570.136 51.54 570.496 51.54ZM571.836 65.66H574.796V67H566.916V65.66H570.156V57.8H567.016V56.46H571.836V65.66ZM586.868 66.46C586.508 66.7 586.068 66.8867 585.548 67.02C585.042 67.1533 584.535 67.22 584.028 67.22C582.922 67.22 582.055 66.9333 581.428 66.36C580.802 65.7733 580.488 65.0067 580.488 64.06V57.78H578.068V56.46H580.488V54.08L582.168 53.88V56.46H585.828L585.608 57.78H582.168V64.04C582.168 64.64 582.328 65.0867 582.648 65.38C582.968 65.6733 583.482 65.82 584.188 65.82C584.908 65.82 585.582 65.6533 586.208 65.32L586.868 66.46ZM594.08 65.84C594.88 65.84 595.514 65.6867 595.98 65.38C596.447 65.0733 596.68 64.6667 596.68 64.16C596.68 63.8133 596.62 63.5333 596.5 63.32C596.38 63.0933 596.14 62.8933 595.78 62.72C595.42 62.5333 594.874 62.3467 594.14 62.16C592.914 61.8533 592.007 61.4867 591.42 61.06C590.834 60.62 590.54 59.9733 590.54 59.12C590.54 58.24 590.907 57.54 591.64 57.02C592.374 56.5 593.34 56.24 594.54 56.24C596.007 56.24 597.287 56.6267 598.38 57.4L597.62 58.56C597.18 58.2533 596.72 58.02 596.24 57.86C595.76 57.6867 595.207 57.6 594.58 57.6C593.06 57.6 592.3 58.06 592.3 58.98C592.3 59.3 592.38 59.56 592.54 59.76C592.714 59.96 592.987 60.14 593.36 60.3C593.747 60.4467 594.32 60.6267 595.08 60.84C596.227 61.1467 597.08 61.54 597.64 62.02C598.214 62.4867 598.5 63.1733 598.5 64.08C598.5 65.1333 598.074 65.92 597.22 66.44C596.367 66.96 595.32 67.22 594.08 67.22C592.427 67.22 591.054 66.7467 589.96 65.8L590.9 64.7C591.327 65.0467 591.814 65.3267 592.36 65.54C592.907 65.74 593.48 65.84 594.08 65.84Z" fill="black"/>
<line x1="286.344" y1="83.4601" x2="10.3438" y2="148.46" stroke="black" stroke-width="3" stroke-dasharray="6 6"/>
<line x1="830.918" y1="83.8137" x2="914.918" y2="148.814" stroke="black" stroke-width="3" stroke-dasharray="6 6"/>
</svg>
