<svg width="926" height="232" viewBox="0 0 926 232" fill="none" xmlns="http://www.w3.org/2000/svg">
<rect x="692.5" y="148.5" width="224" height="75" fill="white" stroke="black" stroke-width="3"/>
<path d="M761.326 171.12C761.326 172.304 760.958 173.288 760.222 174.072C759.486 174.84 758.51 175.376 757.294 175.68L762.214 183H759.718L755.182 175.92H752.95V183H750.886V166.464H755.11C757.158 166.464 758.702 166.856 759.742 167.64C760.798 168.424 761.326 169.584 761.326 171.12ZM759.118 171.12C759.118 170.064 758.814 169.304 758.206 168.84C757.598 168.376 756.646 168.144 755.35 168.144H752.95V174.288H755.374C756.606 174.288 757.534 174.04 758.158 173.544C758.798 173.032 759.118 172.224 759.118 171.12ZM766.836 177.384C766.884 178.776 767.244 179.824 767.916 180.528C768.604 181.232 769.468 181.584 770.508 181.584C771.132 181.584 771.7 181.496 772.212 181.32C772.74 181.128 773.3 180.84 773.892 180.456L774.828 181.8C774.236 182.264 773.556 182.624 772.788 182.88C772.036 183.136 771.276 183.264 770.508 183.264C768.684 183.264 767.26 182.672 766.236 181.488C765.228 180.288 764.724 178.688 764.724 176.688C764.724 175.424 764.948 174.296 765.396 173.304C765.844 172.296 766.484 171.512 767.316 170.952C768.148 170.376 769.116 170.088 770.22 170.088C771.82 170.088 773.076 170.648 773.988 171.768C774.916 172.872 775.38 174.384 775.38 176.304C775.38 176.672 775.364 177.032 775.332 177.384H766.836ZM770.244 171.744C769.268 171.744 768.476 172.096 767.868 172.8C767.26 173.488 766.916 174.504 766.836 175.848H773.412C773.396 174.52 773.108 173.504 772.548 172.8C771.988 172.096 771.22 171.744 770.244 171.744ZM783.939 181.608C784.899 181.608 785.659 181.424 786.219 181.056C786.779 180.688 787.059 180.2 787.059 179.592C787.059 179.176 786.987 178.84 786.843 178.584C786.699 178.312 786.411 178.072 785.979 177.864C785.547 177.64 784.891 177.416 784.011 177.192C782.539 176.824 781.451 176.384 780.747 175.872C780.043 175.344 779.691 174.568 779.691 173.544C779.691 172.488 780.131 171.648 781.011 171.024C781.891 170.4 783.051 170.088 784.491 170.088C786.251 170.088 787.787 170.552 789.099 171.48L788.187 172.872C787.659 172.504 787.107 172.224 786.531 172.032C785.955 171.824 785.291 171.72 784.539 171.72C782.715 171.72 781.803 172.272 781.803 173.376C781.803 173.76 781.899 174.072 782.091 174.312C782.299 174.552 782.627 174.768 783.075 174.96C783.539 175.136 784.227 175.352 785.139 175.608C786.515 175.976 787.539 176.448 788.211 177.024C788.899 177.584 789.243 178.408 789.243 179.496C789.243 180.76 788.731 181.704 787.707 182.328C786.683 182.952 785.427 183.264 783.939 183.264C781.955 183.264 780.307 182.696 778.995 181.56L780.123 180.24C780.635 180.656 781.219 180.992 781.875 181.248C782.531 181.488 783.219 181.608 783.939 181.608ZM798.833 170.088C800.577 170.088 801.913 170.68 802.841 171.864C803.785 173.032 804.257 174.632 804.257 176.664C804.257 178.648 803.777 180.248 802.817 181.464C801.873 182.664 800.537 183.264 798.809 183.264C797.065 183.264 795.721 182.68 794.777 181.512C793.833 180.328 793.361 178.72 793.361 176.688C793.361 174.688 793.833 173.088 794.777 171.888C795.737 170.688 797.089 170.088 798.833 170.088ZM798.833 171.744C797.729 171.744 796.905 172.152 796.361 172.968C795.817 173.784 795.545 175.024 795.545 176.688C795.545 178.352 795.809 179.592 796.337 180.408C796.881 181.208 797.705 181.608 798.809 181.608C799.913 181.608 800.729 181.208 801.257 180.408C801.801 179.592 802.073 178.344 802.073 176.664C802.073 175 801.801 173.768 801.257 172.968C800.729 172.152 799.921 171.744 798.833 171.744ZM810.416 179.328C810.416 180.144 810.584 180.744 810.92 181.128C811.272 181.496 811.816 181.68 812.552 181.68C813.224 181.68 813.872 181.488 814.496 181.104C815.12 180.72 815.616 180.24 815.984 179.664V170.352H818V183H816.272L816.104 181.296C815.608 181.92 814.992 182.408 814.256 182.76C813.536 183.096 812.8 183.264 812.048 183.264C810.848 183.264 809.936 182.944 809.312 182.304C808.704 181.664 808.4 180.744 808.4 179.544V170.352H810.416V179.328ZM831.335 170.088C831.847 170.088 832.439 170.176 833.111 170.352L832.823 174.648H831.191V171.936H831.071C829.119 171.936 827.735 173.328 826.919 176.112V181.44H829.487V183H822.911V181.44H824.903V171.912H822.911V170.352H826.415L826.799 173.352C827.311 172.264 827.919 171.448 828.623 170.904C829.343 170.36 830.247 170.088 831.335 170.088ZM842.917 181.536C844.021 181.536 845.117 181.168 846.205 180.432L847.165 181.752C846.637 182.216 845.981 182.584 845.197 182.856C844.413 183.128 843.653 183.264 842.917 183.264C841.045 183.264 839.581 182.68 838.525 181.512C837.485 180.328 836.965 178.736 836.965 176.736C836.965 175.472 837.197 174.336 837.661 173.328C838.141 172.32 838.829 171.528 839.725 170.952C840.621 170.376 841.685 170.088 842.917 170.088C844.549 170.088 845.957 170.584 847.141 171.576L846.157 172.896C845.053 172.16 843.965 171.792 842.893 171.792C841.757 171.792 840.845 172.216 840.157 173.064C839.485 173.896 839.149 175.12 839.149 176.736C839.149 178.352 839.485 179.56 840.157 180.36C840.845 181.144 841.765 181.536 842.917 181.536ZM853.18 177.384C853.228 178.776 853.588 179.824 854.26 180.528C854.948 181.232 855.812 181.584 856.852 181.584C857.476 181.584 858.044 181.496 858.556 181.32C859.084 181.128 859.644 180.84 860.236 180.456L861.172 181.8C860.58 182.264 859.9 182.624 859.132 182.88C858.38 183.136 857.62 183.264 856.852 183.264C855.028 183.264 853.604 182.672 852.58 181.488C851.572 180.288 851.068 178.688 851.068 176.688C851.068 175.424 851.292 174.296 851.74 173.304C852.188 172.296 852.828 171.512 853.66 170.952C854.492 170.376 855.46 170.088 856.564 170.088C858.164 170.088 859.42 170.648 860.332 171.768C861.26 172.872 861.724 174.384 861.724 176.304C861.724 176.672 861.708 177.032 861.676 177.384H853.18ZM856.588 171.744C855.612 171.744 854.82 172.096 854.212 172.8C853.604 173.488 853.26 174.504 853.18 175.848H859.756C859.74 174.52 859.452 173.504 858.892 172.8C858.332 172.096 857.564 171.744 856.588 171.744ZM780.143 196.5C780.143 197.153 779.943 197.727 779.543 198.22C779.143 198.713 778.55 199.18 777.763 199.62C778.697 200.007 779.423 200.513 779.943 201.14C780.463 201.767 780.723 202.487 780.723 203.3C780.723 204.047 780.53 204.72 780.143 205.32C779.757 205.92 779.203 206.387 778.483 206.72C777.763 207.053 776.93 207.22 775.983 207.22C775.023 207.22 774.19 207.053 773.483 206.72C772.777 206.373 772.237 205.907 771.863 205.32C771.503 204.733 771.323 204.073 771.323 203.34C771.323 201.807 772.25 200.607 774.103 199.74C773.343 199.38 772.783 198.96 772.423 198.48C772.077 197.987 771.903 197.36 771.903 196.6C771.903 195.813 772.11 195.147 772.523 194.6C772.937 194.053 773.457 193.653 774.083 193.4C774.723 193.133 775.37 193 776.023 193C776.73 193 777.397 193.127 778.023 193.38C778.65 193.633 779.157 194.027 779.543 194.56C779.943 195.08 780.143 195.727 780.143 196.5ZM773.543 196.62C773.543 197.127 773.657 197.533 773.883 197.84C774.123 198.133 774.437 198.373 774.823 198.56C775.21 198.733 775.797 198.947 776.583 199.2C777.263 198.8 777.75 198.413 778.043 198.04C778.35 197.653 778.503 197.167 778.503 196.58C778.503 195.887 778.283 195.34 777.843 194.94C777.417 194.527 776.81 194.32 776.023 194.32C775.237 194.32 774.623 194.52 774.183 194.92C773.757 195.32 773.543 195.887 773.543 196.62ZM778.943 203.34C778.943 202.753 778.797 202.28 778.503 201.92C778.21 201.547 777.823 201.253 777.343 201.04C776.877 200.827 776.177 200.553 775.243 200.22C773.817 200.887 773.103 201.927 773.103 203.34C773.103 204.127 773.35 204.747 773.843 205.2C774.337 205.64 775.05 205.86 775.983 205.86C776.917 205.86 777.643 205.627 778.163 205.16C778.683 204.693 778.943 204.087 778.943 203.34ZM797.688 197.84C798.501 196.773 799.508 196.24 800.708 196.24C802.054 196.24 803.048 196.72 803.688 197.68C804.328 198.64 804.648 199.987 804.648 201.72C804.648 203.373 804.281 204.707 803.548 205.72C802.814 206.72 801.788 207.22 800.468 207.22C799.254 207.22 798.301 206.78 797.608 205.9L797.488 207H796.008V192.22L797.688 192.02V197.84ZM800.088 205.86C800.968 205.86 801.641 205.513 802.108 204.82C802.588 204.127 802.828 203.093 802.828 201.72C802.828 200.36 802.614 199.333 802.188 198.64C801.774 197.947 801.154 197.6 800.328 197.6C799.794 197.6 799.301 197.76 798.848 198.08C798.408 198.4 798.021 198.8 797.688 199.28V204.5C797.968 204.927 798.314 205.26 798.728 205.5C799.141 205.74 799.594 205.86 800.088 205.86ZM812 191.54C812.373 191.54 812.673 191.653 812.9 191.88C813.127 192.093 813.24 192.373 813.24 192.72C813.24 193.067 813.127 193.353 812.9 193.58C812.673 193.793 812.373 193.9 812 193.9C811.64 193.9 811.347 193.793 811.12 193.58C810.907 193.353 810.8 193.067 810.8 192.72C810.8 192.373 810.907 192.093 811.12 191.88C811.347 191.653 811.64 191.54 812 191.54ZM813.34 205.66H816.3V207H808.42V205.66H811.66V197.8H808.52V196.46H813.34V205.66ZM828.372 206.46C828.012 206.7 827.572 206.887 827.052 207.02C826.546 207.153 826.039 207.22 825.532 207.22C824.426 207.22 823.559 206.933 822.932 206.36C822.306 205.773 821.992 205.007 821.992 204.06V197.78H819.572V196.46H821.992V194.08L823.672 193.88V196.46H827.332L827.112 197.78H823.672V204.04C823.672 204.64 823.832 205.087 824.152 205.38C824.472 205.673 824.986 205.82 825.692 205.82C826.412 205.82 827.086 205.653 827.712 205.32L828.372 206.46ZM835.584 205.84C836.384 205.84 837.018 205.687 837.484 205.38C837.951 205.073 838.184 204.667 838.184 204.16C838.184 203.813 838.124 203.533 838.004 203.32C837.884 203.093 837.644 202.893 837.284 202.72C836.924 202.533 836.378 202.347 835.644 202.16C834.418 201.853 833.511 201.487 832.924 201.06C832.338 200.62 832.044 199.973 832.044 199.12C832.044 198.24 832.411 197.54 833.144 197.02C833.878 196.5 834.844 196.24 836.044 196.24C837.511 196.24 838.791 196.627 839.884 197.4L839.124 198.56C838.684 198.253 838.224 198.02 837.744 197.86C837.264 197.687 836.711 197.6 836.084 197.6C834.564 197.6 833.804 198.06 833.804 198.98C833.804 199.3 833.884 199.56 834.044 199.76C834.218 199.96 834.491 200.14 834.864 200.3C835.251 200.447 835.824 200.627 836.584 200.84C837.731 201.147 838.584 201.54 839.144 202.02C839.718 202.487 840.004 203.173 840.004 204.08C840.004 205.133 839.578 205.92 838.724 206.44C837.871 206.96 836.824 207.22 835.584 207.22C833.931 207.22 832.558 206.747 831.464 205.8L832.404 204.7C832.831 205.047 833.318 205.327 833.864 205.54C834.411 205.74 834.984 205.84 835.584 205.84Z" fill="black"/>
<rect x="8.5" y="148.5" width="686" height="75" fill="white" stroke="black" stroke-width="3"/>
<path d="M295.138 183H293.05V168.264H287.89V166.464H300.346L300.13 168.264H295.138V183ZM308.52 164.448C308.968 164.448 309.328 164.584 309.6 164.856C309.872 165.112 310.008 165.448 310.008 165.864C310.008 166.28 309.872 166.624 309.6 166.896C309.328 167.152 308.968 167.28 308.52 167.28C308.088 167.28 307.736 167.152 307.464 166.896C307.208 166.624 307.08 166.28 307.08 165.864C307.08 165.448 307.208 165.112 307.464 164.856C307.736 164.584 308.088 164.448 308.52 164.448ZM310.128 181.392H313.68V183H304.224V181.392H308.112V171.96H304.344V170.352H310.128V181.392ZM326.439 170.088C327.159 170.088 327.743 170.344 328.191 170.856C328.655 171.352 328.887 172.264 328.887 173.592V183H327.039V173.928C327.039 173.048 326.983 172.456 326.871 172.152C326.759 171.832 326.487 171.672 326.055 171.672C325.239 171.672 324.503 172.176 323.847 173.184V183H321.975V173.928C321.975 173.048 321.919 172.456 321.807 172.152C321.695 171.832 321.423 171.672 320.991 171.672C320.175 171.672 319.439 172.176 318.783 173.184V183H316.935V170.352H318.495L318.639 171.84C319.023 171.28 319.423 170.848 319.839 170.544C320.271 170.24 320.783 170.088 321.375 170.088C322.559 170.088 323.319 170.648 323.655 171.768C324.039 171.224 324.447 170.808 324.879 170.52C325.311 170.232 325.831 170.088 326.439 170.088ZM334.11 177.384C334.158 178.776 334.518 179.824 335.19 180.528C335.878 181.232 336.742 181.584 337.782 181.584C338.406 181.584 338.974 181.496 339.486 181.32C340.014 181.128 340.574 180.84 341.166 180.456L342.102 181.8C341.51 182.264 340.83 182.624 340.062 182.88C339.31 183.136 338.55 183.264 337.782 183.264C335.958 183.264 334.534 182.672 333.51 181.488C332.502 180.288 331.998 178.688 331.998 176.688C331.998 175.424 332.222 174.296 332.67 173.304C333.118 172.296 333.758 171.512 334.59 170.952C335.422 170.376 336.39 170.088 337.494 170.088C339.094 170.088 340.35 170.648 341.262 171.768C342.19 172.872 342.654 174.384 342.654 176.304C342.654 176.672 342.638 177.032 342.606 177.384H334.11ZM337.518 171.744C336.542 171.744 335.75 172.096 335.142 172.8C334.534 173.488 334.19 174.504 334.11 175.848H340.686C340.67 174.52 340.382 173.504 339.822 172.8C339.262 172.096 338.494 171.744 337.518 171.744ZM351.212 181.608C352.172 181.608 352.932 181.424 353.492 181.056C354.052 180.688 354.332 180.2 354.332 179.592C354.332 179.176 354.26 178.84 354.116 178.584C353.972 178.312 353.684 178.072 353.252 177.864C352.82 177.64 352.164 177.416 351.284 177.192C349.812 176.824 348.724 176.384 348.02 175.872C347.316 175.344 346.964 174.568 346.964 173.544C346.964 172.488 347.404 171.648 348.284 171.024C349.164 170.4 350.324 170.088 351.764 170.088C353.524 170.088 355.06 170.552 356.372 171.48L355.46 172.872C354.932 172.504 354.38 172.224 353.804 172.032C353.228 171.824 352.564 171.72 351.812 171.72C349.988 171.72 349.076 172.272 349.076 173.376C349.076 173.76 349.172 174.072 349.364 174.312C349.572 174.552 349.9 174.768 350.348 174.96C350.812 175.136 351.5 175.352 352.412 175.608C353.788 175.976 354.812 176.448 355.484 177.024C356.172 177.584 356.516 178.408 356.516 179.496C356.516 180.76 356.004 181.704 354.98 182.328C353.956 182.952 352.7 183.264 351.212 183.264C349.228 183.264 347.58 182.696 346.268 181.56L347.396 180.24C347.908 180.656 348.492 180.992 349.148 181.248C349.804 181.488 350.492 181.608 351.212 181.608ZM371.339 182.352C370.907 182.64 370.379 182.864 369.755 183.024C369.147 183.184 368.539 183.264 367.931 183.264C366.603 183.264 365.563 182.92 364.811 182.232C364.059 181.528 363.683 180.608 363.683 179.472V171.936H360.779V170.352H363.683V167.496L365.699 167.256V170.352H370.091L369.827 171.936H365.699V179.448C365.699 180.168 365.891 180.704 366.275 181.056C366.659 181.408 367.275 181.584 368.123 181.584C368.987 181.584 369.795 181.384 370.547 180.984L371.339 182.352ZM384.745 180.24C384.745 180.736 384.825 181.104 384.985 181.344C385.145 181.568 385.409 181.736 385.777 181.848L385.273 183.288C384.041 183.128 383.273 182.528 382.969 181.488C382.521 182.064 381.953 182.504 381.265 182.808C380.593 183.112 379.841 183.264 379.009 183.264C377.745 183.264 376.745 182.912 376.009 182.208C375.289 181.504 374.929 180.56 374.929 179.376C374.929 178.08 375.433 177.08 376.441 176.376C377.465 175.672 378.929 175.32 380.833 175.32H382.705V174.288C382.705 173.392 382.449 172.752 381.937 172.368C381.425 171.968 380.681 171.768 379.705 171.768C378.745 171.768 377.649 171.984 376.417 172.416L375.865 170.88C377.353 170.352 378.737 170.088 380.017 170.088C381.553 170.088 382.721 170.448 383.521 171.168C384.337 171.888 384.745 172.888 384.745 174.168V180.24ZM379.513 181.752C380.137 181.752 380.729 181.592 381.289 181.272C381.865 180.952 382.337 180.512 382.705 179.952V176.712H380.881C379.537 176.712 378.569 176.936 377.977 177.384C377.385 177.832 377.089 178.488 377.089 179.352C377.089 180.952 377.897 181.752 379.513 181.752ZM398.392 170.088C399.112 170.088 399.696 170.344 400.144 170.856C400.608 171.352 400.84 172.264 400.84 173.592V183H398.992V173.928C398.992 173.048 398.936 172.456 398.824 172.152C398.712 171.832 398.44 171.672 398.008 171.672C397.192 171.672 396.456 172.176 395.8 173.184V183H393.928V173.928C393.928 173.048 393.872 172.456 393.76 172.152C393.648 171.832 393.376 171.672 392.944 171.672C392.128 171.672 391.392 172.176 390.736 173.184V183H388.888V170.352H390.448L390.592 171.84C390.976 171.28 391.376 170.848 391.792 170.544C392.224 170.24 392.736 170.088 393.328 170.088C394.512 170.088 395.272 170.648 395.608 171.768C395.992 171.224 396.4 170.808 396.832 170.52C397.264 170.232 397.784 170.088 398.392 170.088ZM410.119 170.088C413.175 170.088 414.703 172.28 414.703 176.664C414.703 178.664 414.287 180.264 413.455 181.464C412.623 182.664 411.415 183.264 409.831 183.264C408.455 183.264 407.335 182.784 406.471 181.824V187.848L404.455 188.088V170.352H406.183L406.351 172.128C406.815 171.472 407.367 170.968 408.007 170.616C408.663 170.264 409.367 170.088 410.119 170.088ZM409.639 171.72C408.999 171.72 408.407 171.912 407.863 172.296C407.335 172.68 406.871 173.16 406.471 173.736V180C406.807 180.496 407.223 180.888 407.719 181.176C408.231 181.448 408.783 181.584 409.375 181.584C410.431 181.584 411.215 181.184 411.727 180.384C412.255 179.568 412.519 178.328 412.519 176.664C412.519 175 412.287 173.76 411.823 172.944C411.359 172.128 410.631 171.72 409.639 171.72ZM316.315 198.04C317.035 198.04 317.688 198.2 318.275 198.52C318.875 198.84 319.348 199.327 319.695 199.98C320.042 200.62 320.215 201.413 320.215 202.36C320.215 203.347 320.022 204.213 319.635 204.96C319.248 205.693 318.728 206.253 318.075 206.64C317.422 207.027 316.688 207.22 315.875 207.22C314.275 207.22 313.108 206.64 312.375 205.48C311.655 204.32 311.295 202.66 311.295 200.5C311.295 198.98 311.495 197.66 311.895 196.54C312.308 195.407 312.895 194.533 313.655 193.92C314.428 193.307 315.348 193 316.415 193C317.415 193 318.328 193.273 319.155 193.82L318.495 194.94C317.842 194.553 317.142 194.36 316.395 194.36C315.342 194.36 314.515 194.853 313.915 195.84C313.328 196.827 313.022 198.173 312.995 199.88C313.422 199.24 313.908 198.773 314.455 198.48C315.002 198.187 315.622 198.04 316.315 198.04ZM315.875 205.86C316.728 205.86 317.375 205.56 317.815 204.96C318.268 204.347 318.495 203.5 318.495 202.42C318.495 200.407 317.682 199.4 316.055 199.4C315.415 199.4 314.835 199.58 314.315 199.94C313.808 200.287 313.375 200.76 313.015 201.36C313.042 202.92 313.282 204.06 313.735 204.78C314.188 205.5 314.902 205.86 315.875 205.86ZM332.267 203.66H330.487V207H328.867V203.66H323.147V202.42L327.187 193L328.587 193.6L324.927 202.3H328.887L329.027 198.4H330.487V202.3H332.267V203.66ZM349.371 197.84C350.185 196.773 351.191 196.24 352.391 196.24C353.738 196.24 354.731 196.72 355.371 197.68C356.011 198.64 356.331 199.987 356.331 201.72C356.331 203.373 355.965 204.707 355.231 205.72C354.498 206.72 353.471 207.22 352.151 207.22C350.938 207.22 349.985 206.78 349.291 205.9L349.171 207H347.691V192.22L349.371 192.02V197.84ZM351.771 205.86C352.651 205.86 353.325 205.513 353.791 204.82C354.271 204.127 354.511 203.093 354.511 201.72C354.511 200.36 354.298 199.333 353.871 198.64C353.458 197.947 352.838 197.6 352.011 197.6C351.478 197.6 350.985 197.76 350.531 198.08C350.091 198.4 349.705 198.8 349.371 199.28V204.5C349.651 204.927 349.998 205.26 350.411 205.5C350.825 205.74 351.278 205.86 351.771 205.86ZM363.684 191.54C364.057 191.54 364.357 191.653 364.584 191.88C364.81 192.093 364.924 192.373 364.924 192.72C364.924 193.067 364.81 193.353 364.584 193.58C364.357 193.793 364.057 193.9 363.684 193.9C363.324 193.9 363.03 193.793 362.804 193.58C362.59 193.353 362.484 193.067 362.484 192.72C362.484 192.373 362.59 192.093 362.804 191.88C363.03 191.653 363.324 191.54 363.684 191.54ZM365.024 205.66H367.984V207H360.104V205.66H363.344V197.8H360.204V196.46H365.024V205.66ZM380.056 206.46C379.696 206.7 379.256 206.887 378.736 207.02C378.229 207.153 377.722 207.22 377.216 207.22C376.109 207.22 375.242 206.933 374.616 206.36C373.989 205.773 373.676 205.007 373.676 204.06V197.78H371.256V196.46H373.676V194.08L375.356 193.88V196.46H379.016L378.796 197.78H375.356V204.04C375.356 204.64 375.516 205.087 375.836 205.38C376.156 205.673 376.669 205.82 377.376 205.82C378.096 205.82 378.769 205.653 379.396 205.32L380.056 206.46ZM387.268 205.84C388.068 205.84 388.701 205.687 389.168 205.38C389.635 205.073 389.868 204.667 389.868 204.16C389.868 203.813 389.808 203.533 389.688 203.32C389.568 203.093 389.328 202.893 388.968 202.72C388.608 202.533 388.061 202.347 387.328 202.16C386.101 201.853 385.195 201.487 384.608 201.06C384.021 200.62 383.728 199.973 383.728 199.12C383.728 198.24 384.095 197.54 384.828 197.02C385.561 196.5 386.528 196.24 387.728 196.24C389.195 196.24 390.475 196.627 391.568 197.4L390.808 198.56C390.368 198.253 389.908 198.02 389.428 197.86C388.948 197.687 388.395 197.6 387.768 197.6C386.248 197.6 385.488 198.06 385.488 198.98C385.488 199.3 385.568 199.56 385.728 199.76C385.901 199.96 386.175 200.14 386.548 200.3C386.935 200.447 387.508 200.627 388.268 200.84C389.415 201.147 390.268 201.54 390.828 202.02C391.401 202.487 391.688 203.173 391.688 204.08C391.688 205.133 391.261 205.92 390.408 206.44C389.555 206.96 388.508 207.22 387.268 207.22C385.615 207.22 384.241 206.747 383.148 205.8L384.088 204.7C384.515 205.047 385.001 205.327 385.548 205.54C386.095 205.74 386.668 205.84 387.268 205.84Z" fill="black"/>
<rect x="91.5" y="8.5" width="198.445" height="75" fill="white" stroke="black" stroke-width="3"/>
<rect x="290.488" y="8.5" width="544.012" height="75" fill="white" stroke="black" stroke-width="3"/>
<path d="M157.642 35.152H151.402V43H149.314V26.464H151.402V33.448H157.642V26.464H159.73V43H157.642V35.152ZM165.721 37.384C165.769 38.776 166.129 39.824 166.801 40.528C167.489 41.232 168.353 41.584 169.393 41.584C170.017 41.584 170.585 41.496 171.097 41.32C171.625 41.128 172.185 40.84 172.777 40.456L173.713 41.8C173.121 42.264 172.441 42.624 171.673 42.88C170.921 43.136 170.161 43.264 169.393 43.264C167.569 43.264 166.145 42.672 165.121 41.488C164.113 40.288 163.609 38.688 163.609 36.688C163.609 35.424 163.833 34.296 164.281 33.304C164.729 32.296 165.369 31.512 166.201 30.952C167.033 30.376 168.001 30.088 169.105 30.088C170.705 30.088 171.961 30.648 172.873 31.768C173.801 32.872 174.265 34.384 174.265 36.304C174.265 36.672 174.249 37.032 174.217 37.384H165.721ZM169.129 31.744C168.153 31.744 167.361 32.096 166.753 32.8C166.145 33.488 165.801 34.504 165.721 35.848H172.297C172.281 34.52 171.993 33.504 171.433 32.8C170.873 32.096 170.105 31.744 169.129 31.744ZM187.575 40.24C187.575 40.736 187.655 41.104 187.815 41.344C187.975 41.568 188.239 41.736 188.607 41.848L188.103 43.288C186.871 43.128 186.103 42.528 185.799 41.488C185.351 42.064 184.783 42.504 184.095 42.808C183.423 43.112 182.671 43.264 181.839 43.264C180.575 43.264 179.575 42.912 178.839 42.208C178.119 41.504 177.759 40.56 177.759 39.376C177.759 38.08 178.263 37.08 179.271 36.376C180.295 35.672 181.759 35.32 183.663 35.32H185.535V34.288C185.535 33.392 185.279 32.752 184.767 32.368C184.255 31.968 183.511 31.768 182.535 31.768C181.575 31.768 180.479 31.984 179.247 32.416L178.695 30.88C180.183 30.352 181.567 30.088 182.847 30.088C184.383 30.088 185.551 30.448 186.351 31.168C187.167 31.888 187.575 32.888 187.575 34.168V40.24ZM182.343 41.752C182.967 41.752 183.559 41.592 184.119 41.272C184.695 40.952 185.167 40.512 185.535 39.952V36.712H183.711C182.367 36.712 181.399 36.936 180.807 37.384C180.215 37.832 179.919 38.488 179.919 39.352C179.919 40.952 180.727 41.752 182.343 41.752ZM202.494 25.264V43H200.718L200.526 41.344C200.062 41.984 199.526 42.464 198.918 42.784C198.31 43.104 197.654 43.264 196.95 43.264C195.35 43.264 194.142 42.68 193.326 41.512C192.526 40.344 192.126 38.736 192.126 36.688C192.126 35.424 192.326 34.296 192.726 33.304C193.126 32.296 193.694 31.512 194.43 30.952C195.182 30.376 196.062 30.088 197.07 30.088C198.462 30.088 199.598 30.592 200.478 31.6V25.024L202.494 25.264ZM197.598 31.72C196.542 31.72 195.726 32.136 195.15 32.968C194.59 33.8 194.31 35.04 194.31 36.688C194.31 38.32 194.566 39.56 195.078 40.408C195.606 41.24 196.366 41.656 197.358 41.656C198.558 41.656 199.598 40.984 200.478 39.64V33.352C200.126 32.824 199.702 32.424 199.206 32.152C198.71 31.864 198.174 31.72 197.598 31.72ZM208.893 37.384C208.941 38.776 209.301 39.824 209.973 40.528C210.661 41.232 211.525 41.584 212.565 41.584C213.189 41.584 213.757 41.496 214.269 41.32C214.797 41.128 215.357 40.84 215.949 40.456L216.885 41.8C216.293 42.264 215.613 42.624 214.845 42.88C214.093 43.136 213.333 43.264 212.565 43.264C210.741 43.264 209.317 42.672 208.293 41.488C207.285 40.288 206.781 38.688 206.781 36.688C206.781 35.424 207.005 34.296 207.453 33.304C207.901 32.296 208.541 31.512 209.373 30.952C210.205 30.376 211.173 30.088 212.277 30.088C213.877 30.088 215.133 30.648 216.045 31.768C216.973 32.872 217.437 34.384 217.437 36.304C217.437 36.672 217.421 37.032 217.389 37.384H208.893ZM212.301 31.744C211.325 31.744 210.533 32.096 209.925 32.8C209.317 33.488 208.973 34.504 208.893 35.848H215.469C215.453 34.52 215.165 33.504 214.605 32.8C214.045 32.096 213.277 31.744 212.301 31.744ZM230.219 30.088C230.731 30.088 231.323 30.176 231.995 30.352L231.707 34.648H230.075V31.936H229.955C228.003 31.936 226.619 33.328 225.803 36.112V41.44H228.371V43H221.795V41.44H223.787V31.912H221.795V30.352H225.299L225.683 33.352C226.195 32.264 226.803 31.448 227.507 30.904C228.227 30.36 229.131 30.088 230.219 30.088ZM151.561 66.72L156.921 54.62H150.461V53.22H158.621V54.52L153.121 67.18L151.561 66.72ZM165.893 53C166.733 53 167.467 53.1667 168.093 53.5C168.733 53.8333 169.22 54.2933 169.553 54.88C169.887 55.4533 170.053 56.1067 170.053 56.84C170.053 57.6933 169.853 58.52 169.453 59.32C169.067 60.12 168.44 61 167.573 61.96C166.707 62.9067 165.48 64.1067 163.893 65.56H170.373L170.173 67H161.973V65.64C163.773 63.92 165.107 62.5733 165.973 61.6C166.853 60.6267 167.46 59.7933 167.793 59.1C168.127 58.4067 168.293 57.6733 168.293 56.9C168.293 56.1267 168.073 55.52 167.633 55.08C167.193 54.64 166.587 54.42 165.813 54.42C165.16 54.42 164.613 54.5333 164.173 54.76C163.747 54.9733 163.307 55.3467 162.853 55.88L161.693 54.98C162.24 54.3 162.847 53.8 163.513 53.48C164.193 53.16 164.987 53 165.893 53ZM188.178 57.84C188.991 56.7733 189.998 56.24 191.198 56.24C192.545 56.24 193.538 56.72 194.178 57.68C194.818 58.64 195.138 59.9867 195.138 61.72C195.138 63.3733 194.771 64.7067 194.038 65.72C193.305 66.72 192.278 67.22 190.958 67.22C189.745 67.22 188.791 66.78 188.098 65.9L187.978 67H186.498V52.22L188.178 52.02V57.84ZM190.578 65.86C191.458 65.86 192.131 65.5133 192.598 64.82C193.078 64.1267 193.318 63.0933 193.318 61.72C193.318 60.36 193.105 59.3333 192.678 58.64C192.265 57.9467 191.645 57.6 190.818 57.6C190.285 57.6 189.791 57.76 189.338 58.08C188.898 58.4 188.511 58.8 188.178 59.28V64.5C188.458 64.9267 188.805 65.26 189.218 65.5C189.631 65.74 190.085 65.86 190.578 65.86ZM202.49 51.54C202.863 51.54 203.163 51.6533 203.39 51.88C203.617 52.0933 203.73 52.3733 203.73 52.72C203.73 53.0667 203.617 53.3533 203.39 53.58C203.163 53.7933 202.863 53.9 202.49 53.9C202.13 53.9 201.837 53.7933 201.61 53.58C201.397 53.3533 201.29 53.0667 201.29 52.72C201.29 52.3733 201.397 52.0933 201.61 51.88C201.837 51.6533 202.13 51.54 202.49 51.54ZM203.83 65.66H206.79V67H198.91V65.66H202.15V57.8H199.01V56.46H203.83V65.66ZM218.862 66.46C218.502 66.7 218.062 66.8867 217.542 67.02C217.036 67.1533 216.529 67.22 216.022 67.22C214.916 67.22 214.049 66.9333 213.422 66.36C212.796 65.7733 212.482 65.0067 212.482 64.06V57.78H210.062V56.46H212.482V54.08L214.162 53.88V56.46H217.822L217.602 57.78H214.162V64.04C214.162 64.64 214.322 65.0867 214.642 65.38C214.962 65.6733 215.476 65.82 216.182 65.82C216.902 65.82 217.576 65.6533 218.202 65.32L218.862 66.46ZM226.074 65.84C226.874 65.84 227.508 65.6867 227.974 65.38C228.441 65.0733 228.674 64.6667 228.674 64.16C228.674 63.8133 228.614 63.5333 228.494 63.32C228.374 63.0933 228.134 62.8933 227.774 62.72C227.414 62.5333 226.868 62.3467 226.134 62.16C224.908 61.8533 224.001 61.4867 223.414 61.06C222.828 60.62 222.534 59.9733 222.534 59.12C222.534 58.24 222.901 57.54 223.634 57.02C224.368 56.5 225.334 56.24 226.534 56.24C228.001 56.24 229.281 56.6267 230.374 57.4L229.614 58.56C229.174 58.2533 228.714 58.02 228.234 57.86C227.754 57.6867 227.201 57.6 226.574 57.6C225.054 57.6 224.294 58.06 224.294 58.98C224.294 59.3 224.374 59.56 224.534 59.76C224.708 59.96 224.981 60.14 225.354 60.3C225.741 60.4467 226.314 60.6267 227.074 60.84C228.221 61.1467 229.074 61.54 229.634 62.02C230.208 62.4867 230.494 63.1733 230.494 64.08C230.494 65.1333 230.068 65.92 229.214 66.44C228.361 66.96 227.314 67.22 226.074 67.22C224.421 67.22 223.048 66.7467 221.954 65.8L222.894 64.7C223.321 65.0467 223.808 65.3267 224.354 65.54C224.901 65.74 225.474 65.84 226.074 65.84Z" fill="black"/>
<path d="M525.904 43.552C525.904 45.392 525.336 46.736 524.2 47.584C523.064 48.432 521.504 48.856 519.52 48.856H517.384V55H515.32V38.464H519.52C521.552 38.464 523.12 38.888 524.224 39.736C525.344 40.584 525.904 41.856 525.904 43.552ZM523.672 43.576C523.672 42.376 523.32 41.504 522.616 40.96C521.928 40.4 520.984 40.12 519.784 40.12H517.384V47.2H519.712C520.96 47.2 521.928 46.928 522.616 46.384C523.32 45.84 523.672 44.904 523.672 43.576ZM538.399 52.24C538.399 52.736 538.479 53.104 538.639 53.344C538.799 53.568 539.063 53.736 539.431 53.848L538.927 55.288C537.695 55.128 536.927 54.528 536.623 53.488C536.175 54.064 535.607 54.504 534.919 54.808C534.247 55.112 533.495 55.264 532.663 55.264C531.399 55.264 530.399 54.912 529.663 54.208C528.943 53.504 528.583 52.56 528.583 51.376C528.583 50.08 529.087 49.08 530.095 48.376C531.119 47.672 532.583 47.32 534.487 47.32H536.359V46.288C536.359 45.392 536.103 44.752 535.591 44.368C535.079 43.968 534.335 43.768 533.359 43.768C532.399 43.768 531.303 43.984 530.071 44.416L529.519 42.88C531.007 42.352 532.391 42.088 533.671 42.088C535.207 42.088 536.375 42.448 537.175 43.168C537.991 43.888 538.399 44.888 538.399 46.168V52.24ZM533.167 53.752C533.791 53.752 534.383 53.592 534.943 53.272C535.519 52.952 535.991 52.512 536.359 51.952V48.712H534.535C533.191 48.712 532.223 48.936 531.631 49.384C531.039 49.832 530.743 50.488 530.743 51.352C530.743 52.952 531.551 53.752 533.167 53.752ZM549.813 55.072C549.317 56.528 548.637 57.688 547.773 58.552C546.909 59.416 545.701 59.928 544.149 60.088L543.861 58.48C544.709 58.336 545.381 58.112 545.877 57.808C546.389 57.52 546.789 57.152 547.077 56.704C547.365 56.272 547.629 55.704 547.869 55H547.197L542.805 42.352H544.941L548.565 53.464L552.141 42.352H554.229L549.813 55.072ZM563.052 51.88C563.052 53.016 563.748 53.584 565.14 53.584C565.796 53.584 566.5 53.44 567.252 53.152L567.78 54.616C566.98 55.048 565.98 55.264 564.78 55.264C563.644 55.264 562.732 54.952 562.044 54.328C561.372 53.704 561.036 52.856 561.036 51.784V38.872H557.148V37.264H563.052V51.88ZM577.323 42.088C579.067 42.088 580.403 42.68 581.331 43.864C582.275 45.032 582.747 46.632 582.747 48.664C582.747 50.648 582.267 52.248 581.307 53.464C580.363 54.664 579.027 55.264 577.299 55.264C575.555 55.264 574.211 54.68 573.267 53.512C572.323 52.328 571.851 50.72 571.851 48.688C571.851 46.688 572.323 45.088 573.267 43.888C574.227 42.688 575.579 42.088 577.323 42.088ZM577.323 43.744C576.219 43.744 575.395 44.152 574.851 44.968C574.307 45.784 574.035 47.024 574.035 48.688C574.035 50.352 574.299 51.592 574.827 52.408C575.371 53.208 576.195 53.608 577.299 53.608C578.403 53.608 579.219 53.208 579.747 52.408C580.291 51.592 580.563 50.344 580.563 48.664C580.563 47 580.291 45.768 579.747 44.968C579.219 44.152 578.411 43.744 577.323 43.744ZM595.961 52.24C595.961 52.736 596.041 53.104 596.201 53.344C596.361 53.568 596.625 53.736 596.993 53.848L596.489 55.288C595.257 55.128 594.489 54.528 594.185 53.488C593.737 54.064 593.169 54.504 592.481 54.808C591.809 55.112 591.057 55.264 590.225 55.264C588.961 55.264 587.961 54.912 587.225 54.208C586.505 53.504 586.145 52.56 586.145 51.376C586.145 50.08 586.649 49.08 587.657 48.376C588.681 47.672 590.145 47.32 592.049 47.32H593.921V46.288C593.921 45.392 593.665 44.752 593.153 44.368C592.641 43.968 591.897 43.768 590.921 43.768C589.961 43.768 588.865 43.984 587.633 44.416L587.081 42.88C588.569 42.352 589.953 42.088 591.233 42.088C592.769 42.088 593.937 42.448 594.737 43.168C595.553 43.888 595.961 44.888 595.961 46.168V52.24ZM590.729 53.752C591.353 53.752 591.945 53.592 592.505 53.272C593.081 52.952 593.553 52.512 593.921 51.952V48.712H592.097C590.753 48.712 589.785 48.936 589.193 49.384C588.601 49.832 588.305 50.488 588.305 51.352C588.305 52.952 589.113 53.752 590.729 53.752ZM610.88 37.264V55H609.104L608.912 53.344C608.448 53.984 607.912 54.464 607.304 54.784C606.696 55.104 606.04 55.264 605.336 55.264C603.736 55.264 602.528 54.68 601.712 53.512C600.912 52.344 600.512 50.736 600.512 48.688C600.512 47.424 600.712 46.296 601.112 45.304C601.512 44.296 602.08 43.512 602.816 42.952C603.568 42.376 604.448 42.088 605.456 42.088C606.848 42.088 607.984 42.592 608.864 43.6V37.024L610.88 37.264ZM605.984 43.72C604.928 43.72 604.112 44.136 603.536 44.968C602.976 45.8 602.696 47.04 602.696 48.688C602.696 50.32 602.952 51.56 603.464 52.408C603.992 53.24 604.752 53.656 605.744 53.656C606.944 53.656 607.984 52.984 608.864 51.64V45.352C608.512 44.824 608.088 44.424 607.592 44.152C607.096 43.864 606.56 43.72 605.984 43.72Z" fill="black"/>
<line x1="91.918" y1="83.1863" x2="7.91797" y2="148.186" stroke="black" stroke-width="3" stroke-dasharray="6 6"/>
<line x1="289.154" y1="83.508" x2="917.154" y2="148.508" stroke="black" stroke-width="3" stroke-dasharray="6 6"/>
</svg>
