<svg width="1779" height="434" viewBox="0 0 1779 434" fill="none" xmlns="http://www.w3.org/2000/svg">
<g clip-path="url(#clip0_112_153)">
<rect width="1779" height="434" fill="white"/>
<line x1="277" y1="367" x2="943" y2="367" stroke="black" stroke-width="6"/>
<path d="M14.592 382.48C12.48 382.48 10.64 382.08 9.072 381.28C7.536 380.48 6.336 379.328 5.472 377.824C4.64 376.288 4.224 374.48 4.224 372.4V356.56C4.224 354.448 4.64 352.64 5.472 351.136C6.336 349.632 7.536 348.48 9.072 347.68C10.64 346.88 12.48 346.48 14.592 346.48C16.704 346.48 18.528 346.896 20.064 347.728C21.6 348.528 22.784 349.68 23.616 351.184C24.448 352.688 24.864 354.48 24.864 356.56H20.544C20.544 354.576 20.016 353.056 18.96 352C17.936 350.912 16.48 350.368 14.592 350.368C12.704 350.368 11.216 350.896 10.128 351.952C9.072 353.008 8.544 354.528 8.544 356.512V372.4C8.544 374.384 9.072 375.92 10.128 377.008C11.216 378.064 12.704 378.592 14.592 378.592C16.48 378.592 17.936 378.064 18.96 377.008C20.016 375.92 20.544 374.384 20.544 372.4H24.864C24.864 374.448 24.448 376.24 23.616 377.776C22.784 379.28 21.6 380.448 20.064 381.28C18.528 382.08 16.704 382.48 14.592 382.48ZM46.7813 382C45.2453 382 43.9013 381.696 42.7493 381.088C41.5973 380.48 40.7013 379.616 40.0613 378.496C39.4213 377.376 39.1013 376.064 39.1013 374.56V350.896H30.2213V346.96H43.4213V374.56C43.4213 375.648 43.7253 376.512 44.3333 377.152C44.9413 377.76 45.7573 378.064 46.7813 378.064H55.1813V382H46.7813ZM61.6425 382V378.064H71.0025V359.536H62.8425V355.6H75.3225V378.064H84.2025V382H61.6425ZM72.6825 350.848C71.6265 350.848 70.7945 350.576 70.1865 350.032C69.5785 349.488 69.2745 348.752 69.2745 347.824C69.2745 346.864 69.5785 346.112 70.1865 345.568C70.7945 344.992 71.6265 344.704 72.6825 344.704C73.7385 344.704 74.5705 344.992 75.1785 345.568C75.7865 346.112 76.0905 346.864 76.0905 347.824C76.0905 348.752 75.7865 349.488 75.1785 350.032C74.5705 350.576 73.7385 350.848 72.6825 350.848ZM100.744 382.48C98.6638 382.48 96.8398 382.064 95.2718 381.232C93.7358 380.4 92.5358 379.232 91.6718 377.728C90.8398 376.192 90.4238 374.416 90.4238 372.4V365.2C90.4238 363.152 90.8398 361.376 91.6718 359.872C92.5358 358.368 93.7358 357.2 95.2718 356.368C96.8398 355.536 98.6638 355.12 100.744 355.12C102.824 355.12 104.632 355.536 106.168 356.368C107.736 357.2 108.936 358.368 109.768 359.872C110.632 361.376 111.064 363.152 111.064 365.2V369.856H94.6478V372.4C94.6478 374.48 95.1758 376.08 96.2318 377.2C97.2878 378.288 98.7918 378.832 100.744 378.832C102.408 378.832 103.752 378.544 104.776 377.968C105.8 377.36 106.424 376.464 106.648 375.28H110.968C110.68 377.488 109.592 379.248 107.704 380.56C105.848 381.84 103.528 382.48 100.744 382.48ZM106.84 366.976V365.2C106.84 363.12 106.312 361.52 105.256 360.4C104.232 359.28 102.728 358.72 100.744 358.72C98.7918 358.72 97.2878 359.28 96.2318 360.4C95.1758 361.52 94.6478 363.12 94.6478 365.2V366.592H107.176L106.84 366.976ZM119.541 382V355.6H123.861V360.64H124.773L123.861 361.648C123.861 359.568 124.485 357.968 125.733 356.848C126.981 355.696 128.709 355.12 130.917 355.12C133.573 355.12 135.685 355.936 137.253 357.568C138.821 359.2 139.605 361.424 139.605 364.24V382H135.285V364.72C135.285 362.832 134.773 361.392 133.749 360.4C132.757 359.376 131.397 358.864 129.669 358.864C127.877 358.864 126.453 359.408 125.397 360.496C124.373 361.584 123.861 363.152 123.861 365.2V382H119.541ZM161.186 382C158.914 382 157.138 381.392 155.858 380.176C154.61 378.96 153.986 377.248 153.986 375.04V359.536H146.546V355.6H153.986V348.16H158.306V355.6H168.866V359.536H158.306V375.04C158.306 377.056 159.266 378.064 161.186 378.064H168.386V382H161.186Z" fill="black"/>
<path d="M14.592 82.48C12.288 82.48 10.304 82.096 8.64 81.328C7.008 80.56 5.744 79.456 4.848 78.016C3.952 76.576 3.488 74.864 3.456 72.88H7.776C7.776 74.64 8.368 76.032 9.552 77.056C10.768 78.08 12.448 78.592 14.592 78.592C16.608 78.592 18.176 78.096 19.296 77.104C20.448 76.112 21.024 74.736 21.024 72.976C21.024 71.568 20.64 70.336 19.872 69.28C19.136 68.224 18.064 67.488 16.656 67.072L11.904 65.584C9.504 64.848 7.648 63.616 6.336 61.888C5.056 60.16 4.416 58.128 4.416 55.792C4.416 53.904 4.832 52.272 5.664 50.896C6.528 49.488 7.728 48.4 9.264 47.632C10.8 46.832 12.608 46.432 14.688 46.432C17.76 46.432 20.224 47.296 22.08 49.024C23.936 50.72 24.88 52.992 24.912 55.84H20.592C20.592 54.112 20.064 52.768 19.008 51.808C17.984 50.816 16.528 50.32 14.64 50.32C12.784 50.32 11.328 50.768 10.272 51.664C9.248 52.56 8.736 53.808 8.736 55.408C8.736 56.848 9.12 58.096 9.888 59.152C10.656 60.208 11.76 60.96 13.2 61.408L18 62.944C20.336 63.68 22.144 64.928 23.424 66.688C24.704 68.448 25.344 70.512 25.344 72.88C25.344 74.8 24.896 76.48 24 77.92C23.104 79.36 21.84 80.48 20.208 81.28C18.608 82.08 16.736 82.48 14.592 82.48ZM43.1813 82.48C41.1013 82.48 39.2773 82.064 37.7093 81.232C36.1733 80.4 34.9733 79.232 34.1093 77.728C33.2773 76.192 32.8613 74.416 32.8613 72.4V65.2C32.8613 63.152 33.2773 61.376 34.1093 59.872C34.9733 58.368 36.1733 57.2 37.7093 56.368C39.2773 55.536 41.1013 55.12 43.1813 55.12C45.2613 55.12 47.0693 55.536 48.6053 56.368C50.1733 57.2 51.3733 58.368 52.2053 59.872C53.0693 61.376 53.5013 63.152 53.5013 65.2V69.856H37.0853V72.4C37.0853 74.48 37.6133 76.08 38.6693 77.2C39.7253 78.288 41.2293 78.832 43.1813 78.832C44.8453 78.832 46.1893 78.544 47.2133 77.968C48.2373 77.36 48.8613 76.464 49.0853 75.28H53.4053C53.1173 77.488 52.0293 79.248 50.1413 80.56C48.2853 81.84 45.9653 82.48 43.1813 82.48ZM49.2773 66.976V65.2C49.2773 63.12 48.7493 61.52 47.6933 60.4C46.6693 59.28 45.1653 58.72 43.1813 58.72C41.2293 58.72 39.7253 59.28 38.6693 60.4C37.6133 61.52 37.0853 63.12 37.0853 65.2V66.592H49.6133L49.2773 66.976ZM62.8905 82V55.6H67.1145V60.64H68.1225L66.7305 63.76C66.7305 60.912 67.3385 58.768 68.5545 57.328C69.8025 55.856 71.6425 55.12 74.0745 55.12C76.8585 55.12 79.0665 56 80.6985 57.76C82.3625 59.488 83.1945 61.84 83.1945 64.816V66.4H78.8745V65.2C78.8745 63.12 78.3625 61.536 77.3385 60.448C76.3465 59.328 74.9225 58.768 73.0665 58.768C71.2425 58.768 69.8025 59.328 68.7465 60.448C67.7225 61.568 67.2105 63.152 67.2105 65.2V82H62.8905ZM97.8158 82L88.9838 55.6H93.3997L99.2558 73.36C99.6078 74.416 99.9278 75.44 100.216 76.432C100.504 77.392 100.712 78.144 100.84 78.688C101 78.144 101.224 77.392 101.512 76.432C101.8 75.44 102.104 74.416 102.424 73.36L108.136 55.6H112.504L103.672 82H97.8158ZM129.525 82.48C127.445 82.48 125.621 82.064 124.053 81.232C122.517 80.4 121.317 79.232 120.453 77.728C119.621 76.192 119.205 74.416 119.205 72.4V65.2C119.205 63.152 119.621 61.376 120.453 59.872C121.317 58.368 122.517 57.2 124.053 56.368C125.621 55.536 127.445 55.12 129.525 55.12C131.605 55.12 133.413 55.536 134.949 56.368C136.517 57.2 137.717 58.368 138.549 59.872C139.413 61.376 139.845 63.152 139.845 65.2V69.856H123.429V72.4C123.429 74.48 123.957 76.08 125.013 77.2C126.069 78.288 127.573 78.832 129.525 78.832C131.189 78.832 132.533 78.544 133.557 77.968C134.581 77.36 135.205 76.464 135.429 75.28H139.749C139.461 77.488 138.373 79.248 136.485 80.56C134.629 81.84 132.309 82.48 129.525 82.48ZM135.621 66.976V65.2C135.621 63.12 135.093 61.52 134.037 60.4C133.013 59.28 131.509 58.72 129.525 58.72C127.573 58.72 126.069 59.28 125.013 60.4C123.957 61.52 123.429 63.12 123.429 65.2V66.592H135.957L135.621 66.976ZM149.234 82V55.6H153.458V60.64H154.466L153.074 63.76C153.074 60.912 153.682 58.768 154.898 57.328C156.146 55.856 157.986 55.12 160.418 55.12C163.202 55.12 165.41 56 167.042 57.76C168.706 59.488 169.538 61.84 169.538 64.816V66.4H165.218V65.2C165.218 63.12 164.706 61.536 163.682 60.448C162.69 59.328 161.266 58.768 159.41 58.768C157.586 58.768 156.146 59.328 155.09 60.448C154.066 61.568 153.554 63.152 153.554 65.2V82H149.234Z" fill="black"/>
<path d="M1778 67.0001L1758 55.4531L1758 78.5471L1778 67.0001ZM208 67L208 69L218.064 69L218.064 67L218.064 65L208 65L208 67ZM238.192 67L238.192 69L258.321 69L258.321 67L258.321 65L238.192 65L238.192 67ZM278.449 67L278.449 69L298.577 69L298.577 67L298.577 65L278.449 65L278.449 67ZM318.705 67L318.705 69L338.833 69L338.833 67L338.833 65L318.705 65L318.705 67ZM358.962 67L358.962 69L379.09 69L379.09 67L379.09 65L358.962 65L358.962 67ZM399.218 67L399.218 69L419.346 69L419.346 67L419.346 65L399.218 65L399.218 67ZM439.474 67L439.474 69L459.603 69L459.603 67L459.603 65L439.474 65L439.474 67ZM479.731 67L479.731 69L499.859 69L499.859 67L499.859 65L479.731 65L479.731 67ZM519.987 67L519.987 69L540.115 69L540.115 67L540.115 65L519.987 65L519.987 67ZM560.244 67L560.244 69L580.372 69L580.372 67L580.372 65L560.244 65L560.244 67ZM600.5 67L600.5 69L620.628 69L620.628 67L620.628 65L600.5 65L600.5 67ZM640.756 67L640.756 69L660.885 69L660.885 67L660.885 65L640.756 65L640.756 67ZM681.013 67L681.013 69L701.141 69L701.141 67L701.141 65L681.013 65L681.013 67ZM721.269 67L721.269 69L741.397 69L741.397 67L741.397 65L721.269 65L721.269 67ZM761.526 67L761.526 69L781.654 69.0001L781.654 67.0001L781.654 65.0001L761.526 65L761.526 67ZM801.782 67.0001L801.782 69.0001L821.91 69.0001L821.91 67.0001L821.91 65.0001L801.782 65.0001L801.782 67.0001ZM842.038 67.0001L842.038 69.0001L862.167 69.0001L862.167 67.0001L862.167 65.0001L842.038 65.0001L842.038 67.0001ZM882.295 67.0001L882.295 69.0001L902.423 69.0001L902.423 67.0001L902.423 65.0001L882.295 65.0001L882.295 67.0001ZM922.551 67.0001L922.551 69.0001L942.679 69.0001L942.679 67.0001L942.679 65.0001L922.551 65.0001L922.551 67.0001ZM962.807 67.0001L962.807 69.0001L982.936 69.0001L982.936 67.0001L982.936 65.0001L962.807 65.0001L962.807 67.0001ZM1003.06 67.0001L1003.06 69.0001L1023.19 69.0001L1023.19 67.0001L1023.19 65.0001L1003.06 65.0001L1003.06 67.0001ZM1043.32 67.0001L1043.32 69.0001L1063.45 69.0001L1063.45 67.0001L1063.45 65.0001L1043.32 65.0001L1043.32 67.0001ZM1083.58 67.0001L1083.58 69.0001L1103.7 69.0001L1103.7 67.0001L1103.7 65.0001L1083.58 65.0001L1083.58 67.0001ZM1123.83 67.0001L1123.83 69.0001L1143.96 69.0001L1143.96 67.0001L1143.96 65.0001L1123.83 65.0001L1123.83 67.0001ZM1164.09 67.0001L1164.09 69.0001L1184.22 69.0001L1184.22 67.0001L1184.22 65.0001L1164.09 65.0001L1164.09 67.0001ZM1204.35 67.0001L1204.35 69.0001L1224.47 69.0001L1224.47 67.0001L1224.47 65.0001L1204.35 65.0001L1204.35 67.0001ZM1244.6 67.0001L1244.6 69.0001L1264.73 69.0001L1264.73 67.0001L1264.73 65.0001L1244.6 65.0001L1244.6 67.0001ZM1284.86 67.0001L1284.86 69.0001L1304.99 69.0001L1304.99 67.0001L1304.99 65.0001L1284.86 65.0001L1284.86 67.0001ZM1325.11 67.0001L1325.11 69.0001L1345.24 69.0001L1345.24 67.0001L1345.24 65.0001L1325.11 65.0001L1325.11 67.0001ZM1365.37 67.0001L1365.37 69.0001L1385.5 69.0001L1385.5 67.0001L1385.5 65.0001L1365.37 65.0001L1365.37 67.0001ZM1405.63 67.0001L1405.63 69.0001L1425.76 69.0001L1425.76 67.0001L1425.76 65.0001L1405.63 65.0001L1405.63 67.0001ZM1445.88 67.0001L1445.88 69.0001L1466.01 69.0001L1466.01 67.0001L1466.01 65.0001L1445.88 65.0001L1445.88 67.0001ZM1486.14 67.0001L1486.14 69.0001L1506.27 69.0001L1506.27 67.0001L1506.27 65.0001L1486.14 65.0001L1486.14 67.0001ZM1526.4 67.0001L1526.4 69.0001L1546.52 69.0001L1546.52 67.0001L1546.52 65.0001L1526.4 65.0001L1526.4 67.0001ZM1566.65 67.0001L1566.65 69.0001L1586.78 69.0001L1586.78 67.0001L1586.78 65.0001L1566.65 65.0001L1566.65 67.0001ZM1606.91 67.0001L1606.91 69.0001L1627.04 69.0001L1627.04 67.0001L1627.04 65.0001L1606.91 65.0001L1606.91 67.0001ZM1647.17 67.0001L1647.17 69.0001L1667.29 69.0001L1667.29 67.0001L1667.29 65.0001L1647.17 65.0001L1647.17 67.0001ZM1687.42 67.0001L1687.42 69.0001L1707.55 69.0001L1707.55 67.0001L1707.55 65.0001L1687.42 65.0001L1687.42 67.0001ZM1727.68 67.0001L1727.68 69.0001L1747.81 69.0001L1747.81 67.0001L1747.81 65.0001L1727.68 65.0001L1727.68 67.0001Z" fill="black"/>
<path d="M1778 366L1758 354.453L1758 377.547L1778 366ZM208 366L208 368L218.064 368L218.064 366L218.064 364L208 364L208 366ZM238.192 366L238.192 368L258.321 368L258.321 366L258.321 364L238.192 364L238.192 366ZM278.449 366L278.449 368L298.577 368L298.577 366L298.577 364L278.449 364L278.449 366ZM318.705 366L318.705 368L338.833 368L338.833 366L338.833 364L318.705 364L318.705 366ZM358.962 366L358.962 368L379.09 368L379.09 366L379.09 364L358.962 364L358.962 366ZM399.218 366L399.218 368L419.346 368L419.346 366L419.346 364L399.218 364L399.218 366ZM439.474 366L439.474 368L459.603 368L459.603 366L459.603 364L439.474 364L439.474 366ZM479.731 366L479.731 368L499.859 368L499.859 366L499.859 364L479.731 364L479.731 366ZM519.987 366L519.987 368L540.115 368L540.115 366L540.115 364L519.987 364L519.987 366ZM560.244 366L560.244 368L580.372 368L580.372 366L580.372 364L560.244 364L560.244 366ZM600.5 366L600.5 368L620.628 368L620.628 366L620.628 364L600.5 364L600.5 366ZM640.756 366L640.756 368L660.885 368L660.885 366L660.885 364L640.756 364L640.756 366ZM681.013 366L681.013 368L701.141 368L701.141 366L701.141 364L681.013 364L681.013 366ZM721.269 366L721.269 368L741.397 368L741.397 366L741.397 364L721.269 364L721.269 366ZM761.526 366L761.526 368L781.654 368L781.654 366L781.654 364L761.526 364L761.526 366ZM801.782 366L801.782 368L821.91 368L821.91 366L821.91 364L801.782 364L801.782 366ZM842.038 366L842.038 368L862.167 368L862.167 366L862.167 364L842.038 364L842.038 366ZM882.295 366L882.295 368L902.423 368L902.423 366L902.423 364L882.295 364L882.295 366ZM922.551 366L922.551 368L942.679 368L942.679 366L942.679 364L922.551 364L922.551 366ZM962.807 366L962.807 368L982.936 368L982.936 366L982.936 364L962.807 364L962.807 366ZM1003.06 366L1003.06 368L1023.19 368L1023.19 366L1023.19 364L1003.06 364L1003.06 366ZM1043.32 366L1043.32 368L1063.45 368L1063.45 366L1063.45 364L1043.32 364L1043.32 366ZM1083.58 366L1083.58 368L1103.7 368L1103.7 366L1103.7 364L1083.58 364L1083.58 366ZM1123.83 366L1123.83 368L1143.96 368L1143.96 366L1143.96 364L1123.83 364L1123.83 366ZM1164.09 366L1164.09 368L1184.22 368L1184.22 366L1184.22 364L1164.09 364L1164.09 366ZM1204.35 366L1204.35 368L1224.47 368L1224.47 366L1224.47 364L1204.35 364L1204.35 366ZM1244.6 366L1244.6 368L1264.73 368L1264.73 366L1264.73 364L1244.6 364L1244.6 366ZM1284.86 366L1284.86 368L1304.99 368L1304.99 366L1304.99 364L1284.86 364L1284.86 366ZM1325.11 366L1325.11 368L1345.24 368L1345.24 366L1345.24 364L1325.11 364L1325.11 366ZM1365.37 366L1365.37 368L1385.5 368L1385.5 366L1385.5 364L1365.37 364L1365.37 366ZM1405.63 366L1405.63 368L1425.76 368L1425.76 366L1425.76 364L1405.63 364L1405.63 366ZM1445.88 366L1445.88 368L1466.01 368L1466.01 366L1466.01 364L1445.88 364L1445.88 366ZM1486.14 366L1486.14 368L1506.27 368L1506.27 366L1506.27 364L1486.14 364L1486.14 366ZM1526.4 366L1526.4 368L1546.52 368L1546.52 366L1546.52 364L1526.4 364L1526.4 366ZM1566.65 366L1566.65 368L1586.78 368L1586.78 366L1586.78 364L1566.65 364L1566.65 366ZM1606.91 366L1606.91 368L1627.04 368L1627.04 366L1627.04 364L1606.91 364L1606.91 366ZM1647.17 366L1647.17 368L1667.29 368L1667.29 366L1667.29 364L1647.17 364L1647.17 366ZM1687.42 366L1687.42 368L1707.55 368L1707.55 366L1707.55 364L1687.42 364L1687.42 366ZM1727.68 366L1727.68 368L1747.81 368L1747.81 366L1747.81 364L1727.68 364L1727.68 366Z" fill="black"/>
<path d="M402 69L375.714 91.5623L408.397 103.045L402 69ZM298 365L300.83 365.994L395.88 95.4679L393.05 94.4734L390.219 93.479L295.17 364.006L298 365Z" fill="black"/>
<path d="M402 69L375.714 91.5623L408.397 103.045L402 69ZM298 365L300.83 365.994L395.88 95.4679L393.05 94.4734L390.219 93.479L295.17 364.006L298 365Z" fill="black"/>
<path d="M721 71L695.294 94.221L728.257 104.872L721 71ZM626 365L628.855 365.922L715.553 97.6144L712.698 96.692L709.843 95.7696L623.145 364.078L626 365Z" fill="black"/>
<path d="M599 365L609.869 332.108L575.949 339.142L599 365ZM537 66L534.062 66.6091L590.58 339.172L593.518 338.562L596.455 337.953L539.938 65.3909L537 66Z" fill="black"/>
<path d="M928 364L938.635 331.032L904.766 338.306L928 364ZM864 66L861.067 66.6299L919.397 338.232L922.331 337.602L925.264 336.972L866.933 65.3701L864 66Z" fill="black"/>
<line x1="402" y1="68" x2="540" y2="68" stroke="black" stroke-width="6"/>
<line x1="721" y1="68" x2="867" y2="68" stroke="black" stroke-width="6"/>
<line x1="963" y1="367" x2="1144" y2="367" stroke="black" stroke-width="6"/>
<path d="M286.728 408.32C285.32 408.32 284.093 408.053 283.048 407.52C282.024 406.987 281.224 406.219 280.648 405.216C280.093 404.192 279.816 402.987 279.816 401.6V391.04C279.816 389.632 280.093 388.427 280.648 387.424C281.224 386.421 282.024 385.653 283.048 385.12C284.093 384.587 285.32 384.32 286.728 384.32C288.136 384.32 289.352 384.597 290.376 385.152C291.4 385.685 292.189 386.453 292.744 387.456C293.299 388.459 293.576 389.653 293.576 391.04H290.696C290.696 389.717 290.344 388.704 289.64 388C288.957 387.275 287.987 386.912 286.728 386.912C285.469 386.912 284.477 387.264 283.752 387.968C283.048 388.672 282.696 389.685 282.696 391.008V401.6C282.696 402.923 283.048 403.947 283.752 404.672C284.477 405.397 285.469 405.76 286.728 405.76C287.987 405.76 288.957 405.397 289.64 404.672C290.344 403.947 290.696 402.923 290.696 401.6V398.72H285.96V396.096H293.576V401.6C293.576 402.965 293.299 404.16 292.744 405.184C292.189 406.187 291.4 406.965 290.376 407.52C289.352 408.053 288.136 408.32 286.728 408.32ZM299.388 408V384.64H312.828V387.264H302.236V394.496H311.708V397.088H302.236V405.376H312.828V408H299.388ZM323.535 408V387.232H317.135V384.608H332.815V387.232H326.415V408H323.535ZM356.15 411.52L367.51 381.44H370.55L359.19 411.52H356.15Z" fill="black"/>
<path d="M635.728 408.32C634.32 408.32 633.093 408.053 632.048 407.52C631.024 406.987 630.224 406.219 629.648 405.216C629.093 404.192 628.816 402.987 628.816 401.6V391.04C628.816 389.632 629.093 388.427 629.648 387.424C630.224 386.421 631.024 385.653 632.048 385.12C633.093 384.587 634.32 384.32 635.728 384.32C637.136 384.32 638.352 384.597 639.376 385.152C640.4 385.685 641.189 386.453 641.744 387.456C642.299 388.459 642.576 389.653 642.576 391.04H639.696C639.696 389.717 639.344 388.704 638.64 388C637.957 387.275 636.987 386.912 635.728 386.912C634.469 386.912 633.477 387.264 632.752 387.968C632.048 388.672 631.696 389.685 631.696 391.008V401.6C631.696 402.923 632.048 403.947 632.752 404.672C633.477 405.397 634.469 405.76 635.728 405.76C636.987 405.76 637.957 405.397 638.64 404.672C639.344 403.947 639.696 402.923 639.696 401.6V398.72H634.96V396.096H642.576V401.6C642.576 402.965 642.299 404.16 641.744 405.184C641.189 406.187 640.4 406.965 639.376 407.52C638.352 408.053 637.136 408.32 635.728 408.32ZM648.388 408V384.64H661.828V387.264H651.236V394.496H660.708V397.088H651.236V405.376H661.828V408H648.388ZM672.535 408V387.232H666.135V384.608H681.815V387.232H675.415V408H672.535ZM705.15 411.52L716.51 381.44H719.55L708.19 411.52H705.15ZM724.049 408V390.4H726.578V392.512H727.154L726.706 393.28C726.706 392.299 726.962 391.52 727.474 390.944C728.007 390.368 728.722 390.08 729.618 390.08C730.599 390.08 731.356 390.443 731.89 391.168C732.423 391.893 732.69 392.917 732.69 394.24L731.826 392.512H733.17L732.562 393.28C732.562 392.299 732.828 391.52 733.362 390.944C733.916 390.368 734.642 390.08 735.538 390.08C736.647 390.08 737.5 390.496 738.097 391.328C738.716 392.16 739.026 393.259 739.026 394.624V408H736.37V394.592C736.37 393.867 736.21 393.301 735.89 392.896C735.591 392.491 735.143 392.288 734.546 392.288C733.97 392.288 733.511 392.491 733.17 392.896C732.85 393.28 732.69 393.835 732.69 394.56V408H730.385V394.592C730.385 393.845 730.215 393.28 729.874 392.896C729.554 392.491 729.095 392.288 728.498 392.288C727.9 392.288 727.452 392.491 727.154 392.896C726.855 393.28 726.706 393.835 726.706 394.56V408H724.049ZM749.189 408.32C747.333 408.32 745.872 407.851 744.805 406.912C743.738 405.952 743.205 404.661 743.205 403.04C743.205 401.397 743.738 400.107 744.805 399.168C745.872 398.229 747.312 397.76 749.125 397.76H754.565V396C754.565 394.912 754.234 394.08 753.573 393.504C752.933 392.907 752.016 392.608 750.821 392.608C749.776 392.608 748.901 392.832 748.197 393.28C747.493 393.707 747.088 394.293 746.981 395.04H744.101C744.293 393.525 745.008 392.32 746.245 391.424C747.482 390.528 749.029 390.08 750.885 390.08C752.912 390.08 754.512 390.603 755.685 391.648C756.858 392.693 757.445 394.112 757.445 395.904V408H754.629V404.64H754.149L754.629 404.16C754.629 405.44 754.128 406.453 753.125 407.2C752.144 407.947 750.832 408.32 749.189 408.32ZM749.893 406.048C751.258 406.048 752.378 405.707 753.253 405.024C754.128 404.341 754.565 403.467 754.565 402.4V399.904H749.189C748.229 399.904 747.472 400.171 746.917 400.704C746.362 401.237 746.085 401.963 746.085 402.88C746.085 403.861 746.416 404.64 747.077 405.216C747.76 405.771 748.698 406.048 749.893 406.048ZM763.033 408V405.376H769.273V393.024H763.833V390.4H772.153V405.376H778.073V408H763.033ZM770.393 387.232C769.689 387.232 769.134 387.051 768.729 386.688C768.323 386.325 768.121 385.835 768.121 385.216C768.121 384.576 768.323 384.075 768.729 383.712C769.134 383.328 769.689 383.136 770.393 383.136C771.097 383.136 771.651 383.328 772.057 383.712C772.462 384.075 772.665 384.576 772.665 385.216C772.665 385.835 772.462 386.325 772.057 386.688C771.651 387.051 771.097 387.232 770.393 387.232ZM782.444 408V390.4H785.324V393.76H785.932L785.324 394.432C785.324 393.045 785.74 391.979 786.572 391.232C787.404 390.464 788.556 390.08 790.028 390.08C791.799 390.08 793.207 390.624 794.252 391.712C795.297 392.8 795.82 394.283 795.82 396.16V408H792.94V396.48C792.94 395.221 792.599 394.261 791.916 393.6C791.255 392.917 790.348 392.576 789.196 392.576C788.001 392.576 787.052 392.939 786.348 393.664C785.665 394.389 785.324 395.435 785.324 396.8V408H782.444ZM808.288 408.32C807.477 408.32 806.826 408.085 806.336 407.616C805.866 407.147 805.632 406.517 805.632 405.728C805.632 404.896 805.866 404.235 806.336 403.744C806.826 403.253 807.477 403.008 808.288 403.008C809.098 403.008 809.738 403.253 810.208 403.744C810.698 404.235 810.944 404.896 810.944 405.728C810.944 406.517 810.698 407.147 810.208 407.616C809.738 408.085 809.098 408.32 808.288 408.32ZM820.595 413.76V411.104H824.723C826.046 411.104 827.07 410.741 827.795 410.016C828.542 409.312 828.915 408.309 828.915 407.008V393.024H821.555V390.4H831.795V407.008C831.795 409.077 831.155 410.72 829.875 411.936C828.595 413.152 826.878 413.76 824.723 413.76H820.595ZM830.195 387.232C829.491 387.232 828.936 387.051 828.531 386.688C828.126 386.325 827.923 385.835 827.923 385.216C827.923 384.576 828.126 384.075 828.531 383.712C828.936 383.328 829.491 383.136 830.195 383.136C830.899 383.136 831.454 383.328 831.859 383.712C832.264 384.075 832.467 384.576 832.467 385.216C832.467 385.835 832.264 386.325 831.859 386.688C831.454 387.051 830.899 387.232 830.195 387.232ZM846.119 408.256C844.924 408.256 843.879 408.075 842.983 407.712C842.108 407.328 841.404 406.795 840.871 406.112C840.359 405.429 840.049 404.619 839.943 403.68H842.823C842.951 404.299 843.292 404.789 843.847 405.152C844.423 405.515 845.18 405.696 846.119 405.696H847.463C848.593 405.696 849.436 405.472 849.991 405.024C850.545 404.555 850.823 403.936 850.823 403.168C850.823 402.421 850.567 401.835 850.055 401.408C849.564 400.96 848.828 400.661 847.847 400.512L845.479 400.128C843.751 399.829 842.46 399.296 841.607 398.528C840.775 397.739 840.359 396.597 840.359 395.104C840.359 393.525 840.86 392.309 841.863 391.456C842.865 390.581 844.369 390.144 846.375 390.144H847.591C849.276 390.144 850.631 390.539 851.655 391.328C852.679 392.117 853.297 393.184 853.51 394.528H850.631C850.503 393.973 850.183 393.536 849.671 393.216C849.159 392.875 848.465 392.704 847.591 392.704H846.375C845.287 392.704 844.487 392.907 843.975 393.312C843.484 393.717 843.239 394.325 843.239 395.136C843.239 395.861 843.452 396.395 843.879 396.736C844.305 397.077 844.977 397.323 845.895 397.472L848.263 397.856C850.161 398.155 851.537 398.709 852.391 399.52C853.265 400.331 853.703 401.504 853.703 403.04C853.703 404.661 853.18 405.941 852.135 406.88C851.111 407.797 849.553 408.256 847.463 408.256H846.119Z" fill="black"/>
<path d="M965.976 408V384.64H968.856V394.624H976.344V384.64H979.224V408H976.344V397.248H968.856V408H965.976ZM987.884 413.76L990.476 406.912L983.948 390.4H987.148L991.244 401.28C991.393 401.643 991.532 402.08 991.66 402.592C991.788 403.083 991.894 403.499 991.98 403.84C992.065 403.499 992.172 403.083 992.3 402.592C992.428 402.08 992.556 401.643 992.684 401.28L996.524 390.4H999.628L990.956 413.76H987.884ZM1009.95 408.32C1008.2 408.32 1006.78 407.733 1005.7 406.56C1004.63 405.387 1004.1 403.797 1004.1 401.792V396.64C1004.1 394.613 1004.63 393.013 1005.7 391.84C1006.76 390.667 1008.18 390.08 1009.95 390.08C1011.4 390.08 1012.56 390.475 1013.44 391.264C1014.31 392.053 1014.75 393.109 1014.75 394.432L1014.18 393.76H1014.82L1014.75 389.76V384.64H1017.63V408H1014.75V404.64H1014.18L1014.75 403.968C1014.75 405.312 1014.31 406.379 1013.44 407.168C1012.56 407.936 1011.4 408.32 1009.95 408.32ZM1010.91 405.824C1012.11 405.824 1013.04 405.451 1013.73 404.704C1014.41 403.957 1014.75 402.923 1014.75 401.6V396.8C1014.75 395.477 1014.41 394.443 1013.73 393.696C1013.04 392.949 1012.11 392.576 1010.91 392.576C1009.7 392.576 1008.74 392.939 1008.03 393.664C1007.33 394.389 1006.98 395.435 1006.98 396.8V401.6C1006.98 402.965 1007.33 404.011 1008.03 404.736C1008.74 405.461 1009.7 405.824 1010.91 405.824ZM1024.11 408V390.4H1026.93V393.76H1027.6L1026.67 395.84C1026.67 393.941 1027.08 392.512 1027.89 391.552C1028.72 390.571 1029.95 390.08 1031.57 390.08C1033.43 390.08 1034.9 390.667 1035.99 391.84C1037.1 392.992 1037.65 394.56 1037.65 396.544V397.6H1034.77V396.8C1034.77 395.413 1034.43 394.357 1033.75 393.632C1033.09 392.885 1032.14 392.512 1030.9 392.512C1029.68 392.512 1028.72 392.885 1028.02 393.632C1027.34 394.379 1026.99 395.435 1026.99 396.8V408H1024.11ZM1047.81 408.32C1045.96 408.32 1044.5 407.851 1043.43 406.912C1042.36 405.952 1041.83 404.661 1041.83 403.04C1041.83 401.397 1042.36 400.107 1043.43 399.168C1044.5 398.229 1045.94 397.76 1047.75 397.76H1053.19V396C1053.19 394.912 1052.86 394.08 1052.2 393.504C1051.56 392.907 1050.64 392.608 1049.45 392.608C1048.4 392.608 1047.53 392.832 1046.82 393.28C1046.12 393.707 1045.71 394.293 1045.61 395.04H1042.73C1042.92 393.525 1043.63 392.32 1044.87 391.424C1046.11 390.528 1047.65 390.08 1049.51 390.08C1051.54 390.08 1053.14 390.603 1054.31 391.648C1055.48 392.693 1056.07 394.112 1056.07 395.904V408H1053.25V404.64H1052.77L1053.25 404.16C1053.25 405.44 1052.75 406.453 1051.75 407.2C1050.77 407.947 1049.46 408.32 1047.81 408.32ZM1048.52 406.048C1049.88 406.048 1051 405.707 1051.88 405.024C1052.75 404.341 1053.19 403.467 1053.19 402.4V399.904H1047.81C1046.85 399.904 1046.1 400.171 1045.54 400.704C1044.99 401.237 1044.71 401.963 1044.71 402.88C1044.71 403.861 1045.04 404.64 1045.7 405.216C1046.38 405.771 1047.32 406.048 1048.52 406.048ZM1070.46 408C1068.94 408 1067.76 407.595 1066.91 406.784C1066.07 405.973 1065.66 404.832 1065.66 403.36V393.024H1060.7V390.4H1065.66V385.44H1068.54V390.4H1075.58V393.024H1068.54V403.36C1068.54 404.704 1069.18 405.376 1070.46 405.376H1075.26V408H1070.46ZM1080.85 408V405.376H1087.09V393.024H1081.65V390.4H1089.97V405.376H1095.89V408H1080.85ZM1088.21 387.232C1087.5 387.232 1086.95 387.051 1086.54 386.688C1086.14 386.325 1085.93 385.835 1085.93 385.216C1085.93 384.576 1086.14 384.075 1086.54 383.712C1086.95 383.328 1087.5 383.136 1088.21 383.136C1088.91 383.136 1089.46 383.328 1089.87 383.712C1090.27 384.075 1090.48 384.576 1090.48 385.216C1090.48 385.835 1090.27 386.325 1089.87 386.688C1089.46 387.051 1088.91 387.232 1088.21 387.232ZM1106.91 408.256C1105.5 408.256 1104.29 407.989 1103.26 407.456C1102.24 406.923 1101.44 406.155 1100.86 405.152C1100.31 404.128 1100.03 402.923 1100.03 401.536V396.864C1100.03 395.456 1100.31 394.251 1100.86 393.248C1101.44 392.245 1102.24 391.477 1103.26 390.944C1104.29 390.411 1105.5 390.144 1106.91 390.144C1108.32 390.144 1109.54 390.411 1110.56 390.944C1111.58 391.477 1112.37 392.245 1112.93 393.248C1113.5 394.251 1113.79 395.445 1113.79 396.832V401.536C1113.79 402.923 1113.5 404.128 1112.93 405.152C1112.37 406.155 1111.58 406.923 1110.56 407.456C1109.54 407.989 1108.32 408.256 1106.91 408.256ZM1106.91 405.696C1108.17 405.696 1109.15 405.344 1109.86 404.64C1110.56 403.936 1110.91 402.901 1110.91 401.536V396.864C1110.91 395.499 1110.56 394.464 1109.86 393.76C1109.15 393.056 1108.17 392.704 1106.91 392.704C1105.68 392.704 1104.69 393.056 1103.97 393.76C1103.26 394.464 1102.91 395.499 1102.91 396.864V401.536C1102.91 402.901 1103.26 403.936 1103.97 404.64C1104.69 405.344 1105.68 405.696 1106.91 405.696ZM1119.44 408V390.4H1122.32V393.76H1122.93L1122.32 394.432C1122.32 393.045 1122.74 391.979 1123.57 391.232C1124.4 390.464 1125.56 390.08 1127.03 390.08C1128.8 390.08 1130.21 390.624 1131.25 391.712C1132.3 392.8 1132.82 394.283 1132.82 396.16V408H1129.94V396.48C1129.94 395.221 1129.6 394.261 1128.92 393.6C1128.25 392.917 1127.35 392.576 1126.2 392.576C1125 392.576 1124.05 392.939 1123.35 393.664C1122.67 394.389 1122.32 395.435 1122.32 396.8V408H1119.44Z" fill="black"/>
<line x1="1244" y1="68" x2="1426" y2="68" stroke="black" stroke-width="6"/>
<path d="M1184.73 408.32C1183.32 408.32 1182.09 408.053 1181.05 407.52C1180.02 406.987 1179.22 406.219 1178.65 405.216C1178.09 404.192 1177.82 402.987 1177.82 401.6V391.04C1177.82 389.632 1178.09 388.427 1178.65 387.424C1179.22 386.421 1180.02 385.653 1181.05 385.12C1182.09 384.587 1183.32 384.32 1184.73 384.32C1186.14 384.32 1187.35 384.597 1188.38 385.152C1189.4 385.685 1190.19 386.453 1190.74 387.456C1191.3 388.459 1191.58 389.653 1191.58 391.04H1188.7C1188.7 389.717 1188.34 388.704 1187.64 388C1186.96 387.275 1185.99 386.912 1184.73 386.912C1183.47 386.912 1182.48 387.264 1181.75 387.968C1181.05 388.672 1180.7 389.685 1180.7 391.008V401.6C1180.7 402.923 1181.05 403.947 1181.75 404.672C1182.48 405.397 1183.47 405.76 1184.73 405.76C1185.99 405.76 1186.96 405.397 1187.64 404.672C1188.34 403.947 1188.7 402.923 1188.7 401.6V398.72H1183.96V396.096H1191.58V401.6C1191.58 402.965 1191.3 404.16 1190.74 405.184C1190.19 406.187 1189.4 406.965 1188.38 407.52C1187.35 408.053 1186.14 408.32 1184.73 408.32ZM1197.39 408V384.64H1210.83V387.264H1200.24V394.496H1209.71V397.088H1200.24V405.376H1210.83V408H1197.39ZM1221.54 408V387.232H1215.14V384.608H1230.82V387.232H1224.42V408H1221.54ZM1254.15 411.52L1265.51 381.44H1268.55L1257.19 411.52H1254.15ZM1273.05 408V390.4H1275.58V392.512H1276.15L1275.71 393.28C1275.71 392.299 1275.96 391.52 1276.47 390.944C1277.01 390.368 1277.72 390.08 1278.62 390.08C1279.6 390.08 1280.36 390.443 1280.89 391.168C1281.42 391.893 1281.69 392.917 1281.69 394.24L1280.83 392.512H1282.17L1281.56 393.28C1281.56 392.299 1281.83 391.52 1282.36 390.944C1282.92 390.368 1283.64 390.08 1284.54 390.08C1285.65 390.08 1286.5 390.496 1287.1 391.328C1287.72 392.16 1288.03 393.259 1288.03 394.624V408H1285.37V394.592C1285.37 393.867 1285.21 393.301 1284.89 392.896C1284.59 392.491 1284.14 392.288 1283.55 392.288C1282.97 392.288 1282.51 392.491 1282.17 392.896C1281.85 393.28 1281.69 393.835 1281.69 394.56V408H1279.39V394.592C1279.39 393.845 1279.21 393.28 1278.87 392.896C1278.55 392.491 1278.09 392.288 1277.5 392.288C1276.9 392.288 1276.45 392.491 1276.15 392.896C1275.85 393.28 1275.71 393.835 1275.71 394.56V408H1273.05ZM1299.73 408.32C1298.34 408.32 1297.12 408.043 1296.08 407.488C1295.05 406.933 1294.25 406.155 1293.68 405.152C1293.12 404.128 1292.85 402.944 1292.85 401.6V396.8C1292.85 395.435 1293.12 394.251 1293.68 393.248C1294.25 392.245 1295.05 391.467 1296.08 390.912C1297.12 390.357 1298.34 390.08 1299.73 390.08C1301.11 390.08 1302.32 390.357 1303.34 390.912C1304.39 391.467 1305.19 392.245 1305.74 393.248C1306.32 394.251 1306.61 395.435 1306.61 396.8V399.904H1295.66V401.6C1295.66 402.987 1296.01 404.053 1296.72 404.8C1297.42 405.525 1298.42 405.888 1299.73 405.888C1300.83 405.888 1301.73 405.696 1302.41 405.312C1303.1 404.907 1303.51 404.309 1303.66 403.52H1306.54C1306.35 404.992 1305.62 406.165 1304.37 407.04C1303.13 407.893 1301.58 408.32 1299.73 408.32ZM1303.79 397.984V396.8C1303.79 395.413 1303.44 394.347 1302.73 393.6C1302.05 392.853 1301.05 392.48 1299.73 392.48C1298.42 392.48 1297.42 392.853 1296.72 393.6C1296.01 394.347 1295.66 395.413 1295.66 396.8V397.728H1304.01L1303.79 397.984Z" fill="black"/>
<path d="M1528.94 408V384.64H1536.18C1537.56 384.64 1538.78 384.928 1539.82 385.504C1540.87 386.059 1541.68 386.837 1542.26 387.84C1542.83 388.843 1543.12 390.016 1543.12 391.36C1543.12 392.939 1542.7 394.293 1541.87 395.424C1541.06 396.555 1539.95 397.333 1538.54 397.76L1543.44 408H1540.05L1535.57 398.08H1531.82V408H1528.94ZM1531.82 395.488H1536.18C1537.37 395.488 1538.33 395.115 1539.06 394.368C1539.78 393.6 1540.14 392.597 1540.14 391.36C1540.14 390.101 1539.78 389.099 1539.06 388.352C1538.33 387.605 1537.37 387.232 1536.18 387.232H1531.82V395.488ZM1554.79 408.32C1553.4 408.32 1552.18 408.043 1551.14 407.488C1550.12 406.933 1549.32 406.155 1548.74 405.152C1548.18 404.128 1547.91 402.944 1547.91 401.6V396.8C1547.91 395.435 1548.18 394.251 1548.74 393.248C1549.32 392.245 1550.12 391.467 1551.14 390.912C1552.18 390.357 1553.4 390.08 1554.79 390.08C1556.17 390.08 1557.38 390.357 1558.4 390.912C1559.45 391.467 1560.25 392.245 1560.8 393.248C1561.38 394.251 1561.67 395.435 1561.67 396.8V399.904H1550.72V401.6C1550.72 402.987 1551.08 404.053 1551.78 404.8C1552.48 405.525 1553.49 405.888 1554.79 405.888C1555.9 405.888 1556.79 405.696 1557.48 405.312C1558.16 404.907 1558.57 404.309 1558.72 403.52H1561.6C1561.41 404.992 1560.69 406.165 1559.43 407.04C1558.19 407.893 1556.64 408.32 1554.79 408.32ZM1558.85 397.984V396.8C1558.85 395.413 1558.5 394.347 1557.8 393.6C1557.11 392.853 1556.11 392.48 1554.79 392.48C1553.49 392.48 1552.48 392.853 1551.78 393.6C1551.08 394.347 1550.72 395.413 1550.72 396.8V397.728H1559.08L1558.85 397.984ZM1567.32 408V390.4H1570.2V393.76H1570.81L1570.2 394.432C1570.2 393.045 1570.62 391.979 1571.45 391.232C1572.28 390.464 1573.43 390.08 1574.9 390.08C1576.67 390.08 1578.08 390.624 1579.13 391.712C1580.17 392.8 1580.7 394.283 1580.7 396.16V408H1577.82V396.48C1577.82 395.221 1577.47 394.261 1576.79 393.6C1576.13 392.917 1575.22 392.576 1574.07 392.576C1572.88 392.576 1571.93 392.939 1571.22 393.664C1570.54 394.389 1570.2 395.435 1570.2 396.8V408H1567.32ZM1592.14 408.32C1590.39 408.32 1588.97 407.733 1587.88 406.56C1586.82 405.387 1586.28 403.797 1586.28 401.792V396.64C1586.28 394.613 1586.82 393.013 1587.88 391.84C1588.95 390.667 1590.37 390.08 1592.14 390.08C1593.59 390.08 1594.75 390.475 1595.63 391.264C1596.5 392.053 1596.94 393.109 1596.94 394.432L1596.36 393.76H1597L1596.94 389.76V384.64H1599.82V408H1596.94V404.64H1596.36L1596.94 403.968C1596.94 405.312 1596.5 406.379 1595.63 407.168C1594.75 407.936 1593.59 408.32 1592.14 408.32ZM1593.1 405.824C1594.29 405.824 1595.23 405.451 1595.91 404.704C1596.6 403.957 1596.94 402.923 1596.94 401.6V396.8C1596.94 395.477 1596.6 394.443 1595.91 393.696C1595.23 392.949 1594.29 392.576 1593.1 392.576C1591.88 392.576 1590.92 392.939 1590.22 393.664C1589.51 394.389 1589.16 395.435 1589.16 396.8V401.6C1589.16 402.965 1589.51 404.011 1590.22 404.736C1590.92 405.461 1591.88 405.824 1593.1 405.824ZM1612.35 408.32C1610.96 408.32 1609.75 408.043 1608.7 407.488C1607.68 406.933 1606.88 406.155 1606.3 405.152C1605.75 404.128 1605.47 402.944 1605.47 401.6V396.8C1605.47 395.435 1605.75 394.251 1606.3 393.248C1606.88 392.245 1607.68 391.467 1608.7 390.912C1609.75 390.357 1610.96 390.08 1612.35 390.08C1613.74 390.08 1614.94 390.357 1615.97 390.912C1617.01 391.467 1617.81 392.245 1618.37 393.248C1618.94 394.251 1619.23 395.435 1619.23 396.8V399.904H1608.29V401.6C1608.29 402.987 1608.64 404.053 1609.34 404.8C1610.05 405.525 1611.05 405.888 1612.35 405.888C1613.46 405.888 1614.36 405.696 1615.04 405.312C1615.72 404.907 1616.14 404.309 1616.29 403.52H1619.17C1618.97 404.992 1618.25 406.165 1616.99 407.04C1615.75 407.893 1614.21 408.32 1612.35 408.32ZM1616.41 397.984V396.8C1616.41 395.413 1616.06 394.347 1615.36 393.6C1614.68 392.853 1613.67 392.48 1612.35 392.48C1611.05 392.48 1610.05 392.853 1609.34 393.6C1608.64 394.347 1608.29 395.413 1608.29 396.8V397.728H1616.64L1616.41 397.984ZM1625.49 408V390.4H1628.31V393.76H1628.98L1628.05 395.84C1628.05 393.941 1628.45 392.512 1629.27 391.552C1630.1 390.571 1631.32 390.08 1632.95 390.08C1634.8 390.08 1636.27 390.667 1637.36 391.84C1638.47 392.992 1639.03 394.56 1639.03 396.544V397.6H1636.15V396.8C1636.15 395.413 1635.8 394.357 1635.12 393.632C1634.46 392.885 1633.51 392.512 1632.27 392.512C1631.06 392.512 1630.1 392.885 1629.39 393.632C1628.71 394.379 1628.37 395.435 1628.37 396.8V408H1625.49ZM1643.85 408V405.376H1650.09V393.024H1644.65V390.4H1652.97V405.376H1658.89V408H1643.85ZM1651.21 387.232C1650.5 387.232 1649.95 387.051 1649.54 386.688C1649.14 386.325 1648.93 385.835 1648.93 385.216C1648.93 384.576 1649.14 384.075 1649.54 383.712C1649.95 383.328 1650.5 383.136 1651.21 383.136C1651.91 383.136 1652.46 383.328 1652.87 383.712C1653.27 384.075 1653.48 384.576 1653.48 385.216C1653.48 385.835 1653.27 386.325 1652.87 386.688C1652.46 387.051 1651.91 387.232 1651.21 387.232ZM1663.26 408V390.4H1666.14V393.76H1666.74L1666.14 394.432C1666.14 393.045 1666.55 391.979 1667.38 391.232C1668.22 390.464 1669.37 390.08 1670.84 390.08C1672.61 390.08 1674.02 390.624 1675.06 391.712C1676.11 392.8 1676.63 394.283 1676.63 396.16V408H1673.75V396.48C1673.75 395.221 1673.41 394.261 1672.73 393.6C1672.07 392.917 1671.16 392.576 1670.01 392.576C1668.81 392.576 1667.86 392.939 1667.16 393.664C1666.48 394.389 1666.14 395.435 1666.14 396.8V408H1663.26ZM1684.65 413.76V411.136H1690.25C1691.15 411.136 1691.8 410.933 1692.2 410.528C1692.63 410.123 1692.84 409.493 1692.84 408.64V406.4L1692.91 403.2H1692.33L1692.88 402.72C1692.88 404 1692.45 405.013 1691.6 405.76C1690.74 406.507 1689.6 406.88 1688.17 406.88C1686.36 406.88 1684.93 406.293 1683.88 405.12C1682.84 403.925 1682.32 402.325 1682.32 400.32V396.608C1682.32 394.603 1682.84 393.013 1683.88 391.84C1684.93 390.667 1686.36 390.08 1688.17 390.08C1689.6 390.08 1690.74 390.453 1691.6 391.2C1692.45 391.947 1692.88 392.96 1692.88 394.24L1692.33 393.76H1692.88V390.4H1695.72V408.64C1695.72 410.219 1695.23 411.467 1694.25 412.384C1693.29 413.301 1691.95 413.76 1690.22 413.76H1684.65ZM1689.04 404.384C1690.23 404.384 1691.17 404.011 1691.85 403.264C1692.53 402.517 1692.88 401.483 1692.88 400.16V396.8C1692.88 395.477 1692.53 394.443 1691.85 393.696C1691.17 392.949 1690.23 392.576 1689.04 392.576C1687.82 392.576 1686.87 392.939 1686.19 393.664C1685.53 394.389 1685.2 395.435 1685.2 396.8V400.16C1685.2 401.525 1685.53 402.571 1686.19 403.296C1686.87 404.021 1687.82 404.384 1689.04 404.384Z" fill="black"/>
<path d="M1458.51 161.43C1457.97 159.257 1458.15 157.397 1459.07 155.851C1459.98 154.305 1461.49 153.269 1463.6 152.743L1464.3 155.538C1462.91 155.883 1461.92 156.514 1461.34 157.429C1460.78 158.359 1460.66 159.487 1460.99 160.812C1461.32 162.137 1461.95 163.069 1462.88 163.608C1463.83 164.163 1465 164.268 1466.38 163.923L1479.99 160.538L1478.63 155.104L1481.18 154.47L1483.23 162.699L1467.08 166.717C1464.97 167.243 1463.14 167.026 1461.61 166.067C1460.08 165.129 1459.05 163.583 1458.51 161.43ZM1463.41 181.106C1463.03 179.615 1462.96 178.27 1463.19 177.07C1463.43 175.89 1463.94 174.895 1464.72 174.083C1465.51 173.272 1466.55 172.696 1467.82 172.356L1468.52 175.151C1467.38 175.434 1466.58 176.041 1466.1 176.972C1465.64 177.924 1465.58 179.093 1465.92 180.48C1466.25 181.784 1466.82 182.719 1467.64 183.284C1468.47 183.869 1469.45 184.02 1470.59 183.737C1471.5 183.51 1472.24 183.064 1472.8 182.397C1473.36 181.751 1473.66 180.939 1473.71 179.961L1473.9 176.647C1473.99 174.976 1474.49 173.577 1475.4 172.45C1476.31 171.343 1477.52 170.602 1479.03 170.226C1480.25 169.922 1481.38 169.929 1482.4 170.245C1483.45 170.578 1484.35 171.179 1485.09 172.049C1485.86 172.914 1486.41 174.019 1486.74 175.365C1487.24 177.352 1487.07 179.085 1486.26 180.564C1485.46 182.038 1484.14 183.014 1482.3 183.494L1481.61 180.699C1482.72 180.421 1483.51 179.863 1483.96 179.025C1484.44 178.203 1484.52 177.181 1484.22 175.96C1483.92 174.759 1483.4 173.889 1482.65 173.35C1481.9 172.832 1481.01 172.702 1479.98 172.959C1479.05 173.191 1478.3 173.64 1477.74 174.307C1477.18 174.974 1476.87 175.809 1476.81 176.813L1476.59 180.166C1476.49 181.795 1475.98 183.166 1475.04 184.277C1474.11 185.389 1472.88 186.135 1471.35 186.516C1470.11 186.825 1468.95 186.806 1467.87 186.458C1466.79 186.11 1465.87 185.473 1465.09 184.546C1464.31 183.64 1463.75 182.493 1463.41 181.106ZM1468.01 199.601C1467.67 198.235 1467.63 196.991 1467.9 195.868C1468.18 194.766 1468.74 193.825 1469.58 193.045C1470.44 192.28 1471.55 191.73 1472.89 191.395L1483.14 188.845C1484.5 188.505 1485.74 188.473 1486.84 188.748C1487.95 189.045 1488.88 189.615 1489.64 190.459C1490.41 191.324 1490.96 192.439 1491.3 193.806C1491.64 195.172 1491.67 196.406 1491.39 197.508C1491.12 198.63 1490.57 199.572 1489.72 200.331C1488.88 201.112 1487.79 201.669 1486.45 202.004L1476.17 204.562C1474.82 204.897 1473.59 204.919 1472.46 204.628C1471.36 204.352 1470.42 203.782 1469.66 202.917C1468.9 202.073 1468.35 200.968 1468.01 199.601ZM1470.52 198.975C1470.83 200.197 1471.4 201.043 1472.24 201.515C1473.11 202.002 1474.19 202.086 1475.47 201.767L1485.72 199.217C1487 198.898 1487.9 198.322 1488.42 197.489C1488.97 196.672 1489.09 195.653 1488.78 194.432C1488.48 193.231 1487.9 192.387 1487.03 191.9C1486.18 191.407 1485.12 191.321 1483.83 191.64L1473.59 194.19C1472.3 194.51 1471.39 195.088 1470.85 195.926C1470.33 196.758 1470.22 197.775 1470.52 198.975ZM1471.33 211.623L1494 205.982L1494.93 209.708L1477.24 221.462C1477.75 221.292 1478.37 221.083 1479.1 220.836C1479.85 220.604 1480.64 220.364 1481.46 220.117C1482.3 219.885 1483.09 219.676 1483.84 219.49L1496.57 216.322L1497.24 219.024L1474.57 224.665L1473.65 220.938L1491.34 209.215C1490.85 209.38 1490.23 209.579 1489.48 209.811C1488.74 210.038 1487.95 210.267 1487.11 210.499C1486.29 210.746 1485.5 210.965 1484.73 211.156L1472 214.324L1471.33 211.623Z" fill="black"/>
<path d="M1247 71L1223.06 96.0377L1256.71 104.251L1247 71ZM1175 366L1177.91 366.711L1243.51 97.9414L1240.6 97.2301L1237.68 96.5187L1172.09 365.289L1175 366Z" fill="black"/>
<path d="M1496 366L1505.74 332.755L1472.08 340.946L1496 366ZM1423 66L1420.09 66.7093L1486.7 340.475L1489.62 339.766L1492.53 339.056L1425.91 65.2907L1423 66Z" fill="black"/>
<line x1="1526" y1="367" x2="1708" y2="367" stroke="black" stroke-width="6"/>
<line x1="1162" y1="367" x2="1507" y2="367" stroke="black" stroke-width="6"/>
<path d="M632.24 26V2.64H647.28V7.12H636.976V12.304H646.448V16.784H637.04V26H632.24ZM658.916 26.32C657.358 26.32 655.993 26.032 654.82 25.456C653.646 24.8587 652.729 24.0373 652.068 22.992C651.428 21.9253 651.108 20.688 651.108 19.28V9.36C651.108 7.93067 651.428 6.69333 652.068 5.648C652.729 4.60266 653.646 3.792 654.82 3.216C655.993 2.61867 657.358 2.32 658.916 2.32C660.494 2.32 661.86 2.61867 663.012 3.216C664.185 3.792 665.092 4.60266 665.732 5.648C666.393 6.69333 666.724 7.93067 666.724 9.36H661.924C661.924 8.42133 661.657 7.70667 661.124 7.216C660.612 6.72533 659.876 6.48 658.916 6.48C657.956 6.48 657.209 6.72533 656.676 7.216C656.164 7.70667 655.908 8.42133 655.908 9.36V19.28C655.908 20.1973 656.164 20.912 656.676 21.424C657.209 21.9147 657.956 22.16 658.916 22.16C659.876 22.16 660.612 21.9147 661.124 21.424C661.657 20.912 661.924 20.1973 661.924 19.28H666.724C666.724 20.688 666.393 21.9253 665.732 22.992C665.092 24.0373 664.185 24.8587 663.012 25.456C661.86 26.032 660.494 26.32 658.916 26.32ZM670.487 26V2.64H678.455C680.098 2.64 681.527 2.94933 682.743 3.568C683.98 4.18667 684.93 5.05067 685.591 6.16C686.274 7.26933 686.615 8.57067 686.615 10.064C686.615 11.536 686.274 12.8373 685.591 13.968C684.908 15.0773 683.959 15.9413 682.743 16.56C681.527 17.1787 680.098 17.488 678.455 17.488H675.287V26H670.487ZM675.287 13.168H678.455C679.479 13.168 680.29 12.8907 680.887 12.336C681.506 11.76 681.815 11.0027 681.815 10.064C681.815 9.12533 681.506 8.37867 680.887 7.824C680.29 7.248 679.479 6.96 678.455 6.96H675.287V13.168Z" fill="#BA0000"/>
<path d="M1160.2 26V7.12H1154.28V2.64H1170.92V7.12H1165V26H1160.2ZM1179.39 26V7.12H1173.47V2.64H1190.11V7.12H1184.19V26H1179.39ZM1193.94 26V21.84H1198.58V6.8H1193.94V2.64H1208.02V6.8H1203.38V21.84H1208.02V26H1193.94Z" fill="#BA0000"/>
<line x1="618" y1="370" x2="618" y2="2" stroke="#BA0000" stroke-width="6"/>
<line x1="1141" y1="370" x2="1141" y2="2" stroke="#BA0000" stroke-width="6"/>
</g>
<defs>
<clipPath id="clip0_112_153">
<rect width="1779" height="434" fill="white"/>
</clipPath>
</defs>
</svg>
